<svg xmlns="http://www.w3.org/2000/svg" viewBox="0 0 335.47 439.25"><g id="Layer_2" data-name="Layer 2"><g id="Layer_1-2" data-name="Layer 1"><path d="M69,320.09c1.72-3.92,1.25-7.24,1.34-10.45.83-30.33,1.56-60.66,2.37-91,.63-23.78,1.09-47.58,2.09-71.35.72-16.93,2-33.84,3.47-50.72a105.4,105.4,0,0,1,3.78-19.22A69.84,69.84,0,0,1,100.42,46.2C110,36.7,120.85,29,133.48,24c1.37-.54,2.7-1.21,4.36-2,.2-2.29.3-4.62.62-6.92.95-6.84,4.72-11.42,11.26-13.6A34,34,0,0,1,154.94.3q14-2.23,15.83,12.09c.19,1.47.41,2.94.66,4.4,0,.26.3.48.84,1.3,1.22.22,2.91.58,4.62.81,26,3.58,47.36,15,62.52,36.88,1.86,2.69,3.59,5.47,5.45,8.16a56.23,56.23,0,0,1,9.92,29.17c.26,4.4,1.15,8.76,1.82,13.68,2.2-.11,3.89-.24,5.58-.27,7.72-.15,15.47-.74,23.16-.32,23.36,1.27,40.21,14.83,46.56,37.46a94.8,94.8,0,0,1,3.14,18.4,140.11,140.11,0,0,1-8.52,60.48c-7,18.64-14.52,37.08-22,55.53-8.16,20.11-16.53,40.13-24.85,60.17-1.48,3.56-2.72,7.37-4.93,10.45-2.32,3.24-2.57,6.5-2.34,10.11.9,13.65,1.85,27.3,2.65,41a112.59,112.59,0,0,1,0,12.46,13.89,13.89,0,0,1-8.69,12.52,86.08,86.08,0,0,1-12.48,4.69,227.79,227.79,0,0,1-58,8.61c-28.23.41-56.46.93-84.7,1.2-8.31.08-16.63-.53-24.94-.85a30.45,30.45,0,0,1-3.55-.34c-5.52-.88-9.35-3.77-10.5-9.43a61,61,0,0,1-1.31-9.69c-.29-7.4-.3-14.83-.43-22.41-4.28-1.88-8.35-3.6-12.35-5.46a65.47,65.47,0,0,1-30.56-28.88,102.31,102.31,0,0,1-10-26.62c-4.41-19.52-5.93-39.38-6.91-59.29-.53-10.79,2.18-21.24,4.09-31.77,2.49-13.74,5.13-27.47,7-41.31a150.47,150.47,0,0,0,.74-24A53.52,53.52,0,0,0,9.06,144.94c-2.52-2.92-5-5.9-7.32-9-1.46-1.93-2.49-4.13-1-6.6,1.57-2.68,4.07-3.31,6.91-2.94,5.89.77,11.75,1.84,17.66,2.37s9.69,3.68,12.81,8.45a84.9,84.9,0,0,1,13,34.78,167.61,167.61,0,0,1,.91,40c-1.65,17.46-3.36,34.92-2.93,52.52a161,161,0,0,0,4.36,33.55,58.18,58.18,0,0,0,4.73,12.44C60.33,314.87,63.48,318.43,69,320.09ZM90.91,86.67c-.66,2-1.62,3.82-1.88,5.76-.88,6.48-1.82,13-2.16,19.49-1,18.7-1.75,37.42-2.47,56.13q-1.61,41.89-3,83.8-.61,17.82-1,35.66c-.5,21.39-1.18,42.78-1.29,64.17-.1,18.44.39,36.87.82,55.3.12,5,.88,10.07,1.49,15.08a35.64,35.64,0,0,0,1.35,5.07A119.17,119.17,0,0,0,107,429.07c8.91-.08,17.82-.41,26.73-.55,20.2-.34,40.41-.77,60.61-.88a214.93,214.93,0,0,0,58-8.59c13-3.71,13.42-4.52,12.59-18.08-1.21-19.89-2.55-39.76-3.74-59.64-1.5-24.93-2.86-49.87-3.13-74.86-.22-21.1-1-42.21-1.94-63.3-.47-11-1.4-22-2.6-32.89-2.5-22.75-5.25-45.47-8-68.19-.83-6.77-2-13.52-3.21-20.23-.28-1.5-1.6-2.81-2.76-4.73a75.83,75.83,0,0,1-21.86,11.05,211.35,211.35,0,0,1-79,10.42,121.12,121.12,0,0,1-32.37-5.8C101.17,91.1,96.32,88.86,90.91,86.67Zm142.83-19c-12-25.95-44.24-41.51-75.5-38.75-29.4,2.59-58,23.4-64.84,48.06,2.19,2.65,5.5,3.32,8.51,4.42a129.33,129.33,0,0,0,37.45,7.11A211.68,211.68,0,0,0,182,86.35,164,164,0,0,0,220.55,76C225.46,74,230.23,71.7,233.74,67.69ZM17.64,139.16c1.15,1.9,2.08,3.7,3.24,5.33A56.86,56.86,0,0,1,31.94,176c.26,6.82.41,13.66.2,20.49-.47,15.51-3.61,30.66-6.68,45.81-2.3,11.35-5,22.65-4.63,34.37a329.89,329.89,0,0,0,6,54,91.83,91.83,0,0,0,11.5,29.77,54.39,54.39,0,0,0,17.37,17.63,42.19,42.19,0,0,0,14.34,6.35c.38-6.67-.4-12.54-.48-18.4s0-11.9-.24-17.84.78-11.83-.49-17.85c-12.73-3.25-19.19-12.38-23.06-24-.47-1.41-1-2.81-1.35-4.25a186.32,186.32,0,0,1-5.26-37.9c-.48-14.6.9-29.11,2.3-43.61a225.86,225.86,0,0,0,.87-37.41c-.92-13.49-4-26.37-11.12-38.13C28.08,139.88,24.3,137.19,17.64,139.16ZM260.69,139c.11,2,.1,3.18.25,4.33a778,778,0,0,1,6.38,86.14c.31,16.93.87,33.85,1.4,50.77,0,1.2-.67,3,1.46,3.6a17,17,0,0,0,1.29-2.32c8.72-23.35,17.5-46.68,26-70.1a105.46,105.46,0,0,0,4.71-17.15,187.65,187.65,0,0,0,3.07-23.82c.76-14.59-6.52-24.85-18.89-31.77a16.94,16.94,0,0,0-6.71-2.14A43.64,43.64,0,0,0,260.69,139Zm10.45,189.42c2.43-1.37,2.91-3.07,3.55-4.64q5.7-14,11.41-28.07c9.44-23.11,19-46.16,28.31-69.32a152.56,152.56,0,0,0,10.79-46.73c.79-11.67.14-23.23-3.36-34.42-5-15.87-15.69-25.51-32.22-28.45a90.82,90.82,0,0,0-24.86-.66,56.15,56.15,0,0,0-6.25,1.31c-.3,3.88-.56,7.29,2,10.93l10.41-1.63c6-.92,11.94-1,17.46,1.79,16.74,8.35,26.76,21.31,27,40.65a116,116,0,0,1-4.64,32.57c-2.76,10-6.17,19.85-9.75,29.6-9.31,25.38-18.58,50.79-28.52,75.92C269.69,314.34,270.34,320.8,271.14,328.41Z"/><path d="M241.2,244.5c-5.32,3.25-9.61,2.17-13.75-.17a2.56,2.56,0,0,1-.93-3.77,3.94,3.94,0,0,1,2.72-1.72C233.71,239.11,237.3,241.3,241.2,244.5Z"/><path d="M239.46,264.63c-5,.54-8-.73-9.49-4.16-.38-.9-.25-2.73.35-3.17,1-.72,2.82-1.27,3.8-.82C237.48,258,239.17,260.88,239.46,264.63Z"/><path d="M236.55,283.36a20.35,20.35,0,0,1,1.87,2.95c.65,1.52,2,3,.67,4.86-.68.92-2.62.48-3.75-.88C233.05,287.53,233.12,286.65,236.55,283.36Z"/></g></g></svg>