<svg xmlns="http://www.w3.org/2000/svg" viewBox="0 0 409.99 346.42"><g id="Layer_2" data-name="Layer 2"><g id="Layer_1-2" data-name="Layer 1"><path d="M34,112c-9-14.76-5.33-28.6,2.4-41.67A102.51,102.51,0,0,1,51.24,51.48,191,191,0,0,1,117.46,7.19c10.33-4.18,21.13-6,32.11-7C162-.89,173.14,2.22,182,11.62a9.29,9.29,0,0,0,1.91,1.13c11.44-8.57,24.64-8.26,38.1-6.28,17.44,2.56,34.15,7.85,50.63,13.86,10.32,3.76,20.52,7.9,30.69,12.05a147.41,147.41,0,0,1,26.53,14.55c13,8.78,17.53,21.16,15.59,36.32-.11.89-.39,1.75-.51,2.63a20.48,20.48,0,0,0,0,2.32c1.22.78,2.69,1.67,4.13,2.62,3.7,2.47,7.61,4.69,11,7.49A237.61,237.61,0,0,1,398.38,138a59.06,59.06,0,0,1,10.83,23.26c2.18,9.69-.41,18.29-5.47,26.32a18.18,18.18,0,0,1-15.68,8.79,63.42,63.42,0,0,1-12.37-1.07c-15.21-2.73-30.34-5.85-45.56-8.48a317.56,317.56,0,0,0-42.52-4.53c-3.25-.13-6.51,0-8.3,0-6.59,4.37-11.82,8.28-17.46,11.48-6.81,3.86-14.5,5.23-22.17,6.33-9.4,1.35-18.83,2.54-28.69,3.86-1.16,2.22-2.38,4.54-3.59,6.88a51,51,0,0,1-14.12,17c-7.19,5.64-15.72,6.94-24.31,7.24-3.28.11-6.76-2-9.94-3.48-2.37-1.13-4.41-3-7.08-4.8a27.33,27.33,0,0,0-1.94,3.93c-1.16,3.68-2,7.47-3.24,11.12a49.58,49.58,0,0,1-44,33.67c-1.77.1-3.54.16-5.5.25-4,7.18-5.7,15-7.8,22.72-1.57,5.72-2.32,11.67-3.91,17.39a98.58,98.58,0,0,1-5.55,15.94,24.84,24.84,0,0,1-15.76,13.55c-6.79,2.07-13,1.09-18.31-3.67a58.89,58.89,0,0,1-8.29-9.27,117.13,117.13,0,0,1-21.31-54.23c-1.34-10.3-2-20.69-2.81-31.06a8.48,8.48,0,0,0-2.06-5.65C2,231.19-.69,218.64.14,205.11,1.88,177,10,150.81,23.57,126.27a72.94,72.94,0,0,1,5-7.39C30.12,116.73,31.84,114.69,34,112ZM178.9,221.11c2.29,2.19,4.24,1.29,6,.23A36.45,36.45,0,0,0,197.93,207c4.37-8.1,5.7-16.89,5.15-25.9-1.05-17.5-1.91-35-3.81-52.45-2.32-21.25-5.36-42.44-8.61-63.57A141.26,141.26,0,0,0,178,24.46a22.77,22.77,0,0,0-13.45-12.25,31.89,31.89,0,0,0-12.26-1.7,96.67,96.67,0,0,0-32.09,6.73,181,181,0,0,0-58.5,38.32c-5.7,5.58-10.58,12-15.48,18.36C42,79.44,40,86,39.23,92.92a17.66,17.66,0,0,0,4.36,14,59.93,59.93,0,0,0,15.69,13c5.15,3,10.33,5.87,15.44,8.89,21.72,12.87,40.62,28.87,55.06,49.82,3.54,5.14,7.25,10.16,10.9,15.22,4.51,6.27,8.95,12.59,13.6,18.76,1.91,2.54,3.61,5.48,6.95,6.63,8.51-3.34,16.34-7.39,22.26-14.45a15.55,15.55,0,0,1,3.2-3.08c1.07-.69,2.45-.9,4.3-1.52C191.68,210.52,184.87,215.62,178.9,221.11Zm34-28.24c13.87-1.43,26.59-2.34,38.83-6.17,6.89-2.16,13.1-5.7,17.79-11.41,4.14-5,8.6-9.89,12.14-15.34,10.56-16.25,22.47-31.43,34.81-46.33a186.35,186.35,0,0,0,13.55-18.78,35,35,0,0,0,4.64-11.48c2.31-11.11-.4-20.62-10.2-27.39a129.73,129.73,0,0,0-24.91-13.79c-10.74-4.37-21.5-8.68-32.37-12.67-14.24-5.23-28.7-9.74-43.67-12.43a71.21,71.21,0,0,0-23.07-.81c-4.82.7-9.24,2.21-11.07,7.64a150.15,150.15,0,0,1,10.3,34.14c3.5,21.71,6.59,43.51,9.12,65.36,1.88,16.24,2.56,32.61,3.84,48.91.16,2,.69,3.92,1.09,6.14a52.46,52.46,0,0,0,12.78-1.21c3.78-.71,7.5-1.78,11.21-2.8s7.13-4.21,11.19-3.55c1.8,2.41.7,3.89-.54,5.2-5.33,5.62-12.11,8.56-19.57,9.83-4.88.82-9.87,1-15.27,1.52C213.4,188.78,213.24,190.17,212.93,192.87ZM143.34,216.4a27.28,27.28,0,0,0-1.68-3.13q-12.76-17.75-25.6-35.43a116.94,116.94,0,0,0-17-18.27,200.41,200.41,0,0,0-33.25-23.88c-7.18-4.18-14.1-8.81-21.13-13.24l-4.48-2.85A64.7,64.7,0,0,0,30.61,134a186,186,0,0,0-15.37,40.8c-2.93,12.16-5.12,24.47-4.71,37.06.58,17.42,10.07,27.32,23.23,31.2,9.69,2.86,19.27,6.06,28.92,9.05a47.36,47.36,0,0,0,4.87,1c4.46-5.51,8-10.93,9.7-17.42a20.67,20.67,0,0,1,1.64-4.13c.69-1.35,1.64-2.47,3.9-2a11.85,11.85,0,0,1,1.51,2.7c1.32,4.67,0,8.85-2.89,12.53-2.68,3.41-5.57,6.65-8.75,10.41l14.14,5.74a38.84,38.84,0,0,0,13-10,64,64,0,0,0,12.78-21.27,40.56,40.56,0,0,1,3-6.43c.28-.5,1.48-.68,2.25-.66.42,0,1,.67,1.18,1.16a12.43,12.43,0,0,1,.59,3.46c0,6.11-1.88,11.71-4.6,17.06a74,74,0,0,1-12,16.54,25.23,25.23,0,0,0-2.21,3.42,11.4,11.4,0,0,0,2.27.73,9.4,9.4,0,0,0,2.65-.17c14.77-3.44,26.35-10.82,31.25-26C139.16,231.64,141,224.45,143.34,216.4ZM286.88,171c3,.47,4.59.8,6.25,1,12.66,1.48,25.4,2.52,38,4.5,14.94,2.36,29.73,5.58,44.61,8.29a86.29,86.29,0,0,0,11.46,1.2,8.72,8.72,0,0,0,8.15-4.55c3.45-5.78,5.3-11.9,3.59-18.71a46.22,46.22,0,0,0-8.27-17.62c-4.58-5.82-9.25-11.61-14.26-17.07-8.84-9.63-18-19-28.44-26.89-2-1.54-4-3.4-7.18-3.74-6.87,12.88-16.81,23.17-25.59,34.35C308.94,139.72,303,147.86,297,156c-1.14,1.56-2.9,3.13-1.79,6a52.66,52.66,0,0,0,5.74.25c3.55-.18,7.09-.73,10.64-.87a27.22,27.22,0,0,1,6.09.58c1.45.27,2,2.59.92,3.62-1.27,1.19-2.61,2.6-4.18,3.13-5.9,2-11.86,3.9-18.15,1.16a19.19,19.19,0,0,0-6-1.45C289.54,168.39,288.69,169.61,286.88,171ZM23,250.5a11.78,11.78,0,0,0-.49,3.08c1.67,10.53,3.12,21.11,5.2,31.56a106,106,0,0,0,17.56,40.49c1.7,2.41,3.69,4.63,5.6,6.89,4.53,5.34,11.12,4,15.16.87a17.49,17.49,0,0,0,6.17-8.54,166.64,166.64,0,0,0,4.48-16.23A234.56,234.56,0,0,1,85,277.77a41.2,41.2,0,0,0,1.14-5.36C65.69,262.84,44.15,257.65,23,250.5Z"/><path d="M152.36,204c1-1.23,1.66-2.13,2.4-3,3.73-4.18,7.45-8.36,11.23-12.5a20.51,20.51,0,0,1,3.85-3.61,2.73,2.73,0,0,1,4.24,3,17.67,17.67,0,0,1-2.93,6.33c-4.27,5-9.47,8.87-16,10.55C154.51,204.94,153.68,204.38,152.36,204Z"/><path d="M156.15,53.12c-1.22-3.51-.32-6.9,1-10.23a2.68,2.68,0,0,1,3.56-1.72,3.68,3.68,0,0,1,2.07,2.46c.43,4.1-.88,7.56-4.68,9.68C157.66,53.53,157,53.21,156.15,53.12Z"/><path d="M155.34,33.07a6.39,6.39,0,0,1-2.63,6.3,2.75,2.75,0,0,1-2.3.43,2.49,2.49,0,0,1-1.3-1.94A20.09,20.09,0,0,1,151,32.2c.35-.65,2-.9,3-.79C154.52,31.47,155,32.61,155.34,33.07Z"/><path d="M154.29,165.55c1.31,4.65.68,5.51-5.58,7.67C149.16,168,149.25,167.91,154.29,165.55Z"/><path d="M218,154.93c5.78-2.08,11.54-4.23,17.38-6.14a3.19,3.19,0,0,1,3,1.08c.41.76-.13,2.19-.58,3.19a4,4,0,0,1-1.81,1.86,28.58,28.58,0,0,1-17.67,2Z"/><path d="M237.18,128.66c-.93.45-1.84,1.24-2.74,1.23a6.42,6.42,0,0,1-2.79-1.27c-.07,0,.26-1.25.54-1.31a20.21,20.21,0,0,1,4-.43C236.45,126.88,236.69,127.72,237.18,128.66Z"/><path d="M51.56,233.08c1.85-4.38,2.82-7.1,4.17-9.61a3.71,3.71,0,0,1,2.84-1.31c1.24,0,2.27,2.15,1.81,3.49C59.21,229,57.64,232,51.56,233.08Z"/><path d="M326.39,145.47c4.7-3.33,9-2.71,13.25-1.77.69.15,1.56,1.88,1.43,2.74a3.38,3.38,0,0,1-2.23,2.2A14.7,14.7,0,0,1,326.39,145.47Z"/><path d="M66.78,309.89a12.67,12.67,0,0,1-.19-9.49c.28-.8,1.69-1.47,2.68-1.65.54-.1,1.73.83,1.88,1.48.84,3.62.54,7.07-2.61,9.62C68.2,310.13,67.43,309.89,66.78,309.89Z"/></g></g></svg>