<svg xmlns="http://www.w3.org/2000/svg" viewBox="0 0 300.32 511.87"><g id="Layer_2" data-name="Layer 2"><g id="Layer_1-2" data-name="Layer 1"><path d="M276.68,218.2c-.48,3.18-.89,5.19-1.07,7.21q-4.37,49.28-8.67,98.55c-2.67,30.78-5.24,61.58-7.89,92.36-1.89,21.9-3.9,43.8-5.76,65.7-.51,5.92-.55,11.87-1.07,17.79-.65,7.33-2.66,9.7-9.82,10.14-11.25.69-22.46,2.08-33.83.67-14.77-1.84-29.63-1.83-44.53-1.1q-34.75,1.71-69.54,2.34c-9.78.17-19.58-.94-29.37-1.51a21,21,0,0,1-4.4-.65c-2.77-.76-4.73-2.42-5.26-5.41a4.63,4.63,0,0,1-.15-.88c0-7.76-3.12-15-3.9-22.6-.75-7.38-1.72-14.75-2.56-22.13Q45.49,429,42.15,399.35c-2.64-23.61-5.21-47.24-7.87-70.85q-4.05-35.87-8.21-71.72c-1.25-10.92-2.47-21.84-3.73-32.76-.17-1.43-.5-2.84-.83-4.69-2.26-.23-4.26-.51-6.26-.62s-4.18.06-6.25-.12c-5.35-.45-7.59-2.35-8.33-7.51A92.29,92.29,0,0,1,0,200.42c-.09-3.55,0-7.1.05-10.65s1.5-5.58,5.18-5.87,7.13-.13,10.7-.21c3.22-.07,6.44-.2,9.77-.31C43.15,132.49,76,98.24,129.45,85.74c.08-3.78.21-7,.21-10.24q0-29.41-.1-58.84c0-2.08-.08-4.17,0-6.24.25-5.47,1.14-6.47,6.45-8A59.09,59.09,0,0,1,154.52,0c5.47.17,7.3,1.94,7.67,7.58.16,2.37.06,4.75.06,7.13q0,29,0,58v9.94c4.93,1.87,9.68,2,14.26,2.83,18.9,3.44,36.87,9.19,52.73,20.48,24.76,17.62,40.52,41.35,48.33,70.53.38,1.41.89,2.79,1.43,4.48,3.55,1.09,7.11.49,10.59.64,2.37.11,4.76.06,7.11.37,1.95.26,3,1.76,3.48,3.6a10.25,10.25,0,0,1,.17,2.66,64.27,64.27,0,0,1-4,20.9,22.61,22.61,0,0,1-3.17,5.33,8.19,8.19,0,0,1-6.86,3.52C283.33,218,280.39,218.11,276.68,218.2ZM41,299.28q10.11,91.19,20.47,181.47c1.41.51,2.22,1.06,3,1.06q87.43-.46,174.86-1.06a16.91,16.91,0,0,0,3.55-.84c.32-1.9.73-3.62.88-5.37q7.53-85.2,15-170.42a5,5,0,0,0-.49-1.68c-46.59,13.64-41.24,14.74-96.08,7.22-.7,6.66-1.16,13.25.6,20.68,3.19-2.55,5.66-4.59,8.21-6.55,4.15-3.18,8.69-4.05,13.27-1.21a219.32,219.32,0,0,1,18.53,12.28c6.8,5.23,10.91,12.52,12.94,20.83,2.49,10.24,1,19.49-7.63,26.62-1.14.95-2.18,2-3.34,2.94-12.4,9.77-25,19.17-39.89,25a10.86,10.86,0,0,0-2.27,1.76c0,3.48,0,7,0,10.58,0,4.16.18,8.33,0,12.48-.27,5.57-3,9.23-8.43,11.32-5.58,2.16-10.33,1-15.27-1.74-4.59-2.56-6.86-5.86-6.81-11.36.09-10.39-.51-20.79-.72-31.18-.64-31.19-1.21-62.39-1.87-93.57-.07-3.2.39-6.53-1.21-9.79-2-.62-3.91-1.37-5.9-1.81-5.8-1.3-11.61-2.56-17.44-3.68a123.62,123.62,0,0,0-44.36-.49A57.87,57.87,0,0,0,41,299.28Zm121-80.13c-1.31,8.42-.87,71.35.55,78.71a36.6,36.6,0,0,0,3.91,1.56c21,5.73,42.24,6.95,63.49,1.47,10.61-2.73,21.29-5.64,30.22-13.28.72-7.51,1.47-15.18,2.18-22.86s1.65-15.38,1.94-23.09,2.25-15.13,1.29-22.69c-8-1.27-72.3-1.63-98.52-.58A44.59,44.59,0,0,0,162,219.15Zm1.33-124.27c-.2.22-.48.41-.58.67a5.19,5.19,0,0,0-.43,1.7q-.15,37.8-.23,75.62c0,2.36.21,4.73.34,7.09a1.87,1.87,0,0,0,.21.85,7.7,7.7,0,0,0,1.19,1,15.84,15.84,0,0,0,2.82.39q48.54-.24,97.07-.58a18.14,18.14,0,0,0,3.93-.89C258.88,135.6,216.81,95.05,163.36,94.88Zm-123,193.45a12,12,0,0,0,2.34-.32c15.5-6.28,31.68-7.45,48.16-6.47,10.42.62,20.6,2.63,30.75,4.95,2.2.5,4.48.62,7.43,1-.24-23.1-.29-45.53-1.69-68.37a43.74,43.74,0,0,0-4.81-.59q-42.81,0-85.61.18a20.84,20.84,0,0,0-4,.79C32.52,227.39,37.9,276.78,40.41,288.33ZM129.2,182.67c1.25-8.66,1.47-52.9.53-80.39-.06-1.73-.44-3.45-.67-5.16-10.87,1.1-26,6.85-38.1,14.61a126.38,126.38,0,0,0-40.73,41.71c-9.5,15.77-12.53,22.53-13.16,30C67.65,183.55,98.19,183.22,129.2,182.67Zm-119.44,26H21.48l231.16-.26c9.22,0,18.44,0,27.66-.07a58.44,58.44,0,0,0,6.36-.75c1.88-5.19,4.24-9.9,3.34-15.72-4-1.06-7.9-.59-11.71-.56q-103.53.84-207,1.74c-18.14.16-36.29.44-54.43.71-2.3,0-4.82-.53-7,1.92Zm168.1,122a12.61,12.61,0,0,0-2.64,1.41Q162.56,344,150,355.94c-3.81,3.6-5.29,8-3.47,12.93,3.46,9.44,7.14,18.81,10.93,28.13.59,1.46,2.24,2.5,3.55,3.9a80.77,80.77,0,0,0,8.48-3.57,181,181,0,0,0,31.36-21.82c.88-.79,1.7-1.66,2.53-2.5a12.32,12.32,0,0,0,3.47-10.61c-.8-6.64-3.11-12.7-7.86-17.54A66.25,66.25,0,0,0,177.86,330.71Zm64.6,160.09c-3.48-.05-6.7-.16-9.93-.13l-108.76,1c-18.43.16-36.85.27-55.28.46a24.54,24.54,0,0,0-4.1.69c-.65,3.11-.64,5.65,1.94,8.45,13.72.22,28,.9,42.19.58,22.28-.51,44.54-1.8,66.81-2.55a206,206,0,0,1,32.92,1.34c10.34,1.32,20.76.68,31.13-.42a9.08,9.08,0,0,0,2.53-1.18,38.92,38.92,0,0,0,.87-4.27A25.88,25.88,0,0,0,242.46,490.8Zm-101.84-396c-1,8.07-1.41,62-.68,82.44.05,1.43.38,2.84.58,4.33a16.65,16.65,0,0,0,10.93.07,28.72,28.72,0,0,0,.64-4.29q.07-39.11,0-78.19a28.18,28.18,0,0,0-1-5.2c-1.91,0-3.37-.1-4.82,0C144.51,94.12,142.78,94.46,140.62,94.78Zm10.25,198.81c1.45-8.07.8-66.32-.93-74.56-3.82-.7-7.72-1.24-11.67.7a35.49,35.49,0,0,0-.36,3.8q.66,32,1.4,63.93a19.78,19.78,0,0,0,1.1,4.2c3.13.87,6,1.69,8.81,2.39C149.71,294.17,150.32,293.76,150.87,293.59ZM139.81,11.27c0,23.25,0,46,0,68.76a17.07,17.07,0,0,0,.75,3.44,23.91,23.91,0,0,0,10.09-.27c.62-.73.95-.93,1-1.18a30.88,30.88,0,0,0,.48-4.38q-.06-32.83-.2-65.67a1.48,1.48,0,0,0-.3-.79,10,10,0,0,0-1.12-1C147.52,9.15,144.12,9.9,139.81,11.27Zm1.29,338c3.8-1.49,5.56-4.43,8.11-6.38,2.34-1.8,3-4.16,2.92-7-.16-8-.1-16-.21-24,0-2-.38-4-.59-6.06-3.79-1.43-7.1-3.42-11.05-2.77C139.34,311.6,139.81,340.64,141.1,349.27Zm1.07,40.61c-.21.25-.52.44-.51.63q.1,20.81.27,41.6c0,2.18.64,4,2.75,5.15,2.71,1.48,5.07,1.25,7.78-1.51,0-5.3-.13-11.19,0-17.06.19-6.57-.05-12.87-4.59-18.34-1.63-2-2.13-4.84-3.36-7.19C144,392,144,390.19,142.17,389.88Z"/><path d="M119.75,337.76a17.81,17.81,0,0,1-4.1,11.74A31.68,31.68,0,0,1,96,360.67c-6.06,1-11.19-.84-14.81-5.92-2-2.88-3.81-6-5.58-9.05-4.82-8.36-4-16.42,1.56-24.1a12.75,12.75,0,0,1,3.59-3.78,100.45,100.45,0,0,1,13.43-6.76c6.16-2.36,11.63-.79,15.92,4.41A43.62,43.62,0,0,1,119.75,337.76Zm-19.56-18c-8.3.06-11.94,5.37-16,9.92A6.94,6.94,0,0,0,83,337.19a96.26,96.26,0,0,0,6.32,11.58c1.38,2.21,3.79,2.73,6.3,2A25,25,0,0,0,107,344.29a8,8,0,0,0,2.43-7.26C108.1,330.26,105.67,324.08,100.19,319.75Z"/><path d="M202.26,413.91c-.7-7.43,2.2-13.27,7.86-17.88a76.92,76.92,0,0,1,7.74-5.88c1-.65,3.23-.84,4.07-.19,7.87,6.13,14.33,13.16,14.6,24,.13,4.94-1.55,8.94-5.88,11a115.34,115.34,0,0,1-17.25,6.76c-4.88,1.43-8-.79-9.33-5.62a44.54,44.54,0,0,1-1.23-6.08C202.54,418,202.45,416,202.26,413.91Zm11.55,6.54a4.42,4.42,0,0,0,1.68.23,52.35,52.35,0,0,0,5-1.67c6.6-2.55,7.46-4,4.28-11.53-1.14-2.7-3-5.07-6-6C211,407.29,210.52,409.21,213.81,420.45Z"/><path d="M78.52,421.79c.31-4.64,1.55-8.21,6.31-10a53.71,53.71,0,0,0,7-3.77,9.15,9.15,0,0,1,10.81,1.05,24.37,24.37,0,0,1,8.22,12.42,10.11,10.11,0,0,1-2.49,9.94,23,23,0,0,1-18.19,7.84,9.16,9.16,0,0,1-8.79-6.41C80.12,429.32,79.47,425.5,78.52,421.79Zm18.32-5c-8.71,3-9.41,4.82-4.87,12.68a53.11,53.11,0,0,0,6.23-2.38c3-1.57,3.48-3.47,1.75-6.5A28,28,0,0,0,96.84,416.8Z"/><path d="M224.52,142c2.78,0,4.63,2.11,4.45,4.15-.39,4.37-8.88,15-13,15.81a5.56,5.56,0,0,1-4-1.08,3.39,3.39,0,0,1-.62-4.8c3.39-4.43,7-8.72,10.67-12.93C222.72,142.39,224.08,142.22,224.52,142Z"/><path d="M209.17,141c-3.54.17-5.7-2.86-4.49-5.47,1.61-3.45,3.38-6.83,5.21-10.18a4.19,4.19,0,0,1,7.91,2.19c-.69,4.39-2.13,8.6-5.46,11.78A11.2,11.2,0,0,1,209.17,141Z"/></g></g></svg>