<svg xmlns="http://www.w3.org/2000/svg" viewBox="0 0 343.74 299.96"><g id="Layer_2" data-name="Layer 2"><g id="Layer_1-2" data-name="Layer 1"><path d="M273.27,47.37c4,1.15,7.5.16,11-.2a61,61,0,0,1,28.07,3.46,36.15,36.15,0,0,1,19.21,16.5A92.14,92.14,0,0,1,343.3,107c1.6,23.63-1.27,46.84-7.16,69.76-5.66,22-18.79,37.3-39.79,46-7.44,3.09-14.92,5.87-22.9,7.19a51.83,51.83,0,0,0-6,1.79c-.86,6.47-1.6,12.63-2.53,18.77A62.17,62.17,0,0,1,262.76,261c-4.2,12.58-12.48,20.64-26,22.56-2,.29-4,.74-6.36,1.18-.42,2.55-.73,4.84-1.19,7.11-.65,3.21-2.59,5.44-5.81,6A102.85,102.85,0,0,1,211,299.44c-19.64,1.12-39.26.19-58.88-.6-8.63-.35-17.25-.61-25.87-.92-20.22-.72-40.45-1.32-60.66-2.23a157.45,157.45,0,0,1-19.48-2.26c-6-1-7.36-3.14-7.37-9.19,0-2.07,0-4.14,0-6.95-2-.93-4.35-2.11-6.76-3.07-10.33-4.11-17-11.32-20.39-22.07-3.15-10-4-20.36-5.42-30.66-4-29.54-4.2-59.27-4.56-89C1.31,106.94.77,81.38.49,55.82.37,45.12.75,34.41.72,23.71c0-5-.45-10.07-.7-15.11C-.21,3.84,1.34,2,6,1.61c1.78-.14,3.57-.08,5.36-.09Q135,.76,258.61,0a88.2,88.2,0,0,1,8.91.23,4.7,4.7,0,0,1,4.57,4.63c.39,5.33.62,10.69.68,16,.08,6.84-.12,13.68-.09,20.51C272.69,43.42,273.07,45.43,273.27,47.37ZM12.1,121.1a48.15,48.15,0,0,0-.61,5.75q.86,34.32,1.83,68.63c0,1.78.37,3.55.57,5.32,1,8.86,2,17.72,2.94,26.59a103.09,103.09,0,0,0,5.24,24.33,19.76,19.76,0,0,0,10.38,11.66,81.77,81.77,0,0,0,9.93,3.95c9.13,3,18.58,3.88,28.15,4.11,10.4.24,20.82.44,31.2,1.22,19.29,1.44,38.59,2.42,58,2.34,5,0,10.11.4,15.16.46,13.09.18,26.18.39,39.26.31,4.13,0,8.25-.9,12.37-1.44,2.91-.39,5.82-1.28,8.71-1.2,4.51.13,7.95-1.62,11.28-4.41a21.89,21.89,0,0,0,7.41-12.87,107.53,107.53,0,0,0,2-13.21q1.47-18.66,2.51-37.36c1.48-26.71,2.63-53.43,2.75-80.2.11-23.48.85-46.95,1.35-70.43.26-12.48.65-25,.91-37.45.05-2.29.6-4.8-2.08-7-2.45,0-5.41,0-8.37,0q-70.53.27-141,.55-46,.21-91.94.54c-3.19,0-6.58-.76-9.84,1.51,0,2.78-.12,5.73,0,8.66s-.85,6,1.32,8.8c5.48,1.12,11.12.06,16.73.31a45.78,45.78,0,0,1,5,.72c.28,3.43.55,6.33-1.47,9.2l-20.21.66c-1.67,6.77-1.71,17.73-.13,26.35C29,68.74,46.68,65,64.91,66.14c-.23,3.17-.42,5.75-.6,8.13-4.09,2.06-8,1.68-11.84,1.9-12.18.69-24.37,1.23-36.55,1.89a45,45,0,0,0-4.84.76c-1.17,8.16-.24,25.58,1.7,31.73l23.07-1.25a43.67,43.67,0,0,1,.35,4.91,38.92,38.92,0,0,1-.72,4.51ZM272.29,82a10.39,10.39,0,0,0-.68,2.47c-1.24,38.86-.25,77.79-2.89,116.62a9.42,9.42,0,0,0,.55,2.52c7.19.06,12.54-1.56,18.18-5.72A44.6,44.6,0,0,0,304,174.2a129.13,129.13,0,0,0,3.63-16.5c2.68-16.8,2.34-33.75,1.6-50.66-.23-5.22-2.06-10.43-3.62-15.5A14.17,14.17,0,0,0,299,83.46C292.12,79.44,280.71,78.72,272.29,82Zm.09-11.12c1.68.07,2.81.17,3.95.17,4.75,0,9.52-.36,14.24,0,12.91.91,21.57,7.58,25.63,19.93a66.17,66.17,0,0,1,3.47,21.9c-.24,13.64-.36,27.32-1.5,40.9a104.26,104.26,0,0,1-5,24.33c-5.79,17.25-16.81,29.81-35,34.94a55.69,55.69,0,0,0-8.36,3c-2.18,1-1.87,2.68.09,4.39,13.64-1.76,25.9-7.34,37.32-15.17,5.54-3.79,10-8.51,12.73-14.57a146.52,146.52,0,0,0,7.41-20c4.53-16.39,6.29-33.24,6.59-50.18a130.93,130.93,0,0,0-1.59-21.28A81.36,81.36,0,0,0,324,73.9c-4-7.93-10.33-12.71-18.75-15.22-8.75-2.61-17.63-2.14-26.53-1.66a52.47,52.47,0,0,0-6.34,1.17ZM218.77,288c-.2-2.87-2.32-2.4-4-2.41-21.39-.19-42.78-.25-64.17-.52-8.91-.11-17.81-.51-26.71-1-14.54-.75-29-1.82-43.59-2.43-8.6-.36-17.24.11-25.76-1.51A18.36,18.36,0,0,0,51,280c-1.32,0-2.36.63-2.21,2a2.82,2.82,0,0,0,1.31,2,13.11,13.11,0,0,0,4.28,1c14.24.74,28.48,1.52,42.73,2.07,27.9,1.08,55.8,2.27,83.72,2.92,11.85.27,23.73-.67,35.6-1.13A7.75,7.75,0,0,0,218.77,288Z"/><path d="M241.72,187.79c-.44,3.82-.66,8.59-1.59,13.23-2.1,10.47-4.51,20.87-6.87,31.28-.66,2.91-1.49,6-4.2,7.59a7.19,7.19,0,0,1-5,.5c-2-.48-2.4-2.49-2.24-4.35a25,25,0,0,1,.87-3.43c2.54-10.68,5.59-21.27,7.42-32.06,1.27-7.55,1-15.37,1.16-23.08.1-4.74-.36-9.49-.43-14.24a8.27,8.27,0,0,1,.73-4.3,5,5,0,0,1,3.47-2.2c1.21,0,2.61,1,3.66,1.92a3.9,3.9,0,0,1,.85,2.45C240.31,169.68,241,178.26,241.72,187.79Z"/><path d="M93.11,38.2C86,39.57,61.73,40,54.66,38.77c-.23-2.38-.48-4.92-.7-7.18,2.58-1.86,27.17-2.78,38.31-1.73C93.64,33.67,93.67,33.67,93.11,38.2Z"/><path d="M115.17,37.68V29.52a33.67,33.67,0,0,1,5-.95c6-.19,11.9-.23,17.84-.27a29.49,29.49,0,0,1,5.32.35,4.57,4.57,0,0,1,3.45,4.58,4.32,4.32,0,0,1-3,4,11.53,11.53,0,0,1-3.48.71q-11.13.38-22.29.58A11.21,11.21,0,0,1,115.17,37.68Z"/><path d="M86.23,74.23v-8.8c4.67-1.16,20-2.25,23.1-1.72,2.36.4,3.92,1.86,4.17,3.89.29,2.45-1.2,5-3.7,5.19A232.21,232.21,0,0,1,86.23,74.23Z"/><path d="M57.56,117v-8.67c4.7-2,9.39-1.53,14-1.42a4.25,4.25,0,0,1,4.21,3.74,4.41,4.41,0,0,1-3.49,5.25A48.13,48.13,0,0,1,57.56,117Z"/><path d="M205.63,259.83c-2.21-.18-4.17-3.33-3.11-5.34a17.3,17.3,0,0,1,9-8c1-.41,3,.31,3.83,1.19s1.4,3,.92,3.95a15.49,15.49,0,0,1-9.81,8.26A2.66,2.66,0,0,1,205.63,259.83Z"/></g></g></svg>