<svg xmlns="http://www.w3.org/2000/svg" viewBox="0 0 312.59 499"><g id="Layer_2" data-name="Layer 2"><g id="Layer_1-2" data-name="Layer 1"><path d="M308.94,17.31c-5.34,7.56-11.71,13-17.35,19-5.89,6.3-12,12.42-18,18.62L256,73.17l3.15,6.1c21.68-2.29,34.24,14,34.27,31.59a14.81,14.81,0,0,0,2,1.38c13.18,6.57,19.17,17.82,16.7,32a45.65,45.65,0,0,1-7.82,18.78c-4.89,6.88-9.89,10-20,12.46-2.34,4.94-4.43,10.16-7.21,15s-7.16,7.85-12.3,10c-1.08,5.26-.59,10.33-.16,15.28,2.61,29.57-1.05,58.74-5.12,87.9-2.55,18.26-6.73,36.19-10.86,54.15-6.57,28.57-17.32,55.52-30.9,81.41-1.49,2.86-2.93,5.74-4.57,9,6.3,6.91,12.56,13.16,20.27,17.79,4.59,2.75,9.36,5.19,13.93,8a32.1,32.1,0,0,1,6.31,4.85,4.69,4.69,0,0,1-1.52,7.5,40.21,40.21,0,0,1-8.62,1.93c-16.5,2.51-33.2,2.37-49.81,3.38-28.8,1.75-57.64,2.7-86.45,4.2-13.66.72-27.29,1.91-40.93,2.94-3.27.24-6.92,1.12-8.78-2.47-2.16-4.15,1.24-6.56,3.78-9,4.52-4.32,9.09-8.57,13.68-12.8,7-6.5,12.6-14.15,17.86-21.74-.33-4.29-2.73-7.05-4.59-10C69.66,413,56.13,381.11,45.74,347.8,38,323,33.77,297.59,31.82,271.71A609.27,609.27,0,0,1,30,209.35c.05-1.75-.23-3.51-.34-5.11-20.56-10-24.74-18.83-18-38.34-1.17-1.71-2.48-3.65-3.82-5.58S5,156.5,3.76,154.48c-4.73-7.75-5-15.62-.7-23.7A41.82,41.82,0,0,1,15.38,116.4c-.46-3.42-.91-6.91-1.4-10.39-1.76-12.36,5.1-19.69,13.48-23.69a37.88,37.88,0,0,1,20.77-4,69.67,69.67,0,0,1,7.06,1c4.4.94,7.5-.55,9.63-4.47a41,41,0,0,1,3-4.44c9-12.29,20.94-16.89,35.88-14.16a45.86,45.86,0,0,1,18,7.29c1.44,1,2.93,1.89,4.87,3.13,1.68-2,3.17-3.72,4.64-5.47,9.22-11.06,20-14.09,33.47-8.62,6,2.44,11.54,6,17.23,9.22,2,1.13,3.87,2.56,6.07,4,10.6-15.41,24.41-15.55,39.88-8.7,2.19-2.2,4.31-4.21,6.31-6.35,14-15,28.36-29.68,41.9-45.08,5.54-6.29,11.09-6.89,18.11-4.24a17.56,17.56,0,0,1,8.57,6.13C304.89,10.5,306.63,13.59,308.94,17.31ZM208.83,204.81c-1.05.89-1.93,1.67-2.85,2.42-10.84,8.84-21.48,9.11-32.48.83l-4.74-3.59c-22.4,11.67-33.52,10.32-53.94-6.52-1.37.93-2.78,2-4.27,2.87-3.53,2.16-6.92,4.72-10.7,6.31C86,213,72.63,212.33,60.33,202.84c-1.39-1.08-2.8-2.14-4-3.09l-16.72,4.8c-.14,2.28-.44,4.3-.37,6.31.69,18.7,1.15,37.41,2.25,56.08a338.28,338.28,0,0,0,7.61,54.64c7.05,31.16,18.48,60.75,32.67,89.27,5.14,10.35,11.51,20.09,17.14,30.21,2,3.57,4.68,5.17,8.69,4.75,1.18-.13,2.38-.08,3.57-.12q34.75-1.32,69.51-2.66c8-.32,16-.82,23.75-1.23a21.44,21.44,0,0,0,1.87-2.41c12.38-22.44,22.47-45.87,29.24-70.6a556.93,556.93,0,0,0,15.62-76.74c2.69-21.21,5-42.48,4.25-63.94-.23-6.82-.15-13.66-.29-20.49,0-1.71-.36-3.42-.5-4.69l-22.91-7.14C225.73,202.28,217.76,205,208.83,204.81Zm12.1-140.07C209.18,60.67,204.22,62,197.67,70c-.75.93-1.42,1.92-2.23,2.79-3.93,4.2-7.61,4.73-12.72,1.69a56.06,56.06,0,0,1-5.8-4.14,57.94,57.94,0,0,0-16.41-8.85c-9.22-3.29-16-1.2-22,6.64-1.61,2.13-2.87,4.52-4.46,6.66-2.77,3.7-6.14,4.53-10.14,2.3a83.8,83.8,0,0,1-7.32-5.07A35.17,35.17,0,0,0,97.5,65.51c-8.62-.36-15.7,2.74-20.84,9.81-1.74,2.4-3.41,4.87-5,7.34a13.94,13.94,0,0,1-13.68,6.62q-5.79-.48-11.57-.85a28.09,28.09,0,0,0-15.49,3.33c-5.91,3.2-7.94,7.32-7,14,.43,2.93,1,5.85,1.55,8.77.75,4.22-.69,7.46-4.05,10.14a39.28,39.28,0,0,0-7,6.76c-5.2,6.87-6.28,13-.05,21.09,2.18,2.82,4.37,5.65,6.35,8.61a8.13,8.13,0,0,1,.76,8.46c-.76,1.6-1.45,3.25-2.16,4.88a11.83,11.83,0,0,0,.88,11.12,15.44,15.44,0,0,0,12.21,7.87c6.31.74,12.5.44,18.15-2.72,5.32-3,9.61-1.64,13.65,2.35a30,30,0,0,0,4.2,3.29A24.75,24.75,0,0,0,87,200.68a36,36,0,0,0,16.28-6.85c2.13-1.62,4.13-3.4,6.28-5,4.58-3.42,7.62-3.23,11.78.69,2.59,2.44,4.92,5.22,7.73,7.37,10,7.67,25.18,6.45,34.09-2.61-.1-.8-.19-1.68-.3-2.55-.16-1.18-.41-2.35-.49-3.53-.31-4.57.68-6.62,3.41-7.22s4.62,1.13,5.37,5.56A21.38,21.38,0,0,0,177.6,199c7.85,7.41,17.23,6.69,23.79-1.89,1.44-1.9,2.52-4.06,5.14-4.51,9.14,2.77,11.74,2.17,18.39-4.22.64-.62,1.19-1.33,1.84-1.94,4.23-4,6.26-4.34,10.79-.71a27.68,27.68,0,0,0,12.89,5.63c10.52,1.88,17.31-1.78,21.13-11.66,1.06-2.77,1.89-5.63,2.71-8.48,1.1-3.87,3.33-6.32,7.59-6.12,7.17.33,11.67-3.75,15.18-9.22a33.92,33.92,0,0,0,5.06-13.23c1.66-10.75-2.07-17.65-12.42-21.49-4.67-1.73-6.47-4.57-6.53-9.32a44.28,44.28,0,0,0-1.29-9.65c-1.59-6.68-11.61-15.48-19.89-12.85q-8.61,2.73-12.36-5.56c-.29-.64-1.26-1-2.27-1.71-7.52,7.8-14.92,15.45-22.84,23.65,2.88,1.22,5,2,7.06,3a32.85,32.85,0,0,1,12.17,10.23,4.76,4.76,0,0,1-.65,6.45,5,5,0,0,1-5.82.16,22.27,22.27,0,0,1-3.36-2.93c-5.86-6.22-13.17-7.62-21.26-6.4-6.56,1-12.59,3.11-17.89,7.37-2.66,2.14-6.16-.06-6.1-3.55a55.58,55.58,0,0,1,.64-5.54c-5.22-2.73-9.84-1.64-14.39,0-1.37.49-2.52,1.57-3.85,2.22-2.36,1.14-4.27.81-5.65-.79a4.24,4.24,0,0,1,.87-6.29,32.38,32.38,0,0,1,8.47-4.68c3.61-1.23,7.5-1.62,11.43-2.4C197.25,90,209.26,78.13,220.93,64.74ZM78,486.62c51.24-2.51,102.24-3.47,153.1-7.43.4,0,.74-.7,1.88-1.84-11.53-6.14-19.78-15.81-28.91-25.13-34.23,1-68.58,2.37-102.69,4.15C94.15,467.2,86.91,477.27,78,486.62Zm118.68-381c1.25,3,2.93,3.77,5.29,3.37a21.36,21.36,0,0,0,12.17-6.7Q253,61.82,292.05,21.63c1.62-1.68,3.07-3.51,4.6-5.26-1.51-5-4.89-6.66-10.07-6.9Z"/><path d="M230.81,278.84a314.64,314.64,0,0,1-18.44,87.62c-1.11,3.06-2.17,6.17-5.07,8.16a4.64,4.64,0,0,1-5.74.05,4.43,4.43,0,0,1-1.46-4.78,8.57,8.57,0,0,1,.65-1.65,211.92,211.92,0,0,0,12.36-38.89c3.87-17.05,7.37-34.18,8.44-51.69a38.49,38.49,0,0,1,.46-4.42c.67-3.69,2.31-5.54,4.74-5.51s3.94,2.2,4,5.87C230.86,276,230.81,278.34,230.81,278.84Z"/><path d="M189.39,395.2c.82-2.89,1.91-6.5,5.17-8.92,2.16-1.6,5.74.08,6,2.78.35,3.22-2.67,9-5.44,10.34C192.66,400.64,189.34,398.7,189.39,395.2Z"/><path d="M103.93,141.47c7.1.25,11.93,3.94,16,9a4.12,4.12,0,0,1-.36,5.65,4.35,4.35,0,0,1-5.64.81,24,24,0,0,1-3.49-2.71c-4-3.69-8.49-3.72-13.19-1.56-1.33.62-2.52,1.84-3.88,2a5.84,5.84,0,0,1-4-1,3.32,3.32,0,0,1-.69-4.77c1.2-1.62,2.58-3.52,4.32-4.24C96.48,143.2,100.27,142.48,103.93,141.47Z"/><path d="M37.23,146.68c.52.19,1.59.25,2.1.81a35.5,35.5,0,0,0,8.86,7c2.14,1.22,1.93,4.44-.06,6a5.86,5.86,0,0,1-2.28,1.21c-5.08,1-12.74-5.51-12.77-10.85A4.63,4.63,0,0,1,37.23,146.68Z"/><path d="M50.29,135.29c-.75.83-1.63,2.68-3,3.11-4,1.27-8.56-2.86-8.07-6.87a4,4,0,0,1,3.55-3.34C46,128.1,49.88,131.42,50.29,135.29Z"/></g></g></svg>