<svg xmlns="http://www.w3.org/2000/svg" viewBox="0 0 363.22 271.14"><g id="Layer_2" data-name="Layer 2"><g id="Layer_1-2" data-name="Layer 1"><path d="M352.16,190.32c.29,5.71.3,12,1,18.15a127.34,127.34,0,0,1-1.25,38.19,64.4,64.4,0,0,1-3.51,11.94,17.21,17.21,0,0,1-13.18,10.89,66.24,66.24,0,0,1-12.34,1.62c-11.88.07-23.77,0-35.64-.49-32.36-1.46-64.7-3.26-97.05-4.81-27.9-1.34-55.83-2.28-83.72-3.83A401.45,401.45,0,0,1,49,255a75.92,75.92,0,0,1-20.94-7.38c-9.81-5.26-15.58-13.26-17-24.56a249.9,249.9,0,0,1-1.8-37.29c.12-5.34.51-10.76-3.94-14.9-.82-4-2.06-8.07-2.38-12.16C2.12,148.37,1.78,138,1.19,127.57.83,121.33-.06,115.11,0,108.88A180.8,180.8,0,0,1,1.55,88.5c.49-3.91,2.79-7,5.88-9.67A107.38,107.38,0,0,1,28.17,65.06C46,55.62,64,46.45,82.65,38.57c20.51-8.68,40.73-18.06,61.06-27.17A162.58,162.58,0,0,1,174.06,1.22a48.54,48.54,0,0,1,27.17,1.65,128.16,128.16,0,0,1,29.36,14.78c19.57,13,39,26.16,60,36.75,11.4,5.75,22.56,12,33.77,18.11,3.9,2.14,7.64,4.58,11.38,7,17.28,11.17,26.17,27.26,27,47.65.53,13.37.35,26.76.47,40.15.08,8.52-2.69,15.73-9.62,21.05A10.64,10.64,0,0,0,352.16,190.32Zm1.35-43.21.23,0c-.5-8-.82-16-1.54-24-1.18-13.1-6.86-23.93-17.34-32a114.94,114.94,0,0,0-13.29-9c-10.87-6.12-22-11.82-32.91-17.85-12-6.61-24-13.1-35.67-20.2-10.4-6.33-20.31-13.47-30.48-20.19A116.26,116.26,0,0,0,201.12,13a44,44,0,0,0-28.8-1.61,167.68,167.68,0,0,0-25.14,9C132.59,27,118.1,33.94,103.27,40.06,78.82,50.16,54.65,60.85,30.91,72.53a87.89,87.89,0,0,0-14.83,9.75,13.51,13.51,0,0,0-5,8.17c-1.7,7.66-1.62,15.34-1,23.09s1,15.43,1.46,23.14c.54,8.61,1.17,17.22,1.61,25.83a6.69,6.69,0,0,0,8.7,6.36,58.77,58.77,0,0,0,9.88-3.93c2.11-1,3.9-2.7,5.86-4.05,2.45-1.69,4.83-3.49,7.4-5,9.94-5.74,20.46-7.61,31.75-4.81A153.94,153.94,0,0,1,105.92,162a43.86,43.86,0,0,0,21.57,4.47c2.67-.14,5.34-.38,8-.33,8.32.14,16.64.23,24.94.67,7.65.41,12.61,4.65,15.19,11.8.9,2.52,1.76,5.07,2.9,7.48,2.26,4.81,5.65,5.91,10.08,2.92a34.19,34.19,0,0,0,6.36-6.14c2.73-3.13,5-6.73,7.86-9.69,7.43-7.59,16.43-10.73,26.81-7.45,6.2,1.95,12.14,4.77,18.17,7.26,2.74,1.13,5.35,2.63,8.14,3.61,8.88,3.09,17.55,2.59,25.76-2.23,3.33-2,6.43-4.33,9.87-6.08a100.81,100.81,0,0,1,13.81-6.07c11-3.62,20.46-.22,28.83,7.08a61.8,61.8,0,0,1,4.75,5.3,49.41,49.41,0,0,0,4.29,4.5,4.14,4.14,0,0,0,6.28-.75,15.32,15.32,0,0,0,2.81-5.45,52.74,52.74,0,0,0,1.12-9.72C353.64,157.82,353.51,152.47,353.51,147.11Zm-11.74,44.38c-4.85-5.22-8.53-9.06-12.08-13-6.75-7.5-14.7-9.63-24.14-6a71.85,71.85,0,0,0-9.52,4.79c-3.1,1.75-6,3.76-9.08,5.64A35.67,35.67,0,0,1,270.09,188a45.35,45.35,0,0,1-23.26-4.81c-5.6-2.74-11.19-5.58-17-7.74-8.86-3.27-15.4-1.26-21.4,6-2.45,3-4.59,6.22-7,9.25a25.26,25.26,0,0,1-9.54,7.84c-9.13,4-17.35,1.18-21.61-7.75a64.26,64.26,0,0,1-3.21-8.31c-1.37-4.26-4.17-6.25-8.61-6.23-8,0-16.07-.54-24,0-12.15.82-23.53-.86-34.52-6.48-6.83-3.48-14.27-5.87-21.57-8.34-11.17-3.76-21.67-2.08-31.26,4.88-2.16,1.57-4.29,3.19-6.45,4.77-5.85,4.29-12.22,7.28-19.57,7.89a19.44,19.44,0,0,0-3.79,1.26c.88,3.89.08,7.76,1.93,11q151.92,13,303.05,26c6.21.53,12.43.88,18.65,1.3a1.85,1.85,0,0,0,.87-.16,8.6,8.6,0,0,0,1.18-1C343.52,208.68,341.27,199.66,341.77,191.49Zm-321.17,26c-.49,11.05,3.92,18.24,13,22.27a77.35,77.35,0,0,0,15.94,5.45c9.88,2,19.88,3.49,29.89,4.67,28.64,3.38,57.49,3.42,86.24,4.87,36.47,1.85,73,3.43,109.44,5.11,10.38.48,20.76,1.16,31.15,1.3,7.7.1,15.42-.42,23.12-.87,3.3-.19,6.69-1,8.53-4.08,2.28-3.75,4.32-7.74,2.9-12.74q-157.26-13-314.25-26C24.82,217.41,23.08,217.53,20.6,217.53Zm-.71-9.43c2.81.24,5.43.5,8.05.68,11.87.83,23.73,1.57,35.59,2.46,20.16,1.53,40.3,3.15,60.45,4.73q26.69,2.09,53.35,4.17,39.1,3.13,78.22,6.34,30.21,2.45,60.44,4.86c8.29.66,16.59,1.25,24.9,1.68.68,0,1.62-1.34,2.06-2.25.14-.28-.93-1.64-1.55-1.72-4.42-.55-8.86-.92-13.29-1.31q-36-3.21-71.95-6.38c-23.39-2-46.8-4-70.19-6s-46.77-4.25-70.15-6.39q-37.3-3.42-74.59-6.86c-6.51-.6-13-1.33-19.52-1.91a8.82,8.82,0,0,0-2.66.79,20.36,20.36,0,0,0-.18,3.52A23.24,23.24,0,0,0,19.89,208.1Z"/><path d="M333,108.71c-4.85,6.56-11,10.57-18.45,11.63a162,162,0,0,1-24.83,2.13c-18.71-.21-37.43-1-56.13-1.87C219.9,120,206.26,119,192.62,118c-22.22-1.64-44.43-3.4-66.65-5.14-27.55-2.16-55.06-5-82.77-4.14-4.68.15-9.43-.82-14.08-1.66-4-.71-7-3.19-9.31-6.43-.62-.87-.69-2.12-1.24-4,2.3.24,4.14,0,5.54.66,5.56,2.69,11.43,3.15,17.41,2.88,25.3-1.18,50.48.54,75.68,2.6,29.91,2.44,59.86,4.43,89.81,6.34q35.15,2.23,70.34,3.71c9.48.4,19,0,28.52-.21,7.14-.15,14.23-.7,21.05-3.22C328.76,108.69,330.94,108.91,333,108.71Z"/><path d="M295.12,100.93c-.35-.65-1.47-1.91-1.21-2.37,2.33-4,4.84-8,7.46-11.83.77-1.13,3.07-.68,3.8.6a6.1,6.1,0,0,1,.94,2.39C306.48,94.71,301,100.59,295.12,100.93Z"/><path d="M285.36,89.91a1.65,1.65,0,0,1,0,.6,9.28,9.28,0,0,1-6.28,6.84,2.28,2.28,0,0,1-2.52-1.9c.28-3.4,1.49-6.29,4.66-8C282.66,86.67,285.24,88.06,285.36,89.91Z"/><path d="M250.83,92a7.72,7.72,0,0,1-1.14-2c-.1-.42.41-1.08.79-1.51,2-2.34,3.78-3,5.07-1.72a2.09,2.09,0,0,1,.71,1.52C255.89,90.48,253.38,92.22,250.83,92Z"/></g></g></svg>