<svg xmlns="http://www.w3.org/2000/svg" viewBox="0 0 413.8 455.78"><g id="Layer_2" data-name="Layer 2"><g id="Layer_1-2" data-name="Layer 1"><path d="M23.64,171.62c-11.78-6.74-13-5.4-18-22.09C.39,131.94-.73,113.92.4,95.7c.27-4.45.76-8.88,1-13.33A53.42,53.42,0,0,1,5,66.78c3.56-9.53,8.56-12.88,18.81-12.72a10.84,10.84,0,0,0,2.3-.62A50.17,50.17,0,0,0,27.37,47c.38-5.34.45-10.7.71-16,.35-7.15,3.11-12.8,10.38-15a146.58,146.58,0,0,1,17.21-4.38c13.22-2.33,26.65-1.57,40-2.1C112.89,8.78,130.1,8,147.31,7.3c11-.46,22-.81,32.93-1.38,18.09-1,36.17-2.22,54.27-3,13.35-.59,26.73-.55,40.09-1C287.06,1.43,299.51.48,312,.13a171.73,171.73,0,0,1,23.14.58c13,1.41,24.25,6.53,30.32,19,2.44,5,3.55,10.67,4.95,16.11,1.25,4.86,2.07,9.83,3.11,14.85,3.77,1.92,7.74,1.2,11.48,1.63,10.19,1.17,16.18,6.39,18.28,16.48a40.28,40.28,0,0,1,.91,6.17c1.31,22.86,2,45.72.48,68.61-.46,6.69-4.44,10.27-10.22,12a59.71,59.71,0,0,1-13.15,2.23c-15.11.89-30.25,1.44-45.37,2.2-3.54.17-7.06.65-10.83,1-1.6,6.21.08,12.06-.31,18.37,4.74,1.75,9.63,3.35,10.9,8.56,9.15-1.6,17.27-3.43,25.49-4.35a162.87,162.87,0,0,1,22.2-.81c7.54.19,12.53,4.49,15.7,11.3a11.62,11.62,0,0,1-8.3,16.54,40.79,40.79,0,0,1-11.52.63c-7.68-.6-15.33-1.67-23-2.61-5.89-.72-11.76-1.54-17.51-2.29-6.67,7-7,7.21-16.37,9-1.12,3.34-2.39,6.93-3.53,10.57-2.16,6.92-6.95,11-13.86,12.42a91.73,91.73,0,0,1-13.25,1.52c-4.43.25-8.89.05-13.28.05-1.32,1.68-2.38,3.1-3.51,4.45a18.09,18.09,0,0,1-3,3.28c-8.76,6.31-14.95,6.48-21.48-2-1.27-1.64-2.31-3.46-3.62-5.46-4.43-.8-9.1-1.54-13.72-2.5a55.34,55.34,0,0,1-7.7-2.17c-7.82-2.83-12-8.51-12.38-16.8-.33-7.41-.59-14.84-.46-22.25.14-8.31.77-16.61,1.14-24.91.1-2.06,0-4.13,0-6.14-6.09-1.67-33.16-1.26-42.27.6-1.49,7.72-3.11,62.38-2.1,70.93.46.32.87.82,1.38.95,7.58,2,9.57,4.09,10,11.29a89.18,89.18,0,0,1,0,9.81c-.78,15.44-1.69,30.86-2.43,46.3-.32,6.53-.28,13.08-.52,19.61-.35,9.3-1.63,10.95-10.45,14.15a13.37,13.37,0,0,0-2,1.29c-1.23,20.61-2.2,41.57-2,62.89,7.77,1.93,15.16.88,22.48.92,7.13,0,14.26-.15,21.38-.51,7.32-.37,14.63-1.08,22.64-1.69-.93-1.29-1.25-2.18-1.87-2.53-14.62-8.35-22.33-21.87-27.2-37.21a110.6,110.6,0,0,1-4.72-38.77,32.78,32.78,0,0,1,.27-4.44c1-5.71,3.52-8.21,9.4-9.09a59.21,59.21,0,0,1,8-.36c3.56-.05,7.14.18,10.69,0,11.85-.76,23.68-2,35.54-2.44q26.72-1,53.45-1c12.18,0,13.9,1.22,20.79,10.39,3.3,0,6.55-.15,9.79,0,9.68.52,15.91,6,19.68,14.45,5.22,11.69,3.18,22.67-4,32.86-7.52,10.64-18,16.17-30.91,16.93-4.12.24-8.26,0-12.59,0-2.29,3.1-4.49,6.25-6.88,9.25s-4.85,5.74-7.91,9.34c8.68.88,16.32,0,23.94.21,15.13.39,30.29.29,45.38,1.27,11,.71,21.64,3.59,31.12,9.75,7.8,5.07,12.33,11.91,11.95,21.47a88.45,88.45,0,0,1-.86,12.42c-1,5.44-3.5,7.64-9.2,7.82-9.2.3-18.41.2-27.62.12-29.12-.26-58.23-.29-87.33,1-15.13.66-30.3.52-45.44,1.15-49.89,2.07-99.81,1-149.71,1-13,0-26.07-1.55-39.09-2.56-8.87-.69-17.74-1.51-26.58-2.59-12.5-1.55-13.08-3.1-12.71-14.4.88-27.34,1.57-54.68,2.39-82q1.41-47.68,2.91-95.38,1.13-35.65,2.36-71.31C23.08,182,23.4,176.64,23.64,171.62Zm369.9-26.93a18.68,18.68,0,0,0,.81-3.07,410.58,410.58,0,0,0,.13-57c-.31-4.74-.58-9.5-1.25-14.19-.65-4.54-3.16-7.62-8.09-8.1-2.65-.25-5.3-.79-7.95-.83-11.58-.14-23.17-.18-34.75-.19-18.09,0-36.16,1.62-54.27.71-13-.65-26.11-.84-39.15-1.46-21.05-1-42.08-2.57-63.13-3.15-18.68-.52-37.4.45-56.09-.06-34.79-1-69.39,2.07-104,4.19-5,.31-8.49,2.71-10.18,7.31a70.86,70.86,0,0,0-3.35,11.92c-.73,4.08-.64,8.29-1.05,12.43A143.56,143.56,0,0,0,16,147.86c3.67,12.63,6.47,11.93,17,12.86a19.89,19.89,0,0,0,2.67-.07c5.33-.21,10.67-.41,16-.64q37.36-1.6,74.73-3.23c15.72-.71,31.42-1.78,47.14-2.26,19-.59,38-.57,57-1.11,25.21-.71,50.42-1.69,75.63-2.6,20.77-.75,41.54-1.41,62.29-2.45C376.71,148,385.09,147.89,393.54,144.69ZM161.18,166.5a10.48,10.48,0,0,0-2.59-.84c-13,.71-26.07,1.62-39.11,2.16-27.28,1.13-54.57,2-81.85,3.13A32.69,32.69,0,0,0,32,172.13c-.6,27.58-1.19,54.6-1.76,81.62-.34,15.75-.55,31.5-1,47.24-.93,33.25-2,66.51-2.91,99.76a34,34,0,0,0,.79,5.43c4.85-.33,9.3-.43,13.7-1,16.24-2,32.56-2.21,48.87-2.1,19.29.13,38.58.7,57.87,1,1.65,0,3.31-.67,5.14-1.07C155.55,324,158.36,245.41,161.18,166.5ZM24.79,439.26a31.77,31.77,0,0,0,4.12,1c6.19.74,12.38,1.55,18.6,2,16.58,1.2,33.13,3,49.81,2.9,25-.12,49.92,0,74.88-.09,18.42,0,36.85.14,55.27-.3,26.72-.63,53.42-2.12,80.15-2.51,29.69-.44,59.4-.05,89.11-.09a46.92,46.92,0,0,0,6.21-.83c.17-2.8.21-5.16.48-7.49.95-8.08-3.59-13-10-16.29a67.31,67.31,0,0,0-13.4-4.68c-9.84-2.61-20-3-30.07-3q-50.77.38-101.55,1.67c-16,.42-32,2.56-48,2.78q-44.55.6-89.13-.27c-21.39-.4-42.75-1.07-64.09.88-6.74.62-13.46,1.47-20.69,2.28C25.89,424.79,25.36,431.78,24.79,439.26ZM36.72,52.61c5.12-.4,8.94-.59,12.74-1,16.25-1.77,32.5-3.28,48.88-3.25,15.74,0,31.49,0,47.21-.59a788,788,0,0,1,81,1.67c24.62,1.63,49.23,3,73.89,3,18.11,0,36.23-.64,54.34-1,2.29,0,4.59-.28,7.37-.46-1-9.12-2.37-17.5-5.48-25.58A20,20,0,0,0,348,15.47a30.34,30.34,0,0,0-13.39-4.54A229.54,229.54,0,0,0,300,10.6c-13,.88-26.1,1.5-39.16,2.05-16.92.7-33.84.58-50.77,1.74-26.37,1.81-52.8,2.69-79.22,3.75-21.37.85-42.75,1.36-64.13,2.07a81.68,81.68,0,0,0-23.57,4.27c-2.36.8-4.42,2.14-4.65,4.86C37.82,36.68,37.35,44,36.72,52.61ZM322.1,317a44,44,0,0,0-5.59-.81c-9.19-.15-18.39-.29-27.57-.23-20.8.14-41.57.81-62.29,2.61a51.41,51.41,0,0,0-5.09.92c-1.19,7,.24,13.44.69,19.9.55,7.84,2.41,15.23,6.94,21.8,1.35,2,2.54,4,3.87,6,3.14,4.69,6.4,9.3,9.46,14,1.23,1.92,2.76,4,.78,6.4-3.51.89-5.78-1.17-7.79-3.32a133.28,133.28,0,0,1-8.68-10.16c-7.31-9.54-13.43-19.67-14.41-32.07-.43-5.33-.63-10.67-1-16a28.55,28.55,0,0,0-1-5.17c-.1-.37-1-.72-1.5-.73a2.33,2.33,0,0,0-1.56.65,2.64,2.64,0,0,0-.71,1.59c-1,19.06,1.53,37.34,11.82,53.94,6.16,9.92,14.87,16,26.36,18a147,147,0,0,0,33.7,2.23c4.68-.29,9.57-.85,13.5-3.93,4.45-3.49,8.66-7.25,11.69-12.13A143.67,143.67,0,0,0,323.12,330C323.87,325.9,324.15,321.8,322.1,317Zm-98.35-153a16.1,16.1,0,0,0-.91,3.14c-.23,7.12-.54,14.25-.53,21.38,0,9.51.12,19,.56,28.52.29,6.23,2.26,8.42,8.3,9.9a91.13,91.13,0,0,0,13.11,2.23c17.19,1.55,34.4.77,51.59.13,10.74-.4,12.6-2.32,15.11-12.66.21-.87.29-1.76.51-2.63,2.44-9.89,2-20.06,2.75-30.11a101.53,101.53,0,0,0-.8-22.08,13.93,13.93,0,0,0-2.89-.59c-3.24.09-6.48.29-9.88.46-1.29,4.39.06,8.52-.08,12.62s-.23,8.33-.77,12.44-1.57,8.16-2.48,12.21c-1.77,8-1.79,7.94-5.18,11.38-2-8.37.08-16.27-.31-24.07s1-15.95-.55-24.3ZM321.93,369.5c14.33,2,23.8-2.83,31-14.72,3.69-6.09,4.05-12.2,1.72-18.69-1.33-3.7-3.1-7.15-7.08-8.62-4.5-1.65-9.07-3-13.43.45-1.64,7-3,14-5,20.75C327.12,355.68,324.4,362.49,321.93,369.5Zm67.89-170c.38-3.31-1.44-5.19-4-6.26a18.16,18.16,0,0,0-6-1.42c-12.8-.58-25.33,1.35-37.77,4.25,12.86,2.09,25.7,3.83,38.56,5.38C383.82,201.87,387.07,201.54,389.82,199.53ZM169.76,244.41c-.7,2.58-1.35,3.93-1.4,5.3q-1.34,38.68-2.49,77.38c0,.32.62.66.93,1,2.43-.61,2.18-2.59,2.24-4.28.24-6.53.28-13.06.62-19.58.76-14.82,1.68-29.63,2.46-44.45a95.16,95.16,0,0,0,.07-10.68C172.12,247.83,171,246.67,169.76,244.41ZM325,204.24c.85-.83,2.08-1.47,2.22-2.28.84-4.92.23-6.71-3.31-10,0,3.75,0,7,0,10.2C324,202.7,324.48,203.21,325,204.24Zm-60.5,36.36a22,22,0,0,0-3.25-.43c-1.15.06-2.46.36-1.79,1.93a2.32,2.32,0,0,0,2.14.75C262.54,242.53,263.25,241.64,264.53,240.6Z"/><path d="M337.06,137.13c2.4-3.55,4.48-6.71,6.66-9.8.89-1.26,2.36-2.26,3.69-1.17a4.66,4.66,0,0,1,1.5,3.66c-.5,3.15-3.49,4.5-5.61,6.44C341.77,137.66,340,138.8,337.06,137.13Z"/><path d="M362.1,130.41c-1.62-4-.72-7.76.22-11.38a3.36,3.36,0,0,1,2.48-1.92,3.54,3.54,0,0,1,2.53,1.74c1.5,2.6-.21,5.08-.82,7.52C366.05,128.18,365.6,130.48,362.1,130.41Z"/><path d="M311.73,131.88a34,34,0,0,1,3.84-3.77c.36-.26,1.8.29,2.13.84a2.65,2.65,0,0,1-.45,2.25C316,132.89,314.28,132.67,311.73,131.88Z"/><path d="M72.28,251.13c.19-15.59,14.32-26.73,28.09-26.44,6.73.15,11.92,4,14.74,10,5.55,11.83,4.92,22.83-3.87,33.21-6.46,7.62-18.53,9.87-26.73,4.64C77.07,267.83,72.6,261.65,72.28,251.13Zm35.86-1c.46-4.74-1.26-8.51-3.34-12.1A6,6,0,0,0,98,235.14a33.53,33.53,0,0,0-7.52,2.49c-8.71,4.21-10.82,17.25-4,24.08a11.47,11.47,0,0,0,15.29,1A15.74,15.74,0,0,0,108.14,250.12Z"/><path d="M105.62,311.55c-.27,7.5-8.37,13.89-16.82,13.6a13.53,13.53,0,0,1-12.6-14.24c.49-7.59,7-14.15,14.34-14C100,297.05,105.93,302.83,105.62,311.55Zm-10.22-.38c0-2.59-2.6-5.24-5-5.06s-4.28,2.75-4.24,5.77a3.18,3.18,0,0,0,3.36,3.22C93,315.08,95.39,313.49,95.4,311.17Z"/><path d="M134,381.56c-2.09-3.81-1.39-7.66.47-11.38a6.27,6.27,0,0,1,2.59-2.14,2.66,2.66,0,0,1,3.53,1.53,11.7,11.7,0,0,1-4.65,12.08C135.57,381.9,134.85,381.62,134,381.56Z"/><path d="M126.64,376.84c-1,1.45-1.52,2.89-2.57,3.71a3.47,3.47,0,0,1-3.17.36c-.7-.41-1.08-2-1-3a5,5,0,0,1,1.51-3.09,3.69,3.69,0,0,1,3.08-.7C125.36,374.45,125.85,375.77,126.64,376.84Z"/></g></g></svg>