<svg xmlns="http://www.w3.org/2000/svg" viewBox="0 0 338.15 373.26"><g id="Layer_2" data-name="Layer 2"><g id="Layer_1-2" data-name="Layer 1"><path d="M56,56.7c1.07-3.4,1.88-6.25,2.85-9,2.89-8.42,8.57-14.26,17-17.07,6.46-2.17,13-3.93,20.07-3.14a44.42,44.42,0,0,0,9.78,0,68.91,68.91,0,0,1,16.86-.1c4.33.58,8.83-.18,13.75-.37.9-4,1.56-7.74,2.59-11.37C141.55,6,148.77.35,158.25,0c7.67-.26,13.37,3.09,15.93,10.36,1.55,4.39,2,9.19,3,14.25,1.5,1.84,4.05,1.14,6.32,1.18,17.94.35,35.43,3.72,52.84,7.63,16.53,3.72,28.4,13,34.68,29a31.55,31.55,0,0,0,1.89,3.36c7.09-.93,14.18-1.44,21.2.2,4.62,1.08,9.25,2.15,13.79,3.49,7.8,2.31,13.48,7.37,17.55,14.29a68.75,68.75,0,0,1,9.48,26.72c1.07,8.85,1.83,17.75,2.25,26.65,1.18,25,1.65,50-.66,74.91-1.18,12.74-2.36,25.47-3.76,38.18-1.54,13.89-3.28,27.76-5.05,41.62a71.23,71.23,0,0,1-4.86,18.95c-5.87,13.85-16.1,21.72-31.19,23.08-4.7.43-9.4,1-14.39,1.47-1,3.45-1.86,6.54-2.69,9.64-3.31,12.34-11.31,20-23.53,23.15a131.92,131.92,0,0,1-16.64,3,293.33,293.33,0,0,1-49,1.74c-24.35-1.08-48.71-1.9-73.06-3-7.71-.34-15.4-1.1-23.1-1.69a30,30,0,0,1-3.53-.52C70.38,364.61,59.15,356.9,54.32,341A170.81,170.81,0,0,1,48,311.41c-1.19-10-1.81-20.15-2-30.25a663.25,663.25,0,0,1,2.83-75.76c2.26-24.28,4.21-48.61,4-73.05-.12-11.5,1.23-8.24-6.88-17.18-12.2-13.43-24.45-26.81-36.6-40.28a74.75,74.75,0,0,1-7.25-9c-3.94-6-2-9.62,5-10,2.37-.11,4.75,0,7.13,0,11,.26,22,.57,33,.82C50,56.8,53,56.72,56,56.7Zm211,67.5a5.36,5.36,0,0,0-1.71-.65q-96.73-.09-193.48-.11c-2.07,0-4.15.1-6.23.18a1.79,1.79,0,0,0-.78.34,12.65,12.65,0,0,0-1.1.83c-.16,1.69-.54,3.71-.54,5.74,0,31.87-3,63.56-5.67,95.27-.42,5-.63,10.09-.81,15.14-.05,1.35-.5,3,1.68,4.17,1.55-.7,3.35-1.63,5.23-2.36a86.32,86.32,0,0,1,10-3.61,76,76,0,0,1,46.4,3c7.21,2.76,14.17,6.14,21.31,9.08,9.34,3.84,18.56,8,28.13,11.17,22.8,7.48,42.45.33,60.6-13.8,0-3.31,0-6.26,0-9.22-.16-14.57-.36-29.15-.47-43.72a62.66,62.66,0,0,1,.48-8c.09-.7,1.16-1.9,1.57-1.81,1,.2,2.45.85,2.66,1.61a57.46,57.46,0,0,1,2.49,11.26c.9,12.16,1.39,24.34,2.12,36.51.11,1.93-.76,4.21,1.9,6,4.22-2.06,8.58-4.52,13.19-6.35s9.54-3.1,14.9-4.79c0-3,0-6,0-8.92.06-16.07.18-32.13.15-48.19,0-13.09-.21-26.17-.44-39.26C268.53,130.44,268.94,127.07,267,124.2Zm-37.43,138-6.44,3.62c-18.61,10.38-38.1,13.1-58.41,6-9.79-3.44-19.31-7.66-28.93-11.6-6.87-2.82-13.6-6-20.54-8.63a65.7,65.7,0,0,0-36-3.05,45.05,45.05,0,0,0-23,11.78c-.18,19.22-.34,38.51,3.07,57.67,1.52,8.52,3.34,16.9,6.82,24.88a21.4,21.4,0,0,0,11.71,11.59,56.13,56.13,0,0,0,19,4.4q13.8.76,27.62,1.25c15.74.57,31.51.76,47.23,1.64,14.86.84,29.71,1.72,44.55.66,10.07-.71,20.12-2,30.08-3.61s16.51-7.82,18.67-17.94a108.21,108.21,0,0,0,2.15-14.09c2.22-27.62,1.19-55.31,1.36-83a8.19,8.19,0,0,0-.74-2.31c-8.72.65-20.12,6.61-28.32,14.56-1.56,10.93-2.92,21.55-4.64,32.1-.91,5.56-2.41,11-3.78,16.51-.32,1.3-.84,2.89-3.13,2.37C226.64,292.46,231.1,278.08,229.56,262.16ZM58.48,113.79c13.64,0,26.11,0,38.58,0q76.62-.23,153.24-.49c3.86,0,7.73.08,11.58-.11a31.27,31.27,0,0,0,5.33-1.24c-1.53-14.79-.8-29.4-5.48-43.81-2.49,0-4.54,0-6.59,0-14.85,0-29.7.07-44.55-.15Q119.29,66.58,28,65c-3.27,0-6.53-.18-9.8-.1-.93,0-1.85.65-3.46,1.27ZM279.72,307c12,.38,19-4.35,21.71-15.25a178.08,178.08,0,0,0,3.18-18.42c2.07-15.05,2.05-30.22,2.15-45.37.16-23.77.45-47.55.39-71.32,0-11.58-.59-23.16-1.19-34.73-.37-7.17-1.8-14.2-5.54-20.46a22.74,22.74,0,0,0-5.16-6c-3.37-2.68-7.73-2.87-11.81-3.56-2.19-.37-4.65-1.4-6.69.78,0,2.37-.15,4.72,0,7,1.54,20.15,2.88,40.31,2.77,60.53-.08,15.16,0,30.31-.14,45.47-.21,30.9-.49,61.8-.68,92.71C278.72,301.25,278,304.29,279.72,307ZM258.57,60.81a64.2,64.2,0,0,0-3.79-5.71,35.68,35.68,0,0,0-19.69-11.42c-18.55-4.1-37.13-8.13-56.29-7.74-14.53.3-29.06.77-43.59,1.16-5,.13-10.09.19-15.13.41-11.83.52-23.67.93-35.48,1.81a21.44,21.44,0,0,0-9.1,3.12c-5.13,3.08-7.67,7.87-7.46,14.44Zm17.37,21c5.7.76,11,1.28,16.24,2.21,6.81,1.2,12,5,15.6,10.89a48.19,48.19,0,0,1,7.33,20.86c.82,8.58,1.74,17.2,1.77,25.8.13,34.8.14,69.6-.26,104.39A232.73,232.73,0,0,1,311.85,292c-3,14-11.29,22.54-25.3,25.49-2,.43-4.11.63-6.11,1.18-2.34.63-2.53,2.18-.68,5.8,4.27-.42,8.7-.77,13.11-1.28,8.64-1,15-5.53,18.84-13.23a43.86,43.86,0,0,0,3.76-10,178.19,178.19,0,0,0,3.35-19.3c2.68-24.83,5.39-49.66,7.57-74.53,2.57-29.4,1.69-58.84-.66-88.22a66.28,66.28,0,0,0-8.84-28.74,22.91,22.91,0,0,0-12.76-10.54,76.18,76.18,0,0,0-24.46-4.27c-1.63,0-3.26.74-5.22,1.22C275,78,275.51,80,275.94,81.76ZM146.32,25.5a56.81,56.81,0,0,0,19.59-.66,72.61,72.61,0,0,0-.41-8.27c-1-6.09-5.28-8.33-11-6.12a10.18,10.18,0,0,0-5.63,5.34A28.14,28.14,0,0,0,146.32,25.5Z"/><path d="M81.89,202.17c-1-4.1.57-7.42,3-10.44a2.69,2.69,0,0,1,2.35-.54c.67.19,1.67,1.16,1.61,1.67a20.73,20.73,0,0,1-1.36,5.74C86.49,200.81,86.15,200.82,81.89,202.17Z"/><path d="M81.81,182c-.44-.65-1.48-1.48-1.54-2.39a5.74,5.74,0,0,1,2.6-5.19,2.59,2.59,0,0,1,3.62,1.08C87.42,178.22,85.23,181.66,81.81,182Z"/><path d="M221,329.75a48.86,48.86,0,0,1,2-6.67c.3-.69,1.87-1.12,2.86-1.11.56,0,1.46,1,1.61,1.74.84,3.7-.48,6.87-2.9,9.58a2.28,2.28,0,0,1-2.2-.24A13.05,13.05,0,0,1,221,329.75Z"/><path d="M206.71,98.58c1.83-4,4.15-5.85,6.83-7a4.62,4.62,0,0,1,3.85.75c1.4,1.07.74,2.72-.36,3.8C214.36,98.79,211.22,99.61,206.71,98.58Z"/><path d="M229.24,99.56c-.26-.53-1-1.28-.88-1.91.44-2.93,1.51-5.68,3.91-7.53a3.41,3.41,0,0,1,3.14-.26,3.35,3.35,0,0,1,1.11,3,10,10,0,0,1-6.09,6.92C230.21,99.83,229.87,99.66,229.24,99.56Z"/></g></g></svg>