<svg xmlns="http://www.w3.org/2000/svg" viewBox="0 0 396.35 268.65"><g id="Layer_2" data-name="Layer 2"><g id="Layer_1-2" data-name="Layer 1"><path d="M347,55.64c3-.25,5.3-.37,7.6-.64,16.82-2,30.53,5.76,37.24,21.37,5.25,12.18,5.53,24.82,2.85,37.6-3.86,18.4-14.19,32.47-29.5,43-6.76,4.66-14.67,6.3-22.63,7.63-3.52.59-7.07,1-10.56,1.72a19.4,19.4,0,0,0-5,1.82,4.67,4.67,0,0,0-2.54,6c.59,2,1.5,3.88,2.23,5.82a56.94,56.94,0,0,1,2.37,6.71c2.1,9.21-2.55,15.86-12,17.09a24.78,24.78,0,0,1-11.44-1,32.72,32.72,0,0,1-17.94-13.91l-3.39-5.45c-4.3,4.4-8,8.68-12.16,12.32a137.5,137.5,0,0,1-14.3,10.62c-4.68,3.08-9.69,5.66-14.73,8.56v15.56c2.14.15,4.16.44,6.17.41q46.86-.65,93.71-1.36c2.68,0,5.37-.25,8,0,5.66.47,8.94,5.72,6.7,10.91a30.52,30.52,0,0,1-13.28,15.13c-5.27,2.94-11,4.36-16.86,5.51-18.49,3.63-37.21,4.15-55.95,4.55h-.9c-40.46.26-80.92.34-121.38.84-19.62.24-39.24,1.28-58.86,2-17.57.62-35.1.33-52.55-2.05-2.06-.28-4.11-.68-6.17-.93-13.52-1.62-22.56-9.87-30.08-20.33-3.62-5.05-1-8.62,3.93-10.16,2.46-.78,5.3-.51,8-.54,24.7-.33,49.39-.6,74.09-1,5.32-.07,10.63-.39,16.41-.61.87-5.63-.39-10.82-.19-16.44-3.54-1.79-6.93-3.58-10.38-5.24a116.43,116.43,0,0,1-25.28-16.57,59.72,59.72,0,0,1-16.84-22.72A188.89,188.89,0,0,1,38.11,123c-.59-4.72-1.14-9.45-2-14.13C34,96.7,28.74,86.32,18.39,79,11.11,73.85,5.9,67.11,3.47,58.49a61.07,61.07,0,0,1-2.4-12.21C-.36,25,13.13,11.33,30.48,7.43,36.93,6,43.45,6,50,6c22.9-.08,45.81-.13,68.71-.49,7.42-.11,14.84-1,22.24-1.78a245.35,245.35,0,0,1,44.53-1.08c5.91.46,11.9.09,17.85,0,9.52-.18,19-.45,28.55-.71,22.6-.63,45.2-1.38,67.8-1.85,8.32-.18,16.66.06,25,.51A27.07,27.07,0,0,1,343,8.73a28.35,28.35,0,0,1,5.69,7.85c5,11.05,5.91,22.31.57,33.61C348.51,51.74,347.93,53.36,347,55.64ZM74.22,90.86c3.19-.59,5.55-.9,7.85-1.47,31.39-7.84,63-7.91,94.64-2.14,14.31,2.61,28.49,6,42.79,8.65,20.21,3.77,40.61,5.84,61.2,4.74a126.73,126.73,0,0,0,17.61-2.49c4.54-.88,8-3.22,9.8-8,3.61-9.6,9.78-17.53,17-24.82a126.92,126.92,0,0,0,12.61-15c5.78-8,6.52-16.94,3.37-26.29-2.39-7.11-7-11.74-14.44-12.94a96.17,96.17,0,0,0-16.83-1.42c-15.16.28-30.3,1.23-45.46,1.53-34.17.67-68.36,1.07-102.54,1.64-6.53.11-13.07.35-19.6.76-9.48.6-18.94,1.85-28.43,2-22,.44-44,.38-66,.58-4.46,0-8.94.1-13.36.56-9,.95-20.93,8.31-22.69,19.8C9.68,50,12.31,62,23.94,70.72c.95.72,1.85,1.5,2.78,2.24a48.54,48.54,0,0,1,15.6,21.3c.82,2.15,1.83,4.23,2.94,6.8a108.48,108.48,0,0,0,19.1-7.42c0-3.4,0-6.34,0-9.28,0-1.77-.09-3.67.53-5.26A5.29,5.29,0,0,1,68,76.35c1.88-.57,3.49.6,4.26,2.36A17.28,17.28,0,0,1,73.29,83C73.64,85.32,73.85,87.65,74.22,90.86Zm0,11a201.49,201.49,0,0,0,3,24.33,76.31,76.31,0,0,0,12.47,30.22c2.53,3.66,5.24,7.2,7.87,10.8a27.86,27.86,0,0,1,2.6,3.58,4.16,4.16,0,0,1-.53,5A4.1,4.1,0,0,1,94.8,177a14.2,14.2,0,0,1-4.9-3.62c-11.8-14.16-20.44-29.87-23-48.42-.9-6.44-1.74-12.88-2.65-19.63-6.21.29-11.26,3.45-16.82,5.38a25.4,25.4,0,0,0-.26,3.83,180.85,180.85,0,0,0,13.78,54.15,48.89,48.89,0,0,0,13.14,17.74c14.63,12.73,31.69,20.8,50,26.45a72.11,72.11,0,0,0,10.48,2c13,2,26.1,1.55,39.17,1.22a241.16,241.16,0,0,0,55.5-7.83c24.45-6.45,42.6-21.7,54.87-43.79a115.85,115.85,0,0,0,11.22-29q2.64-10.8,5-21.68a36.53,36.53,0,0,0,.33-5.43c-3,.4-5.33.59-7.61,1-11.79,2.21-23.67,2-35.55,1.2a361.12,361.12,0,0,1-61.6-9.4,310.44,310.44,0,0,0-47.49-7.52,185.1,185.1,0,0,0-48,2.2C92,97.34,83.5,98.74,74.26,101.88ZM346.7,239.73c-9,0-16.1-.09-23.21,0q-120.44,1.74-240.86,3.53-30.31.47-60.65,1.15c-2.17.05-4.67-.59-6.57,1.35,5.36,6.38,8.69,8.36,16.51,9.63a257.72,257.72,0,0,0,40.83,3.44c12.77,0,25.54-1.07,38.32-1.35,31.5-.7,63-1.38,94.52-1.77,26.17-.32,52.34-.21,78.51-.32,15.22-.07,30.22-2.07,45.15-4.91a29.2,29.2,0,0,0,13.67-6.08C344,243.53,344.68,242.26,346.7,239.73ZM319,93.18c3.22-1.62,6-3.09,8.86-4.45,8.33-4,16.93-5.16,26-2.67,15.21,4.19,21.41,18.29,13.92,32a41.16,41.16,0,0,1-2.41,3.75,46.57,46.57,0,0,1-27.87,19.4c-6.33,1.58-12.63,3.32-18.85,5.3-7.52,2.4-13.74,7-19.17,12.59-4.89,5.07-6.43,11.35-5.57,18.11,1.25,9.93,12.54,18.21,22,16.46,2.93-.55,4.19-2.28,3.27-5.06-1.21-3.66-2.9-7.16-4-10.83-2.76-8.87.5-16,9.13-19.48a56.11,56.11,0,0,1,10.32-2.6c3.78-.76,7.63-1.18,11.43-1.88a40,40,0,0,0,19.71-9.72c12.38-11,19.26-24.64,20.5-41.14a47,47,0,0,0-3.89-23.48c-4.54-9.82-12.24-15-23.28-14.82-8.24.13-15.7,2.82-22.81,6.77-7.78,4.33-13.72,10.35-17.19,18.62C318.79,90.78,319,91.69,319,93.18Zm-13.9,47.52a5.26,5.26,0,0,0,1.84,0c8-4,16.54-6.38,25.21-8.4A61.85,61.85,0,0,0,342.3,129c8.28-3.55,14-9.87,17.68-17.9,2.57-5.57.79-10.58-4.5-13.63a17.51,17.51,0,0,0-5.79-2.13c-5.33-.9-10.69-.87-15.66,1.6a101.11,101.11,0,0,0-11.58,6.52c-11.56,7.8-11.5,7.88-14.56,21.73-1,4.34-2,8.65-2.91,13A9.55,9.55,0,0,0,305.14,140.7ZM116,232.25c2,.17,4.07.52,6.1.49q52.22-.75,104.42-1.62a47.42,47.42,0,0,0,6-.83c.63-4.12,2.49-7.74.69-11.45a4.6,4.6,0,0,0-1.13-.35,42.32,42.32,0,0,0-4.37.49c-18.11,3.56-36.25,6.56-54.79,7-19.38.48-38.67.65-57.48-5.05-.47-.15-1.06.13-2,.26C112.75,225.11,113.67,228.65,116,232.25Z"/><path d="M128.91,197.25a28.79,28.79,0,0,1-14.11-7.05,4.32,4.32,0,0,1-.79-3.92c.42-1.12,1.95-2.09,3.21-2.55a5.27,5.27,0,0,1,3.37.39c3.81,1.52,7.58,3.15,11.31,4.85,2.56,1.17,3.58,3.43,2.77,5.67C134,196.47,132.08,197.49,128.91,197.25Z"/></g></g></svg>