<svg xmlns="http://www.w3.org/2000/svg" viewBox="0 0 416.06 288.85"><g id="Layer_2" data-name="Layer 2"><g id="Layer_1-2" data-name="Layer 1"><path d="M134,249.86c-1.48-.88-2.94-1.81-4.45-2.63-23.65-12.86-41.64-31.4-54.83-54.7-16.42-29-23-60.32-21.37-93.43A170.56,170.56,0,0,1,82.6,10.52c1.48-2.2,2.76-4.56,4.05-6.88A6.29,6.29,0,0,1,92.41.12c1.79,0,3.57,0,5.36,0Q186.57,0,275.38,0c2.67,0,5.33.3,8,.37,3.9.09,6.61,2,8.83,5.13a166.09,166.09,0,0,1,16.2,28.66c1.28,2.93,2.6,5.84,4.08,9.15,3.3-1.07,6.08-1.94,8.83-2.88,16-5.44,32-5.68,48.3-1.35,19.86,5.29,33.44,17.7,40.79,36.65,7.75,20,7.83,40.18-1.73,59.7a126.79,126.79,0,0,1-44.89,50.89c-14.68,9.68-31.1,13-48.44,12.4-6.23-.23-12.44-.9-19.23-1.42A45.91,45.91,0,0,0,293,201c-13,18.93-29.3,34.29-49.49,45.4a16,16,0,0,0-2.07,1.62c.49,2.24,2.25,1.57,3.52,1.55,13.68-.17,27.36-.41,41-.65q48.18-.82,96.37-1.65a47.93,47.93,0,0,1,6.23.18c3.81.44,5.68,2.87,5.2,6.8a19.19,19.19,0,0,1-1.43,6.05c-5.44,11.2-14.17,18.14-26.77,19.51-3.82.41-7.73.07-11.59.18q-63.79,1.75-127.57,3.53-78.06,2.1-156.12,4.14c-11.9.32-23.78.86-35.68,1.18-14.18.37-24.38-6.25-31.41-18.23A21.51,21.51,0,0,1,0,260.53c-.17-4.24,1.24-6.24,5.26-6.78a51.93,51.93,0,0,1,6.24-.27q58.44-1,116.89-1.92c1.75,0,3.5-.16,5.25-.24ZM95.45,10.24c-1.37,1.68-2.4,2.75-3.22,4-2.17,3.19-4.41,6.35-6.33,9.69Q50.62,85.31,69.3,153.64c6.85,25.16,19.41,47.14,38.26,65.32,27.64,26.65,60.71,36,98.35,30.58.88-.13,1.74-.36,2.61-.55a115.22,115.22,0,0,0,36.11-14.76c24.47-15.31,41.89-36.7,53.52-62.82a164.54,164.54,0,0,0,13.2-87.86C308.42,59,300.57,36.18,287,15.45c-1.28-1.94-2.86-3.67-4.08-5.21ZM382.68,257.18c-4.55,0-7.51,0-10.46,0-34.8.59-69.59,1.34-104.38,1.75s-69.51,2.33-104.3,1.95c-20.51-.22-41,.75-61.55,1.13-26.76.49-53.53.9-80.29,1.44-3.1.06-6.39-.47-10.28,1.37,5,7.68,9.73,14.15,19.57,13.8,2.67-.09,5.35.06,8,0,34.48-.87,69-1.69,103.46-2.66q76.25-2.13,152.5-4.43c23.48-.68,47-1.41,70.45-1.9C373.58,269.47,378.25,265,382.68,257.18Zm-80.6-70.63a21.55,21.55,0,0,0,3.6,1.49c17.54,2.36,34.59.81,50-8.45a111.84,111.84,0,0,0,44.89-50.5c7.81-17.19,6.88-34.68-.32-51.87C394,62.28,382.71,52.78,367.08,48.64a77.52,77.52,0,0,0-35.33-1.06c-5.47,1.1-11,2-16.15,5.74,1.54,5.39,1.85,11,4.61,16.23,2.65-.9,4.87-1.61,7.06-2.4a54.57,54.57,0,0,1,22.8-3,37.91,37.91,0,0,1,34.08,27.07,49,49,0,0,1,.65,26.4c-5.65,23.27-19.54,40.29-40.45,51.65a57.68,57.68,0,0,1-31.71,7.27c-1.74-.11-3.49,0-5.7,0C305.37,179.8,303.84,182.94,302.08,186.55Zm9.45-21.2c8.27,1.65,13.83,1.31,21.83-2,20.75-8.57,34.55-23.65,41.06-45.14a40.65,40.65,0,0,0,.78-22,28.7,28.7,0,0,0-14.76-19.1c-9.35-5.05-29.46-4.05-39.1,4.78A184.18,184.18,0,0,1,311.53,165.35Z"/><path d="M98.85,41.23c2.73-.15,5,1.92,4.76,3.88a19,19,0,0,1-1.48,5,98.56,98.56,0,0,0-7.34,31c-.45,5.32-1.15,10.63-1.28,16-.11,4.71.41,9.44.67,14.16.06,1.18.33,2.36.29,3.52a4.33,4.33,0,0,1-3.07,4c-2,.75-3.62-.25-4.72-1.62a14.87,14.87,0,0,1-2.33-4.72,15.78,15.78,0,0,1-.59-4.4c-.43-17.28.55-34.42,6-51a90.32,90.32,0,0,1,5.69-13C96.15,42.66,98,41.88,98.85,41.23Z"/><path d="M244.29,214.17c-1.37-.24-2.44-.13-3-.61-1.09-.86-2.44-2-2.67-3.17s.58-2.78,1.4-3.84a6.25,6.25,0,0,1,3-1.64C248.89,203,253,199,256.43,194c2.32-3.42,5.12-4.32,7.19-2.73,1.78,1.37,2.12,4.36.45,7.28a32.54,32.54,0,0,1-14.38,13.86A38.85,38.85,0,0,1,244.29,214.17Z"/><path d="M265.76,158.9a13.13,13.13,0,0,1-.69,3.12c-2,3.61-4,7.27-6.31,10.67a6.65,6.65,0,0,1-7.1,2.62c-2.82-.51-4.66-4.28-2.63-6.1a41.53,41.53,0,0,0,8.89-12.1,3.37,3.37,0,0,1,4.59-1.6C263.9,156.24,264.81,157.87,265.76,158.9Z"/><path d="M94,141.29c.72-1,1.45-2.67,2.73-3.58,1.64-1.16,4.21-.17,5.17,1.87,1.5,3.17,2.84,6.42,4.05,9.71a4.18,4.18,0,0,1-1.86,5.27,4.6,4.6,0,0,1-5.52-1.39C95.7,150,94.73,146,94,141.29Z"/><path d="M267.32,127.78c0,3.25-2.58,6.05-5.3,5.83a4.35,4.35,0,0,1-3.62-4.31c-.06-3.71,1.88-6.27,4.7-6.23A4.61,4.61,0,0,1,267.32,127.78Z"/></g></g></svg>