<svg xmlns="http://www.w3.org/2000/svg" viewBox="0 0 349.58 282.54"><g id="Layer_2" data-name="Layer 2"><g id="Layer_1-2" data-name="Layer 1"><path d="M252.88,204.42c-1.44,7.58-2.1,32.32-1.22,43.06,2.14,2.29,5,1.45,7.52,1.4,23.2-.44,46.41-1,69.61-1.5,3-.07,5.95-.34,8.92-.27,4.22.1,6.32,3.51,4.65,7.41a25.6,25.6,0,0,1-1.34,2.31c-2.44,4.42-5.07,8.75-7.26,13.29s-5.59,6.65-10.63,6.53c-4.16-.11-8.33.11-12.49.19q-72.75,1.25-145.48,2.51-70.95,1.33-141.9,2.92a30.29,30.29,0,0,0-3.57.09c-5.76.83-9.53-1.09-11.76-6.85-1.69-4.39-4.7-8.25-6.9-12.46-2.31-4.41-.68-7.55,4.37-8.19A111.67,111.67,0,0,1,17,254.31q36.58-.84,73.18-1.66c2.3-.05,4.6-.44,7.35-.72a38.6,38.6,0,0,0,.29-4.63c-2.1-31.73-4-63.5-10.37-94.75-3.25-16-7.31-31.84-11.31-47.67A84.06,84.06,0,0,0,56.91,69.07c-9.34-10.42-18.86-20.63-31-27.92-2.77-1.66-5.45-3.46-6.52-7-.89-3-1.54-5.67-.11-8.6,1.17-2.39,2-4.95,3.25-7.32,1.78-3.39,3.77-6.68,5.73-10.11,2.72-.26,5-.63,7.36-.7q39.27-1.12,78.52-2.17,67.82-1.81,135.63-3.58C269.65,1.17,289.59.92,309.5,0c6.64-.3,10.77,1.87,13.24,7.83,1.14,2.75,2.6,5.36,3.71,8.11,1.89,4.65,1.43,6.22-2.39,9.17-.7.54-1.45,1-2.19,1.53-14.53,9.62-24.49,23.23-33.14,38a17.42,17.42,0,0,0-1.13,3.29c3.31,1.33,6.15.08,9-.37,8.59-1.36,17.12-1.72,25.67.45a30.83,30.83,0,0,1,20,15.24c5.94,10.41,8,21.72,7.17,33.51a77.62,77.62,0,0,1-10.13,33.86c-12.46,21.75-29.93,37.47-53.93,45.5-8.18,2.74-16.32,5.54-25,6.63A75.37,75.37,0,0,0,252.88,204.42Zm61-193.79a9.71,9.71,0,0,0-2.33-.7Q180.88,13.29,50.24,16.71c-5.06.13-10.1.33-15.15.52a2.19,2.19,0,0,0-.82.32c-.27.12-.52.28-1.17.63-2.48,3.89-5.21,8.05-5.05,13.38,1.23.88,2.13,1.65,3.14,2.22C45.37,41.87,56.63,53.2,66.94,65.62A90,90,0,0,1,84.5,98.38,548.12,548.12,0,0,1,100,166.05c3.87,24.68,5.81,49.55,7.31,74.46.18,3,.27,5.93,2.71,8.45,6.06,0,12.26.09,18.46,0q52.63-.88,105.26-1.86c2.26,0,4.52-.51,7.15-.83.11-4.06.32-7.58.3-11.1a317.21,317.21,0,0,1,3.47-49.73c3.44-22.61,7.19-45.14,12.59-67.39,6.22-25.65,15.92-49.71,31.19-71.41A98.3,98.3,0,0,1,312,22.52c1.65-1.18,3.19-2.53,5.18-4.12C315.92,15.54,314.81,12.88,313.86,10.63ZM256.69,173.85c16.93-3.14,31-8.69,41.8-20.77,3.54-4,6.8-8.22,10.06-12.44,5.86-7.59,8.16-16.32,7.94-25.81-.28-12.06-2.51-17.2-18.84-17.36a6.69,6.69,0,0,0-.89.08,58.08,58.08,0,0,0-21.18,6.28c-3.34,1.75-5.56,3.89-6.38,7.84-3.31,16-7,31.81-10.36,47.74C257.93,163.69,257.53,168.08,256.69,173.85Zm71.5,83.94c-3.09-.09-6-.3-8.84-.23-12.49.28-25,.69-37.47,1q-80.28,1.82-160.57,3.58-50.4,1.11-100.8,2.29c-2.2.05-4.62-.52-6.66,1.13.9,4.77,3.43,6.78,8.07,6.67,11.9-.29,23.8-.3,35.69-.54q73.15-1.44,146.31-3,55.76-1.11,111.51-2.1c3-.05,5.91,0,8.8,0,1.4-2.21,2.58-3.9,3.55-5.71C328.15,260.17,328,259.21,328.19,257.79Zm-74.38-64.7c3.05-.2,5.44,0,7.62-.56,6.89-1.8,13.76-3.73,20.55-5.89,21.48-6.85,36.94-20.9,48.18-40.13a67.41,67.41,0,0,0,9.06-40.21,43.58,43.58,0,0,0-5.86-18.54,20.66,20.66,0,0,0-14.83-10.43c-13.21-2.37-26-.61-38.89,4.24-.83,3.61-3.56,6.57-3.36,11.28l7.23-2.43a50,50,0,0,1,22-2.38c11.45,1.34,17.79,7,20.13,18.22,2.45,11.78,1,23.28-5,33.69-12.47,21.92-30.35,37.12-55.63,42.49-3.18.68-6.32,1.55-10,2.44C254.69,187.41,254.31,189.89,253.81,193.09Z"/><path d="M125.51,159.52c-.09,1.31-.1,1.91-.17,2.49-.29,2.38-1.77,4.06-3.76,4.31a4.44,4.44,0,0,1-4.91-3c-.91-3.12-1.48-6.34-2.16-9.52-2.17-10.13-4.24-20.29-6.51-30.4-3.85-17.16-11.24-33-18-49.14a36.44,36.44,0,0,1-2.23-5.76c-.45-1.89.59-3.38,2.38-4.28a3.31,3.31,0,0,1,4.1.58,26.76,26.76,0,0,1,4,5.79c10.61,21,18.84,42.81,23.09,66,.91,5,2.06,9.86,3,14.81C124.83,154.35,125.17,157.29,125.51,159.52Z"/><path d="M230.8,207.22c0,5.33-5.43,12.79-10,14.39a4.59,4.59,0,0,1-5.45-1.73c-1.13-1.78-.6-3.41.57-4.88,2.56-3.23,5.15-6.45,7.81-9.6a3.58,3.58,0,0,1,4.78-.94C229.62,205.15,230.28,206.57,230.8,207.22Z"/><path d="M220.38,187.87c-3.24-.09-5.49-3.54-3.85-5.78a63.6,63.6,0,0,1,7.67-8.49A3.34,3.34,0,0,1,229,174c.83,1,1.55,2.86,1.17,3.93a18.33,18.33,0,0,1-7.69,9.45A5.81,5.81,0,0,1,220.38,187.87Z"/><path d="M128.5,190.94c0,3.95-1.1,5.64-3,6.14a4.56,4.56,0,0,1-5.51-3.23,50.12,50.12,0,0,1-.92-8.73,4.14,4.14,0,0,1,3.76-4.2,3.77,3.77,0,0,1,4,2.76C127.68,186.47,128.16,189.37,128.5,190.94Z"/><path d="M233,139.13a4.65,4.65,0,0,1-4.76,4.31,3.69,3.69,0,0,1-3.87-3.9c.19-3,2.53-5.26,5.13-4.88A4.39,4.39,0,0,1,233,139.13Z"/></g></g></svg>