<svg xmlns="http://www.w3.org/2000/svg" viewBox="0 0 273.32 525.13"><g id="Layer_2" data-name="Layer 2"><g id="Layer_1-2" data-name="Layer 1"><path d="M273.21,175.48a4.32,4.32,0,0,0-1.58-2.51l-.12-.16-.06-.09-.26-.35a36.63,36.63,0,0,0-5.13-5.87,26,26,0,0,0-9.09-5.25c-.71-.27-1.44-.5-2.15-.72-2.55-.78-5.1-1.37-7.49-1.9-2.09-.5-4.23-.93-6.3-1.35l-2.52-.52c-3.31-.7-6.66-1.49-9.9-2.24-2.48-.58-5-1.16-7.45-1.71-3.65-.79-7.33-1.3-10.79-1.75-2.64-.35-5.57-.67-9.22-1-6.16-.53-12.18-1-18.26-1.13-5.77-.11-12.08-.05-19.85.17l-.8,0-.61,0-1.19,0c-1.07,0-2.18-.08-3.29-.07-4.3,0-8.83.21-14.26.55l-.92,0c.43-1.33.86-2.66,1.3-4,2.32-7,4.2-12.95,5.93-18.63,2.24-7.38,4-13.48,5.49-19.21.75-2.81,1.48-5.63,2.21-8.46.91-3.49,1.85-7.11,2.81-10.66,3.14-11.65,6.78-24.09,11.46-39.17,2-6.53,4.05-13.13,6-19.52.92-3,1.88-6.1,2.76-9.21l.12-.46a59.09,59.09,0,0,0,2-9.13A15,15,0,0,0,182,7.1a7.09,7.09,0,0,0-2.37-4,10,10,0,0,0-3.77-2,25.4,25.4,0,0,0-3.48-.74A27.43,27.43,0,0,0,168.52,0L168,0a47.17,47.17,0,0,0-5.23.19,41.08,41.08,0,0,0-9.58,2.05,12.09,12.09,0,0,0-5.09,2.92,2.43,2.43,0,0,0-.2.25A4.7,4.7,0,0,0,146,7.79a7.4,7.4,0,0,0-.37,1.53c0,.19-.07.37-.12.59l-.42,2.4c-.31,1.66-.58,3.32-.84,5h0c-1.87,11.05-4.29,22.2-6.64,33q-.72,3.3-1.43,6.61c-2.53,11.78-5.12,24.5-8.15,40q-1.29,6.63-2.54,13.26c-1.53,8-3.11,16.36-4.79,24.52l-.44,2.18c-1,5-2,10.2-3.46,15.24-3.7.34-7.81.72-11.84,1-3.42.27-7.12.63-11.32,1.11-2.18.26-4.38.57-6.51.88l-2.59.37c-2.75.36-5.5.7-8.25,1-3.63.45-7.38.91-11.07,1.43-7.63,1-13.82,2.12-19.47,3.36l-1.64.37c-2.67.59-5.43,1.2-8.13,1.91s-5.25,1.52-7.8,2.31l-2.93.92c-2.59.83-5.27,1.68-7.83,2.74a31.61,31.61,0,0,0-8.73,5,17.35,17.35,0,0,0-2.06,2.05,4.4,4.4,0,0,0-3.75,1.13A7.89,7.89,0,0,0,1,182.39l0,.32c-.34,2-.52,4-.67,5.92a70.53,70.53,0,0,0-.14,9.73,33,33,0,0,0,.62,4.78,12.52,12.52,0,0,0,3.84,6.27,37.72,37.72,0,0,0,3.8,3.19c0,.59.07,1.17.12,1.81.15,1.65.3,3.31.48,4.92.27,3,.6,6.06.91,9l.14,1.35c.75,6.48,1.63,13.16,2.67,20.41,1.82,12.31,4.33,24.67,6.76,36.63l1,4.8c1.07,5.24,2.2,10.54,3.3,15.67l.83,3.84C26,318,27.38,325.1,28.68,331.8c1.21,6.28,2.46,12.78,3.64,19.17,1.08,5.95,2.15,12.39,3.35,20.26l1.42,9.57q2.23,15,4.49,30.07l.14.89c.94,6.33,1.92,12.88,3.09,19.27.29,1.65.6,3.29.91,4.93s.62,3.26.91,4.9c.46,2.61.88,5.32,1.28,7.94l.45,2.88c.4,2.49.8,5.07,1.1,7.62.25,2.05.47,4.11.68,6.17l.47,4.38c.24,2.29.49,4.65.79,7,.33,2.73.77,5.5,1.19,8.18l.12.75c.53,3.46,1,6.58,1.75,9.68a25.85,25.85,0,0,0,4.26,9.94c4.17,5.6,10.65,8.56,16.4,10.9a71.22,71.22,0,0,0,9.36,3.25c3.73,1,7.45,1.59,10.28,2,6.53,1,13,1.78,19.71,2.52a162.65,162.65,0,0,0,18.17,1c1.05,0,2.09,0,3.14,0,5.71-.13,11.5-.38,17.09-.62l3.29-.15c3.41-.15,6.86-.36,10.21-.57l6-.35.31,0c5.74-.32,11.67-.66,17.53-1.34,2.8-.31,5.61-.87,8-1.37a56,56,0,0,0,8.2-2.34,75.07,75.07,0,0,0,7.26-3.05c1.22-.6,2.27-1.17,3.21-1.74a27.74,27.74,0,0,0,3.67-2.83A3.83,3.83,0,0,0,221.6,509a14.66,14.66,0,0,0,2.45-2c.9-.93,2-2,3-3.24a25,25,0,0,0,4.48-8.47,54.23,54.23,0,0,0,1.79-8.46l.1-.64c.27-1.7.47-3.43.67-5.09.17-1.42.35-2.88.56-4.3.29-1.94.6-3.89.91-5.83.17-1,.33-2.08.5-3.13.31-2.07.55-4.16.79-6.18l.27-2.36c.8-6.42,1.56-12.71,2.07-19.11.17-2.15.33-4.29.48-6.44.33-4.45.67-9.05,1.11-13.56.59-5.95,1.33-12.44,2.33-20.43.58-4.74,1-9.58,1.44-14.25q.27-3,.55-6c.57-6.12,1.37-12.49,2.44-19.48l.5-3.3c1.73-11.49,3.53-23.36,4.64-35.14.36-3.85.69-7.7,1-11.55q.38-4.32.76-8.63c.43-4.89.91-9.86,1.37-14.66l.53-5.5c1.36-14.43,2.16-27.35,2.46-39.5.14-5.18,0-10.42-.08-15.49l-.09-4.54c0-2.7,0-5.43,0-8.08l0-1.93c0-1.27,0-2.47.08-3.71,0-.66.07-1.36.12-2.14l.76-.39a32.24,32.24,0,0,0,3.21-1.81,21.83,21.83,0,0,0,2.54-2,15.45,15.45,0,0,0,4.21-7.54,48.07,48.07,0,0,0,1.55-10.58c.07-1.26.09-2.34.08-3.34a5.74,5.74,0,0,0,1.29-1.24l.16-.18,0-.08A4.4,4.4,0,0,0,273.21,175.48Zm-19,23c-.88.48-1.74.92-2.58,1.34a45.56,45.56,0,0,0,.65-7.29,41.59,41.59,0,0,0-.22-4.5c0-.22-.05-.45-.08-.68,1.2-.36,2.49-.77,3.81-1.21-.05,1.86-.21,3.82-.5,6.29a30.27,30.27,0,0,1-1,4A4.11,4.11,0,0,0,254.2,198.47ZM204.06,509.84l-.29.11a76,76,0,0,1-16.71,3.61h0l-.32,0h0c-4.51.43-9.12.69-13.58.95l-5.63.33c-6.22.41-12.42.68-19.29,1l-4.16.17c-5.37.23-10.92.46-16.33.24-7-.29-13.92-1.08-20.46-1.85-5-.61-9.18-1.19-13-1.81a67.35,67.35,0,0,1-9.58-2.19,105.75,105.75,0,0,1-9.93-3.86c-1-.49-2.2-1-3.27-1.68a29,29,0,0,1-3.43-2.33A20.22,20.22,0,0,1,65.68,500a23.31,23.31,0,0,1-1.14-2.05l1.43.66a84.17,84.17,0,0,0,19,5.9c3.23.63,6.69,1.15,10.27,1.53,13.61,1.46,27,2.36,39.74,2.69,6.83.18,13.9.36,20.88.09s13.73-1,20.34-1.72h0l.33,0h0l.23,0c4.11-.4,8.53-.87,12.95-1.58,5.15-.81,10.28-1.92,14.18-2.8,4.36-1,8.81-2.22,13.21-3.61,1.08-.34,2.21-.71,3.35-1.1l-.33.43a32.56,32.56,0,0,1-3.33,3.4h0a4.21,4.21,0,0,0-3.33,3.36l-.6.49a47.45,47.45,0,0,1-8.75,4.22Zm15.53-20.93a155.51,155.51,0,0,1-19.46,5.5A190.33,190.33,0,0,1,178.8,498h0l-5.2.53-3.22.33h-.18c-3.79.37-6.9.64-9.79.86-3.31.24-6.65.3-9.53.35-6.85.14-13.85-.09-19.78-.32-5.75-.24-12.07-.6-19.89-1.14-6.59-.48-13-1-19.48-1.89l-.83-.12-.22,0a92.53,92.53,0,0,1-11.25-2.46A88.08,88.08,0,0,1,69,490.33l-.09-.05A35.62,35.62,0,0,1,63.14,487a3.32,3.32,0,0,0-1.41-.61c-.43-2.63-.82-5.21-1.15-7.42-.66-4.34-1.12-8.8-1.57-13.11-.15-1.46-.31-2.91-.46-4.36-.65-5.95-1.53-11.63-2.61-18.43-.55-3.43-1.2-6.89-1.83-10.24s-1.23-6.57-1.77-9.88c-.82-5.05-1.59-10.2-2.33-15.18l-.68-4.55q-.57-3.87-1.16-7.74-.86-5.7-1.7-11.43c-.34-2.26-.67-4.53-1-6.8-.67-4.56-1.35-9.13-2.05-13.68-1.11-7-2.39-14.09-3.5-20.06-2.69-14.4-5.26-27.32-7.85-39.5-2.66-12.52-5.71-27.06-8.31-41.28-2.22-12-4.08-25.19-5.66-40.25l-.25-2.5-.21-2.2a73.64,73.64,0,0,0,14.22,3.94c5.44,1.05,11,1.89,16.38,2.71l3.68.56,7.59,1.15c4,.61,8,1.22,12,1.8,6.46,1,12.88,1.67,19.08,2.1,8,.56,14.58.75,20.79.58,5.58-.11,11.22-.45,16.68-.78l2.66-.16c6.17-.37,12.5-.84,19.37-1.43q4-.34,8-.74c3.56-.33,7.25-.68,10.87-1l3-.24c5.3-.43,10.78-.87,16.14-1.54,6.37-.8,12.77-1.84,19.56-3.2,5.57-1.13,12.5-2.53,19.09-4.17,5.94-1.46,12-3.27,18.66-5.54,1.51-.51,3-1.11,4.44-1.71,0,.62,0,1.23,0,1.85,0,3.33-.07,6.77,0,10.16,0,1.72.06,3.44.1,5.15s.09,3.42.11,5.13c0,3.53,0,7-.08,9.67-.29,11.78-1.11,24.35-2.65,40.76l-.5,5.29c-.44,4.6-.89,9.36-1.3,14l-.42,4.8c-.44,5-.89,10.26-1.38,15.38-1.1,10.94-2.76,22-4.36,32.7q-.44,2.82-.85,5.66c-1.08,7.34-1.87,13.83-2.4,19.84l-.17,1.94c-.55,6-1.11,12.13-1.85,18.17s-1.61,13.14-2.29,20.51c-.34,3.71-.62,7.48-.88,11.13-.21,2.88-.43,5.87-.68,8.8-.61,7.05-1.5,14.21-2.36,21.14l-.21,1.69c-.31,2.51-.72,5-1.11,7.51l-.51,3.23c-.28,1.85-.52,3.73-.75,5.55s-.51,4-.82,5.95c0,.13,0,.26-.07.38a4.75,4.75,0,0,0-1.33.67A21.86,21.86,0,0,1,219.59,488.91ZM9,199.15c-.14-1.92-.18-4-.12-6.4,0-.75.06-1.55.11-2.43a20.64,20.64,0,0,0,2.79,1.74A37,37,0,0,0,17,194.11l.84.27a76.42,76.42,0,0,0,7.9,1.83l.42.08c2.94.55,6.41,1.18,9.91,1.7,3.14.44,6.4.91,9.63,1.32,2.36.27,4.76.51,7.08.73l3.36.33,6,.62c4.89.5,9.94,1,14.93,1.4l3.59.28c5.24.41,10.66.83,16,1.15,6.27.37,13,.74,19.76.86,4.87.1,9.7,0,13.77-.17,4.77-.14,9.69-.3,14.56-.58l4.22-.26c7.28-.44,14.8-.89,22.17-1.63,4-.42,8.07-.87,12.1-1.32l7-.77c5.64-.61,12.21-1.33,18.72-2.3s11.87-1.9,17-3l0,.09a52.14,52.14,0,0,1,0,9.43,4.05,4.05,0,0,0,1.05,3.07,4.84,4.84,0,0,0,.83.74q-6.2,1.67-12.73,3.07c-5.18,1.09-10.43,2.14-15.63,3.12s-10.74,1.68-15.84,2.27c-4.7.46-9.51.86-14.15,1.25l-3.84.32c-3,.25-6,.54-9,.82-3.46.33-7,.67-10.53,1-5.94.49-12.2.91-19.14,1.29l-.83.05c-6,.33-12.11.68-18.14.73s-12.09-.19-18.22-.72c-6.69-.56-12.17-1.17-17.26-1.92-13.51-2-24.61-3.67-34.94-5.39h0c-3-.53-6.18-1.09-9.21-1.87-1.45-.35-3-.74-4.57-1.25-1.32-.43-2.71-1-4.32-1.66A35.56,35.56,0,0,1,15.7,207c-1.22-.81-2.4-1.67-3.6-2.65a22.26,22.26,0,0,1-2.31-2.23,6,6,0,0,1-.3-.54,11.46,11.46,0,0,1-.43-2l0-.21Zm225.49-6.57c2.9-.79,5.88-1.65,8.88-2.56a47.3,47.3,0,0,1-.51,9l-.2,1a4.72,4.72,0,0,0,.37,3.23.41.41,0,0,0,.05.09q-4.25,1.47-8.71,2.81a4.86,4.86,0,0,0,.4-1.53A51,51,0,0,0,234.49,192.58ZM221,186.71c-5.94,1.13-12.42,2.15-19.8,3.14-4,.51-8.11,1-12.07,1.39l-6.49.72c-3.52.42-6.78.78-9.94,1.11h-.2l-1,.1-.7.07h-.14c-6.24.58-12.61,1-18.76,1.41-6,.36-13.05.77-20.36,1-8.06.26-14.28.29-20.17.09s-11.58-.55-17.23-.9l-2.06-.13c-3.18-.21-6.42-.47-9.55-.73L78,193.62c-5.79-.45-10.6-.89-15.13-1.38-2.53-.28-5.08-.53-7.63-.79s-5.07-.51-7.6-.78c-4.61-.51-9.15-1.19-13.38-1.85-3-.51-6.25-1.08-9.37-1.77a52,52,0,0,1-9-2.75A16.31,16.31,0,0,1,13.84,183c-.2-.18-.39-.37-.58-.57l0-.06a17.27,17.27,0,0,1,1.79-1.6,40,40,0,0,1,7.09-3.57,1.54,1.54,0,0,1-.31.06l.22-.05h0l.11,0v0l.07,0v0h0l.24-.09.12-.05c2.47-.84,5.09-1.68,8-2.57l1.86-.56c2.59-.79,5.26-1.6,7.92-2.24,5.52-1.35,11.62-2.59,18.64-3.8,6.35-1.06,12.67-1.88,20.2-2.77q3.27-.4,6.52-.84a24.57,24.57,0,0,0-3.2,2.71C80,169.5,77.71,174,79.49,178.05l.4,1,.13.24c.4.56.8,1.09,1.22,1.63a7,7,0,0,0,1.36,1.23l.42.32a15.14,15.14,0,0,0,3.83,2.06,49.61,49.61,0,0,0,4.83,1.68A68.61,68.61,0,0,0,101,188l1.47.22c3.17.47,6.47.82,10.09,1.08a137.64,137.64,0,0,0,19.83-.33c6.47-.5,13.25-1.34,20.16-2.48a159.7,159.7,0,0,0,19.82-4.7,68.37,68.37,0,0,0,9.88-3.91,27.89,27.89,0,0,0,4.67-3.07,13.38,13.38,0,0,0,3.07-3.65,9.69,9.69,0,0,0,1.17-3.36,8.65,8.65,0,0,0,.06-3.28c-.08-.32-.14-.66-.19-1l-.2-.58c-.18-.5-.36-1-.55-1.48l-.06-.12a19.42,19.42,0,0,0-2.31-3.39c2.93.14,5.69.31,8.36.52,7.59.58,13.74,1.27,19.32,2.16,4.17.78,8.37,1.76,12.43,2.72,2.47.57,5,1.17,7.53,1.72l3.39.7c2.15.45,4.38.91,6.55,1.41a68.74,68.74,0,0,1,10.17,2.94,24.12,24.12,0,0,1,4.33,2.67c.57.54,1.13,1.11,1.69,1.71l-.12.06h0c-.75.35-1.61.7-2.64,1.09a4.14,4.14,0,0,0-.49.19l-.05,0c-4.42,1.65-9.06,3.07-13.55,4.43l-4.52,1.39A177.2,177.2,0,0,1,221,186.71ZM112.37,165.15c-.17.59-.31,1.19-.44,1.78a3.87,3.87,0,0,0-1.18.74,4.58,4.58,0,0,0-1.41,3.26,4.08,4.08,0,0,0,1.2,3,17.5,17.5,0,0,0,7.83,4.19,22,22,0,0,0,4.71.72,14.45,14.45,0,0,0,7.27-1.62,11.39,11.39,0,0,0,3.08-2.43c.39-.46.78-.94,1.16-1.44a7.91,7.91,0,0,0,.8-1.51l.16-.38a12.08,12.08,0,0,0,.64-2.19c.05-.25.11-.5.16-.74q.39-1.49.81-3l.42-1.51c.41-1.53.88-3.08,1.33-4.57l.14-.45c7-.47,14.48-.81,22.82-1.05,3.24.12,5.87.33,8.25.65a30.37,30.37,0,0,1,6.52,1.93,24.09,24.09,0,0,1,3.38,2.1,18.72,18.72,0,0,1,1.66,1.67v0a8,8,0,0,1,.57.92l.07.18c0,.15.11.29.14.42v.42l-.12.41a6.23,6.23,0,0,1-.37.57,14.43,14.43,0,0,1-1.84,1.62,41,41,0,0,1-5.86,2.9c-10.49,3.85-22.65,6.4-38.26,8-3.2.31-6.06.53-8.74.67-3.24.13-6.52.18-9.75.15a120.92,120.92,0,0,1-18.31-1.82c-1.41-.28-3.1-.62-4.85-1.07a31.93,31.93,0,0,1-4.73-1.61,14.94,14.94,0,0,1-1.79-1.08l-.11-.13,0,0v-.12c0-.05,0-.09,0-.13.21-.4.46-.77.72-1.17a23.11,23.11,0,0,1,2.6-2.35,53.52,53.52,0,0,1,9.33-4.73,102,102,0,0,1,12.68-3.49C112.83,163.71,112.59,164.44,112.37,165.15Zm41.09-149.9,0-.28a49.53,49.53,0,0,0,11.85,2.27,26.64,26.64,0,0,0,6.53-.54c-.85,3.21-1.84,6.41-2.8,9.53-.34,1.09-.68,2.18-1,3.28-1.92,6.3-3.9,12.82-5.89,19.21-4.49,14.37-8.2,27.12-11.35,39q-1.5,5.6-2.93,11.21c-.73,2.81-1.45,5.61-2.19,8.41-1.54,5.78-3.3,11.61-5,17.26l-.57,1.89c-1.79,5.89-3.68,11.65-6,18.49-2.19,6.63-4,12.64-5.59,18.39l-1,3.63c-.12.5-.23,1-.38,1.4l-.2.3c-.22.22-.45.43-.68.62s-.52.29-.84.44a9.87,9.87,0,0,1-1,.26,15.45,15.45,0,0,1-2.57-.1,15.18,15.18,0,0,1-1.6-.44l.15-.66c.4-1.45.9-2.89,1.37-4.27l.69-1.87c.84-2.28,1.7-4.64,2.4-7,1.6-5.6,2.76-11.38,3.88-17l.33-1.61c1.8-8.8,3.51-17.78,5.15-26.46q1.17-6.09,2.33-12.19c2.62-13.52,5.42-27.22,8.35-40.73q.75-3.55,1.53-7.11C148.81,40,151.18,29,153,18.09c.15-.9.31-1.82.46-2.74l0-.1Z"/><path d="M206.52,208.92a4.43,4.43,0,0,0,1.29.19,4.52,4.52,0,0,0,4.2-3l.85-2.25a3.92,3.92,0,0,0-.14-3.19A4.64,4.64,0,0,0,210,198.2a4.45,4.45,0,0,0-3.35.34,4.53,4.53,0,0,0-2.14,2.51l-.87,2.28a4.09,4.09,0,0,0,.22,3.24A4.58,4.58,0,0,0,206.52,208.92Z"/><path d="M226.38,357.57a4.43,4.43,0,0,0-.3-3.37,4.63,4.63,0,0,0-2.49-2.1h0l-.16-.07-.42-.21c-.5-.25-1-.5-1.51-.73a2.2,2.2,0,0,0-.34-.13,4.45,4.45,0,0,0-5,6.37,4.09,4.09,0,0,0,1.7,1.71v0c.91.46,1.89.92,2.91,1.38a3.38,3.38,0,0,0,1.37.27,4.49,4.49,0,0,0,2.14-.55A4.28,4.28,0,0,0,226.38,357.57Z"/><path d="M223.07,373.26a3.91,3.91,0,0,0-2.54-2.22,4.67,4.67,0,0,0-3.47.29,4.36,4.36,0,0,0-1.9,5.81,2.33,2.33,0,0,0,.36.66,4.6,4.6,0,0,0,3.85,2.2,4.42,4.42,0,0,0,2-.51,4.62,4.62,0,0,0,2.22-2.84,4,4,0,0,0-.43-3.2Z"/><path d="M220.22,400.35h0a4.4,4.4,0,0,0-5.19,6.28,4.34,4.34,0,0,0,2.59,2.16,4.46,4.46,0,0,0,3.36-.32,4.41,4.41,0,0,0-.76-8.12Z"/></g></g></svg>