<svg xmlns="http://www.w3.org/2000/svg" viewBox="0 0 438.06 232.38"><g id="Layer_2" data-name="Layer 2"><g id="Layer_1-2" data-name="Layer 1"><path d="M117.38,202.09c-2.79-1.5-5.59-3-8.37-4.48-36.88-20-62.92-49.34-76.21-89.36-10-30.25-9.93-60.74-1-91.26C33,13,34.78,9.31,34.3,4.91,34,2.41,36.2.5,38.74.2A54.06,54.06,0,0,1,45,0Q194.52.06,344,.16c2.64,0,5.28.24,8.12.38,2.57,8.16,5,16,7.64,24.31,1.94-.35,3.63-.54,5.26-1a66,66,0,0,1,31.76-1.19c13.65,2.91,23.94,10.39,30.84,22.28,11.93,20.57,13.65,42.1,4.85,64.27a83.29,83.29,0,0,1-19.75,29.4,165.2,165.2,0,0,1-29.66,22.79C364.91,172.36,345,176.2,324,175c-5.29-.32-10.52-1.65-16.25-2.59a181.06,181.06,0,0,1-48.58,30.78c.72,3.08,2.94,1.86,4.32,1.87,25.88.22,51.77.31,77.66.44q15.63.07,31.25.23c3.28,0,6.86-.09,8.31,3.72,1.23,3.22-.88,5.77-2.68,8.07a31.65,31.65,0,0,1-5.72,5.55c-8.59,6.51-18.34,9.43-29.14,9.35-50.28-.36-100.57-.58-150.86-1q-71.86-.54-143.72-1.26c-6.54,0-13.09.11-19.63.18-7.45.09-13.93-2.77-20-6.68A19.38,19.38,0,0,1,.1,209.83c-.6-3.82,1.46-6.31,5.32-6.48,1.78-.09,3.57,0,5.36.05L109,204c2.64,0,5.28,0,7.92,0ZM345.31,11.15c-9.05-1.28-207.07-2-293.11-1.08-2.34,0-4.68.31-7.28.5a74.8,74.8,0,0,0-6,18.71C37.56,36,36.48,42.73,35.68,49.51,34.52,59.4,35,63.74,36.86,68.46a12.94,12.94,0,0,0,2.48-.75c22.77-12.24,47.34-17.21,72.93-18,28.37-.91,56.52,1.65,84.42,6.32,28.79,4.83,57.67,8.38,86.86,9.32,15.8.51,31.55.06,47.12-2.86A106.87,106.87,0,0,0,346,57.86c4.37-1.52,6.42-4.43,6.11-9.5a160.39,160.39,0,0,0-4.78-31.68C346.8,14.73,345.94,12.86,345.31,11.15ZM334,143.53a9.31,9.31,0,0,0,2.3.64c26.83-1.2,46.61-14.07,60.27-36.74a62.6,62.6,0,0,0,7.44-19c3.59-16.33-6.11-30.57-21.83-34.43-6.58-1.61-13.39-2.1-19.53,1.46-.93,8.1-1.42,15.81-2.78,23.36a162.38,162.38,0,0,1-5.58,22.41,186.61,186.61,0,0,1-9.15,22.17C341.88,130.27,337.83,136.76,334,143.53Zm28.17-98.9a40.79,40.79,0,0,0,5.45-.54c6-1.53,11.87-.75,17.67.61,19.42,4.58,31.57,23.18,29.09,41.23a70,70,0,0,1-4,15.47c-7.4,19.52-21,33.52-38.82,43.75a62.71,62.71,0,0,1-17.45,6.54,100.57,100.57,0,0,1-28.42,2.2c-2.6,3.18-6.24,5.38-7.57,10.09,3.66.59,6.86,1.58,10.05,1.53,16.22-.23,32-2.7,46.41-10.72a143.53,143.53,0,0,0,33.19-25.35A72,72,0,0,0,425.3,99.75c5.28-17.48,2.91-34.08-6.19-49.76-5-8.57-12.22-14.45-21.95-17a59.46,59.46,0,0,0-28.25-.5c-2.5.55-5.33,1-7.31,4.11C361.76,38.65,362,41.23,362.21,44.63ZM14.1,214.08c.4,1,.45,1.72.82,2a23.7,23.7,0,0,0,16,4.47c11.29-1.09,22.53-.54,33.82-.19,16.94.53,33.89.43,50.84.55q84.74.65,169.48,1.26c19,.14,38.06.33,57.08.45,6.29,0,12.49-.58,18.19-3.52.87-.45,1.45-1.48,2.86-3-3.13-.17-5.13-.36-7.14-.37q-63.33-.5-126.66-.9a113.72,113.72,0,0,0-15.1.85,181.57,181.57,0,0,1-48.9,0,100.92,100.92,0,0,0-13.27-1.41q-66.45-.48-132.91-.7A50.14,50.14,0,0,0,14.1,214.08ZM70.34,82.14c-2.7.33-4.56,2.08-4.51,4.32a29.91,29.91,0,0,0,1,7.85c3.58,12,8.71,23.32,17.33,32.68q8.13,8.82,16.6,17.33a64.31,64.31,0,0,0,7.51,6.25,17.44,17.44,0,0,0,4.75,2.31c1.9.64,4.17-.54,5.24-2.42s.48-3.46-.7-4.91a14.48,14.48,0,0,0-2.61-2.39c-8.86-6.59-16.26-14.68-23.46-23A75.93,75.93,0,0,1,74.56,87.38a7.51,7.51,0,0,0-1.17-3.27A11.59,11.59,0,0,0,70.34,82.14Zm208.92,78.75c2.19-.81,4.39-1.13,5.94-2.31a130.44,130.44,0,0,0,11.5-9.75c2.69-2.57,2.76-5.25.82-7s-4.24-1.44-7.18.82c-4,3.06-8,6.12-12,9.2-.7.54-1.63,1.11-1.85,1.85-.41,1.32-.83,3-.39,4.14S278.07,159.8,279.26,160.89ZM143.53,170a4.71,4.71,0,0,0-.27-1.72c-2.57-4.29-6.66-6.61-11.24-8-2.68-.79-5.22,2.66-3.89,5.27,2.27,4.48,6.18,7,11,8C141.12,173.92,143.41,171.83,143.53,170ZM300.88,114c.14-2.19-2.69-4.38-5-3.7a10.85,10.85,0,0,0-7.45,7c-.68,1.86,1.13,4.44,3.06,4.59C295.46,122.23,300.63,117.89,300.88,114Z"/></g></g></svg>