<svg xmlns="http://www.w3.org/2000/svg" viewBox="0 0 246.39 411.73"><g id="Layer_2" data-name="Layer 2"><g id="Layer_1-2" data-name="Layer 1"><path d="M169.62,92.06c1.63-3.45,2.94-6.08,4.13-8.76q15.9-35.83,31.76-71.67c.61-1.36,1.2-2.72,1.82-4.07,3.88-8.47,4.32-8.72,13.54-6.07a96.86,96.86,0,0,1,12.65,4.25c5.09,2.25,6.28,5.63,4,10.89-4.2,9.83-8.62,19.56-13,29.33-5.43,12.21-10.89,24.41-16.29,36.63-1.06,2.38-1.94,4.84-2.79,7,1.47,2.33,3.39,1.93,5.08,1.92,7.13-.07,14.27-.25,21.4-.37,2.08,0,4.18-.14,6.25,0,4.1.32,6.1,1.81,6.79,5.75a70.77,70.77,0,0,1,1.34,13.27c-.18,9.19-.45,18.42-1.47,27.55-1.3,11.49-3.1,22.95-5.2,34.32a139.91,139.91,0,0,1-11.63,34.52Q223.1,217,218,227.38c-15.47,31.39-25.24,64.61-32.35,98.76a183,183,0,0,0-2.3,62.87,53.84,53.84,0,0,1,.3,8.89c-.37,12.21-4.6,13.9-13.92,13.83-22.89-.17-45.8.08-68.68-.55-13.35-.37-26.69-1.88-40-3.32-10.2-1.1-12.45-3.08-12.41-13.4,0-10.1,0-20.21-.38-30.3-1-27.92-2.35-55.84-8.75-83.16-3.17-13.56-6.94-27-11.42-40.23-2.93-8.65-7.35-16.86-11.58-25A147.51,147.51,0,0,1,1.28,169.44a111.61,111.61,0,0,1-1.09-13.3,477.84,477.84,0,0,1,1.67-54.31c.47-5.7,2.65-8.11,8.25-8.47C15.44,93,20.8,93,26.16,93q65.11-.47,130.24-.88C160.56,92,164.71,92.06,169.62,92.06Zm2,289.21c0-4.19.09-7.4,0-10.6a187.21,187.21,0,0,1,3.61-43.41c7.26-35.63,17.17-70.37,33.33-103.11q6.3-12.79,12.27-25.74c1.32-2.86,3.15-5.67,2.75-9.72-10.19,1.47-20.2,2.63-30.23,1.79-10.3-.87-20.56-2.22-31.37-3.41-3.41,7.6-6.8,15.14-10.18,22.69s-6.94,15.12-10.13,22.8-7.47,14.68-9.37,23c2.37,1.45,4.48,2.54,6.35,4,5.46,4.09,11.2,7.9,16.14,12.55,10.27,9.7,12,19.41,6.44,32.31a97.78,97.78,0,0,1-14.77,24.29,48.24,48.24,0,0,1-9.1,8.44c-5.63,4-10.07,3.71-15.52-.5a32.49,32.49,0,0,1-5.59-5.71c-2.91-3.75-5.52-7.74-8.36-11.55a28.23,28.23,0,0,0-3.24-3.07c-1.55,3.31-2.85,6-4,8.66Q92.27,343.63,84,362.36c-1,2.17-1.89,4.37-3,6.45-2.15,4-4.71,4.81-8.85,2.7-3.17-1.62-6.15-3.6-9.23-5.39-1.19-.7-2.11-2.18-3.83-1.43-1.14,7.83-.92,12,1.06,18.45C96.8,383.36,133.59,382,171.63,381.27Zm-7.38-278.75a9.25,9.25,0,0,0-2.18-.73q-71.29.6-142.6,1.27c-2.08,0-4.15.14-6.23.24a2,2,0,0,0-.83.24,4,4,0,0,0-.67.58c-2.39,13-2.62,47.82-.36,58.4,3.43.06,6.07-2.11,9-3.34,24.31-10.17,49.22-12.68,75-6.38,11.87,2.9,23.2,7.24,34.39,12,2.07.9,4.29,1.47,6.33,2.15C141.66,157,162.39,109.56,164.25,102.52Zm-32.89,74.39a23.05,23.05,0,0,0-2.92-1.8C117.51,170.43,106.55,165.92,95,163c-26.78-6.86-52.46-3.46-77.38,7.76A39.47,39.47,0,0,0,12.51,174a43,43,0,0,0,.64,4.77,149.47,149.47,0,0,0,12.21,32.44c4.25,8.15,8.53,16.38,11.71,25A282.9,282.9,0,0,1,52,293c2.2,15,3.44,30.09,5.18,45.13.14,1.2-.61,3,1.52,3.46C63.11,334.22,129.56,183.71,131.36,176.91Zm69.45-75.33c-3.35,5.17-28.22,59.61-32.7,71.56a26,26,0,0,0-.72,4.05c20.61,3.88,40.7,5.94,60.78-.6a58.93,58.93,0,0,0,2.11-7.31c1.92-12.63,3.93-25.26,5.4-37.94.93-8,1.08-16,1.35-24,.06-1.9-.8-3.84-1.29-6-10,0-19.5,0-29,0C204.69,101.34,202.64,101.5,200.81,101.58ZM129.89,329.47a7.77,7.77,0,0,0,2.34-.9c10.46-8.52,16.82-19.87,21.21-32.29,2-5.59.46-11.09-3.88-15.6A83.6,83.6,0,0,0,125,263.35L107,277.18c-4,3.1-5.24,7-3.51,11.83a71.44,71.44,0,0,0,2.73,7.51,167.54,167.54,0,0,0,17.46,27.86C125.34,326.49,127,328.68,129.89,329.47ZM217.55,10.59a14.87,14.87,0,0,0-1.61,2.28q-16.62,37.38-33.15,74.81c-.42.95-.19,2.17-.27,3.44,3.92.77,7.37,1,10.66-.2a20.45,20.45,0,0,0,1.6-2.49q15.76-35.33,31.44-70.7a20.39,20.39,0,0,0,.88-4.27C223.76,12,220.92,10.53,217.55,10.59ZM59.3,394.27c.37,1.19.42,2.48.89,2.65a24,24,0,0,0,6,1.56c8.87.87,17.74,2,26.63,2.26,24.06.64,48.13.88,72.2,1.2a74.72,74.72,0,0,0,7.63-.64,12.66,12.66,0,0,0,.08-9.54c-36.52,0-72.72.77-108.91,1.78A34.13,34.13,0,0,0,59.3,394.27Zm45.13-129.79c.45.39.9.78,1.34,1.18,2.91-2,5.76-4.05,8.74-5.9,4.46-2.77,7.27-6.59,9.37-11.46,8.09-18.83,16.56-37.49,24.87-56.22,1.07-2.42,2-4.89,3-7.28-5-3-5-3-10.69-2.93C128.91,209.24,116.67,236.86,104.43,264.48ZM176.89,102c-4.28,7.24-7,15.08-10.5,22.59-3.6,7.82-7.16,15.66-10.45,23.61-3.14,7.57-7.45,14.71-9.39,23,3.33,1.56,6.2,2.92,9.42,2.85,3.44-5.67,26.3-55.8,31.08-68.18a21.17,21.17,0,0,0,.72-3.63C184,101.09,180.57,101.4,176.89,102Zm-104,258.56c3.86-5.65,23.11-48.57,25.6-57L93,291.28c-4.32,8-7,15.08-10.13,21.93s-6.31,14.05-9.34,21.13-6.51,13.82-9,21.06C67.17,358.05,69.62,360,72.84,360.55Z"/><path d="M192,224.57c-1.49,7.24-4.13,13.78-9.17,19.12a7.35,7.35,0,0,1-9.06,1.44,27.15,27.15,0,0,1-11.26-9.88,13,13,0,0,1-.84-1.56c-2.6-6,2.82-18,9.52-21.12,5.9-2.77,16.42.89,19.45,6.93A25,25,0,0,1,192,224.57Zm-15.34,10.37c2.74-2.69,3.92-6,4.79-9.37a2.91,2.91,0,0,0-.89-2.33c-2.28-2.08-6.05-1.88-7.74.49a43.3,43.3,0,0,0-2.77,5.09A10.63,10.63,0,0,0,176.66,234.94Z"/><path d="M154.28,368.61c-2.65.2-5.15-3.2-3.75-5.55a54.46,54.46,0,0,1,6.28-8.45c1.57-1.76,5.14-.72,5.93,1.41C164.35,360.38,159.06,368.24,154.28,368.61Z"/><path d="M164.78,335.59a7,7,0,0,1-.86,2.58,18.32,18.32,0,0,1-3.69,3.77c-1.44,1.09-3.13,1.62-4.9.43a4.23,4.23,0,0,1-1.49-5.45,9.7,9.7,0,0,1,5.62-5.29C161.8,330.81,164.5,332.46,164.78,335.59Z"/><path d="M45.49,220.54c.41-2,.84-5.29,1.75-8.42a99.55,99.55,0,0,1,13.29-28.06,28.61,28.61,0,0,1,3.37-4.14c5.24-5.2,10.39-6.25,17-2.71a56.17,56.17,0,0,1,23.82,24.58c2.69,5.3,2.83,11.12-.31,16.27-5.56,9.12-11.48,18-17.45,26.88-2.37,3.52-5.91,4.65-10.19,3.57a69.69,69.69,0,0,1-23.34-10.74C47.93,233.89,45.22,228.52,45.49,220.54Zm28.23-35.72c-1.75,1.57-3.31,2.55-4.28,3.94a84.64,84.64,0,0,0-13.33,28.91,26.69,26.69,0,0,0-.54,5.3A6.42,6.42,0,0,0,58,228.49c6.31,5,13.17,8.78,21.31,9.93,2.42-3.18,4.7-5.91,6.67-8.84,3.13-4.67,6.11-9.44,9-14.24,2.4-4,2.08-8-.46-11.75C89.29,195.88,83.2,189.1,73.72,184.82Z"/></g></g></svg>