<svg xmlns="http://www.w3.org/2000/svg" viewBox="0 0 292.49 398.49"><g id="Layer_2" data-name="Layer 2"><g id="Layer_1-2" data-name="Layer 1"><path d="M239.85,114.93c-.14,2.62-.4,4.93-.36,7.23.55,29.16.32,58.3-1.86,87.4-.75,10.09-1.68,20.16-2.47,30.24q-1.64,20.89-3.19,41.8c-1.89,25.8-3.68,51.62-5.64,77.42a92,92,0,0,1-2,12.32c-2.08,9.7-7.82,16.41-16.86,20.5-8.82,4-18.19,5.38-27.65,6.42a36.85,36.85,0,0,1-4.45.23c-26.74-.21-53.49.38-80.2-1.31-9.78-.61-19.61-.48-29.41-.81-9.5-.31-19-.31-28.48-1.27-17.84-1.81-32.65-15.79-35.88-33.39A82.16,82.16,0,0,1,.18,348.42q-.87-45.53,2.41-91c2.26-32,4.71-64.09,3-96.25-.62-12,.55-23.81,2.2-35.58A125.83,125.83,0,0,1,22.36,82.77C28.82,70.92,37.21,60.48,50.3,54.55c.79-5.38.15-10.69-.76-15.89-1-6-5-10-10.14-12.89-2.58-1.46-5.38-2.51-8-3.81a26,26,0,0,1-4.66-2.56c-2.84-2.19-2.2-6.95,1.22-7.92a66.82,66.82,0,0,1,11.36-2,76.4,76.4,0,0,1,8.39-.06c2-2.71,3.1-5.49,5.15-6.71C55.22,1.3,58.4.83,61.31.61,66.63.21,72,.22,77.34.2Q117.92.07,158.48,0c6.24,0,12.48.07,18.72.17a61.85,61.85,0,0,1,6.23.41c5,.62,8.27,3.37,8.92,8.47.87,6.74,4.8,12.64,4.57,19.76-.21,6.51.76,13.05,1.26,19.57a20.56,20.56,0,0,0,.7,3c14.64,3.09,27.36,9.36,34.41,24.25,9.81.53,19.57,1.09,29.33,1.56,3.64.18,7.12-.31,9.8-3.24a9.12,9.12,0,0,1,2.13-1.61c5.23-3.1,10.68-1.78,13.65,3.6a24.49,24.49,0,0,1,2.63,7.52,79.4,79.4,0,0,1,1.48,13.28c.1,31.82.43,63.66-.17,95.47-.29,15.73-2.41,31.42-3.73,47.13-.84,10.07-1.49,20.17-2.67,30.21-1.05,8.84-2.54,17.65-4.19,26.4-.71,3.76-2.28,7.37-3.56,11a15.28,15.28,0,0,1-1.69,3.13c-3.09,4.74-7.2,7-11,5.86-4.93-1.44-7.06-5.3-7.72-10a46.3,46.3,0,0,1-.06-8.89q1.39-24.94,2.91-49.88c.76-12.47,1.47-24.94,2.45-37.39,2.08-26.18,1.25-52.32-.84-78.44a106.4,106.4,0,0,0-1.74-11.46,4.79,4.79,0,0,0-4.17-4.09c-2.34-.35-4.7-.73-7.07-.85C246.15,114.82,243.24,114.93,239.85,114.93Zm-223.57,58c0,3.81.06,7.65,0,11.49-.18,10.7.07,21.44-.71,32.09-2.92,40-5.54,80.09-5.3,120.26,0,6.54.19,13.09.67,19.61.39,5.36,1.49,10.71,5.09,15,6.11,7.23,13.4,12.62,23.22,13.56,3.25.31,6.51.65,9.77.72,18.71.4,37.4.65,56.1,1.69,20.74,1.16,41.57.78,62.37,1a129.4,129.4,0,0,0,13.35-.63c7.7-.73,15.29-2.06,22.43-5.3,5.8-2.63,9.68-6.82,10.85-13.18A117.6,117.6,0,0,0,216,356.83c2-27,3.84-54,5.78-80.94.77-10.68,1.5-21.36,2.55-32,2.29-23.09,4-46.2,4.65-69.4a31,31,0,0,0-.7-4.75c-2.54,1.16-4.34,2.1-6.22,2.81-5.82,2.21-11.57,4.65-17.53,6.43-20.84,6.2-42.15,6.62-63.58,4.28a140.6,140.6,0,0,1-40.25-10.94,180.28,180.28,0,0,0-38.21-11.81C45.22,157.32,30.26,162.2,16.28,172.93Zm0-13.43a8.17,8.17,0,0,0,1.79.2A7.6,7.6,0,0,0,19.7,159c16.16-9.79,33.42-11.27,51.53-7.05A206.83,206.83,0,0,1,105,163c28,11.84,57,13.54,86.52,8.4a95.55,95.55,0,0,0,31.73-11.27c4.2-2.44,6.63-5.12,6.37-10.49-.73-14.84-.57-29.72-1.43-44.55-.43-7.36-2.15-14.67-3.65-21.93a23.2,23.2,0,0,0-12.66-16.37c-3.65-1.87-7.61-3.7-11.6-4.22A157.39,157.39,0,0,0,176.38,61c-23.75.54-47.49,1.6-71.24,2.39-5.33.18-10.68.18-16,.15-8.61,0-17.22-.1-25.83-.34a25.26,25.26,0,0,0-19.92,8.27A79.89,79.89,0,0,0,28.65,92.57c-9.26,20.09-13.14,41.22-12.77,63.22C15.9,157,16.12,158.12,16.28,159.5ZM59.14,53l13.56.08,29.32.14c3.25,0,6.52.14,9.77,0Q146.9,52,182,50.57c1.69-.07,3.37-.34,4.91-.51,1.25-9.59.61-19-1.8-26.42-2.75-.05-5.68-.15-8.62-.14q-18.69,0-37.38.13c-19.58.1-39.16.16-58.68-1.86C71.32,20.82,62.17,20,53,19.09c-1.41-.13-3-.45-3.5,2.18C59.5,29,59.58,40.4,59.14,53Zm179.73,52.13c2.46.14,3.93.26,5.39.31,4.15.13,8.31.14,12.46.36,6.75.37,11,4,12.81,10.41a56.5,56.5,0,0,1,1.72,8.72,432.53,432.53,0,0,1,2.49,65c-.77,19.88-2.38,39.73-3.51,59.6-1,16.61-1.77,33.22-2.58,49.84,0,.91-.63,2.45,1.75,2.74a24.38,24.38,0,0,0,1.89-4.54c1.29-6.4,2.78-12.79,3.51-19.26,2-17.71,3.7-35.45,5.4-53.18.82-8.58,1.42-17.17,2-25.76,1.75-25.82,1.39-51.68,1.2-77.52-.07-10.1-.72-20.19-1.25-30.28-.17-3.2,0-6.6-3-9.77-7.71,7-17.34,5.94-26.78,5.63-3.55-.12-7.08-.82-10.63-1-1.61-.08-3.25.48-5.29.83C237.28,93.33,238,98.88,238.87,105.14Zm-56.31-93c-1.28-1.34-1.77-2.35-2.39-2.43a64.44,64.44,0,0,0-8-.55c-12.47-.06-24.95,0-37.42,0-19.31-.07-38.61-.23-57.91-.28-3.61,0-7.31-.37-11.81,1.11C88.63,13.78,165.67,15.25,182.56,12.15Z"/><path d="M135.79,247.05c.05,9.65-8.52,17.45-19.52,15.64-5.75-.95-9.83-4.16-11.25-10-2.09-8.56,1.37-17.63,10-22.84,4.72-2.87,11.75-1.62,15.58,2.4C134,235.83,135.81,240.11,135.79,247.05Zm-22-.77c0,4.31,1.28,6.32,3.55,7,2.59.75,5.8-.23,7.08-2.43,1.73-3,2.21-6,.55-9.29-1.83-3.6-6.23-4.4-8.7-1.12C114.8,242.44,114.26,245.17,113.82,246.28Z"/><path d="M56.87,281.12c-7.19-.83-11.27-9-7.55-14.92a22.16,22.16,0,0,1,4.2-4.57,9.07,9.07,0,0,1,14.31,2.54c2.21,4.05,1.76,8.1-.57,11.86S61.08,281.4,56.87,281.12Zm1-8.59c.86-.84,1.78-1.32,1.88-1.94s-.66-1.34-1-2c-.6.45-1.56.81-1.7,1.37S57.39,271.38,57.82,272.53Z"/><path d="M165.86,314.66c.23,7-4,11.34-9.23,11.16a7,7,0,0,1-6.47-3.79,7.28,7.28,0,0,1,1.21-8.15,41.26,41.26,0,0,1,3.31-2.87c2.21-1.93,4.67-2.45,7.28-1.05S165.81,313.46,165.86,314.66Z"/><path d="M210.53,90.35c-5.62,1.32-9.42-.82-12.68-4.29a2.59,2.59,0,0,1-.06-2.4,2.73,2.73,0,0,1,2.08-1.26,8.87,8.87,0,0,1,4.09,1C206.35,84.94,209.1,86.18,210.53,90.35Z"/><path d="M207.76,107.3c-.5.37-1.16,1.26-1.82,1.27a7,7,0,0,1-6.78-5.51,2.93,2.93,0,0,1,2.49-3C204.79,100,208.24,103.94,207.76,107.3Z"/></g></g></svg>