<svg xmlns="http://www.w3.org/2000/svg" viewBox="0 0 436.8 233.09"><g id="Layer_2" data-name="Layer 2"><g id="Layer_1-2" data-name="Layer 1"><path d="M117.41,205.76c.18-3.27-2.28-3-3.65-3.72A165.5,165.5,0,0,1,80,180.51c-29.73-24.79-48-56.25-54.37-94.44C22.12,65,23.6,44,29,23.33c1.41-5.41,3.88-10.56,3.57-16.42-.12-2.28,1.75-3.76,4.06-4,3-.28,5.93-.37,8.9-.4q94.13-.75,188.26-1.48Q285.92.61,338.12,0c3.83,0,7.66,0,11.26,0,3.17,3.86,2.91,8.29,4.36,12.11s2.85,7.76,4.5,12.27a30.86,30.86,0,0,0,4.77-.7,64.88,64.88,0,0,1,32.59-1.47,44.79,44.79,0,0,1,30.31,21.59c12.38,20.71,14.25,42.48,5.39,65a83,83,0,0,1-19,28.82,166.46,166.46,0,0,1-30.15,23.57c-12.36,7.59-25.93,11.48-40.29,13.36a85,85,0,0,1-33.32-2.22c-8.2,6-15.81,12.23-24,17.54s-16.74,9.61-25.27,14.43c1.93,2.27,4.13,1.35,6.07,1.35q50.4-.12,100.81-.32c3,0,6-.12,8.92.16,5.25.5,7.33,4.19,4.59,8.77a31,31,0,0,1-6.92,8,45,45,0,0,1-28.87,10.12c-19.63.09-39.26.07-58.88.09q-119.56.12-239.12.26c-5.36,0-10.71.3-16.06.35-7.7.08-14.59-2.61-20.91-6.74C3.66,222.91.38,218.11,0,211.67c-.18-3.17,1.5-5.16,4.57-5.38,2.07-.15,4.16,0,6.24,0q48.63-.09,97.26-.17C111.22,206.08,114.36,205.87,117.41,205.76Zm-73.72-193a10.83,10.83,0,0,0-1.34,1.82c-.77,1.93-1.56,3.85-2.14,5.84-10.47,35.35-8.76,70,7.55,103.21,21.91,44.58,58.38,70.79,106.52,81.38a50.75,50.75,0,0,0,10.6.95c15.16.07,30.33.11,45.49-.1a68,68,0,0,0,15-1.53c44.14-10.74,79.32-34.43,103.31-73.32C350,96.45,355.65,59.14,346.3,19.64c-.73-3.1-1.23-6.39-3.22-8.88C334.62,9.85,56.83,11.66,43.69,12.71ZM332.46,143.88c3.51,0,5.28.14,7,0a68.89,68.89,0,0,0,40.89-18,71.18,71.18,0,0,0,22.37-37.73c4.46-19.49-10.12-34-26.11-35.29-5.28-.43-10.64-.83-15.78,2.47a166.8,166.8,0,0,1-7.46,45.6C348.75,115.75,341.78,129.47,332.46,143.88ZM360.6,44.39c3.72-.5,6.33-1,8.95-1.18,20.42-1.75,36,9.52,41.74,25.32,3.18,8.76,2.52,17.52.07,26.29-8.64,30.92-37.82,55.85-67.57,58.37-6.48.55-13,1-19.49,1.52-2.28,2.71-5.15,4.89-6.28,8.31,2.28,2.4,5.08,2.29,7.7,2.33,16.92.26,33.23-2.54,48.16-10.89a140.57,140.57,0,0,0,33-25.6A72.09,72.09,0,0,0,424.18,99c5.18-17.53,2.63-34.14-6.55-49.76A35.26,35.26,0,0,0,393.8,32a60.46,60.46,0,0,0-24.81-.2c-3.16.64-6.42,1.28-9.2,4.21C360,38.27,360.26,40.85,360.6,44.39ZM12.47,216.6c6.2,5.48,12,6.38,18,6.33,11.89-.11,23.78-.32,35.68-.34q82.11-.08,164.24-.08,55.35,0,110.69-.06a49.75,49.75,0,0,0,15.84-2.11c2.09-.69,4.55-1.31,5.74-4.59-2-.14-3.64-.35-5.26-.35q-66.51.07-133,.21a66.09,66.09,0,0,0-8.86.77c-15.08,2.06-30.16,3.14-45.36,1.16a167.44,167.44,0,0,0-21.3-1.75c-42.84-.06-85.69.11-128.53.23C18.34,216,16.35,216.31,12.47,216.6Z"/><path d="M50,61.63a49.2,49.2,0,0,1,.34-5.08,5,5,0,0,1,4.76-4.46c2.13,0,3.83,2,3.91,5C59.25,67,61.32,76.49,63.68,86a115.44,115.44,0,0,0,16.37,36.3c4.6,6.9,9.67,13.49,14.55,20.2,1,1.44,2.28,2.75,3.2,4.25a4.73,4.73,0,0,1-.6,5.73,4.89,4.89,0,0,1-5.8.37,22.2,22.2,0,0,1-4.53-4.18C78,137.5,69.82,125.9,63.28,113.17,55,97,51.49,79.73,50,61.63Z"/><path d="M254.05,177.84a19.4,19.4,0,0,1-4.11-1.93,4,4,0,0,1,.72-6.69,26,26,0,0,1,4.17-1.45c8-2.35,15.56-5.65,21.71-11.54.63-.61,1.37-1.41,2.13-1.49a7.44,7.44,0,0,1,4.19.34c1.69.95,2,2.91,1.31,4.7a10.76,10.76,0,0,1-2.29,3.72c-7.22,6.89-16,11.11-25.37,14.06A17.54,17.54,0,0,1,254.05,177.84Z"/><path d="M276.42,139.62a18.6,18.6,0,0,1-3.93-2.25c-2.12-1.88-1.45-6.25,1.18-6.59,5.42-.7,9.15-3.58,12.63-7.41.64-.72,3-.64,4,0s1.61,2.27,2.2,3.55c.2.44-.08,1.16-.27,1.71C290.44,133.76,282.34,139.67,276.42,139.62Z"/><path d="M109.19,164.16a10,10,0,0,1,2,.74c3,1.81,6,3.64,9,5.58,2,1.35,2.8,3.51,2,5.26a4.09,4.09,0,0,1-4.28,2.48c-5.71-.49-9.82-3.63-12.7-8.36C103.8,167.54,106.17,164,109.19,164.16Z"/><path d="M296.37,96.33c.35,3.63-4.39,7.28-7.83,6a4.6,4.6,0,0,1-2-1.64c-1.51-2.21-.19-5.23,3.05-7.21a4.39,4.39,0,0,1,6.15,1.28A8.7,8.7,0,0,1,296.37,96.33Z"/></g></g></svg>