<svg xmlns="http://www.w3.org/2000/svg" viewBox="0 0 395.03 299.94"><g id="Layer_2" data-name="Layer 2"><g id="Layer_1-2" data-name="Layer 1"><path d="M301.44,67.37c2,2.87,3.36,4.79,4.72,6.69,12.4,17.23,19.71,36.44,23,57.38a263.54,263.54,0,0,1,.06,80c-3.52,24-12.38,45.86-28.11,64.58-5.91,7.05-12.17,13.8-18.35,20.61a9.77,9.77,0,0,1-8,3.31c-1.78-.07-3.57,0-5.35,0-69.55-1.18-139.09-2.48-208.65-3.38A25,25,0,0,1,42.61,289c-13.37-13-24.17-27.74-31-45.29-13.46-34.73-15.41-70-5-105.81C12.14,119,19,100.62,29.44,83.79c3.12-5.05,6.45-10,9.71-15-.22-.4-.41-1.25-.74-1.31-5.74-1-8.25-4.92-10-10.09C24.18,45,19.62,32.78,15.13,20.49c-.81-2.21-2-4.29-2.91-6.47-2.05-4.92.07-9,5.25-10.07a23.51,23.51,0,0,1,2.66-.29A853.48,853.48,0,0,1,143.05,1.13q56.56,2.91,113.2,3c9.21,0,18.44-.17,27.63-.74a52,52,0,0,1,28.37,6.16c30.13,16.26,54.11,38.56,68.14,70.47a183.71,183.71,0,0,1,12.54,43.59,146.59,146.59,0,0,1-6.67,74.69c-3.41,9.59-7.92,18.62-14.52,26.45a28.07,28.07,0,0,1-5.85,5.36,5.34,5.34,0,0,1-7.78-1.79,78.48,78.48,0,0,1-5.42-14c-.54-2,.33-4.79,1.4-6.77,7.59-14,9.46-29.43,10.11-44.88.61-14.36-2.67-28.37-6.93-42.06-2.68-8.59-7.15-16.24-12.39-23.57-10.26-14.35-24.32-23.31-40.37-29.64C304,67.21,303.42,67.37,301.44,67.37Zm-9,88c-3.06,1.18-5.22,1.95-7.34,2.83-7.12,3-14.17,6.16-21.36,9a202.33,202.33,0,0,1-49.09,12.56c-22.6,2.8-44.52-.64-65.48-9.31-13.16-5.44-26-11.69-38.92-17.72a232.78,232.78,0,0,0-37.44-14.22A96.06,96.06,0,0,0,49.07,135c-11.39-.18-22.51,1.15-33.25,6.58-.77,2.69-1.66,5.5-2.37,8.36A140.79,140.79,0,0,0,10,191.54a145,145,0,0,0,16,59.84c6.11,11.76,14.59,21.65,24,30.83,3.63,3.53,7.66,4.78,12.8,4.81,39.83.3,79.65.91,119.48,1.43,28.82.38,57.65.67,86.48,1.26,5.28.11,9-1.47,12.17-5.65,4.13-5.44,8.78-10.48,13.09-15.79a114.26,114.26,0,0,0,22.94-47.8c5-22.24,5.8-44.78,4.64-67.43a88.63,88.63,0,0,0-1.43-9.12,40.24,40.24,0,0,0-17.47,6.76c0,2-.12,3.75,0,5.52,1,12.61-.92,24.92-4,37.08a65.22,65.22,0,0,1-3.37,9.18c-.4,1-1,2.22-3.63,1.47C291.38,188.39,295.05,172.53,292.44,155.37Zm-273-25.64c.75.43,1,.73,1.25.69a22,22,0,0,0,3.45-.72,81.17,81.17,0,0,1,34.3-3.48c15.26,1.52,29.63,6.22,43.61,12.14,10.39,4.39,20.5,9.46,30.82,14,8.41,3.73,16.83,7.5,25.46,10.67,21.42,7.86,43.35,9.31,65.8,5s43.25-12.69,63.69-22.41a14.13,14.13,0,0,0,2.63-2.12c-.23-6.66-2.7-12.43-4.82-18.27-2.23-6.15-4.66-12.22-6.84-18.38a24.23,24.23,0,0,1-1.07-6.06A2.53,2.53,0,0,1,279,98.85a2.63,2.63,0,0,1,2.39.45,49.76,49.76,0,0,1,5.87,7.76,132.48,132.48,0,0,1,11.63,27c.47,1.63,1.22,3.18,2,5.29,6.17-2.41,12-4.12,17.92-7-3.74-26.52-15.26-48.71-33.09-67.61-1.71-.19-2.88-.44-4.05-.45-22.59-.18-45.18-.73-67.76-.42-50.81.7-101.62,1.82-152.43,2.77-1.78,0-3.57.2-5.35.1-3.67-.21-6,1.5-8,4.47-11.36,16.49-20.77,34-27.19,53C20.35,126,19.92,128,19.44,129.73Zm345.19,87.39c1.47-1.73,2.5-2.74,3.29-3.92a84.46,84.46,0,0,0,9.52-20.09c8-23.33,9.27-47.12,4.81-71.3-3.31-18-9-35.08-18.2-51C350.48,47.39,330.32,31.11,307,18.45a39.1,39.1,0,0,0-25-4.68,48.65,48.65,0,0,1-8,.4c-26.16-.25-52.32-.32-78.47-.91-31.19-.71-62.38-2.08-93.58-2.79a607.87,607.87,0,0,0-73,2.71c-2.48.24-5.31-.34-7.35,2C27.35,29.32,33.07,43.29,39,57.74c2.85,0,5.48,0,8.12,0,8-.12,16-.23,24.07-.4Q130,56,188.85,54.72c1.48,0,3-.14,4.45-.21,31.5-1.4,63-.85,94.51-.22a64.08,64.08,0,0,1,27.38,7q4,2,7.94,4c20.38,10.77,34.26,27.44,42.38,48.69a130.51,130.51,0,0,1,5.29,77.18,75.52,75.52,0,0,1-6.55,18.43C363.11,211.78,362.21,213.92,364.63,217.12Z"/><path d="M117.92,191c1.61.4,5.21.81,8.41,2.18,6.55,2.81,8.17,9.67,4,15.46-6.18,8.67-21.58,9-28,.55-3.63-4.79-3.11-10.23,1.37-14.24C107.22,191.84,110.85,190.64,117.92,191Zm5.94,11.53c-2.27-3.43-5.8-4.63-9.67-4.65a9.42,9.42,0,0,0-4.73,1.83,3.46,3.46,0,0,0,0,5.85,10.34,10.34,0,0,0,7.47,1.77C120,207,122.57,205.88,123.86,202.51Z"/><path d="M179.41,253.06c-4.92-.34-8.69-1-11.88-3.45-5.66-4.38-5.55-11.85.51-15.61a28.1,28.1,0,0,1,15.17-4.27c6.06.05,11.08,4,11.93,8.79.79,4.42-2.19,9.63-7.4,12A56.65,56.65,0,0,1,179.41,253.06Zm-8.18-11c1.2,3.06,3.94,3.2,6.51,3.22,2.94,0,5.91-.49,7.75-3.12a3.07,3.07,0,0,0-.06-2.95c-2.39-2.08-5.43-1.91-8.29-1.44C174.57,238.24,171.93,238.92,171.23,242.1Z"/><path d="M252,208c-6.58-.36-9.8-6.3-6.49-12,2.16-3.74,5.61-6.11,9.35-7.89,3.09-1.46,8.18.24,10.5,3s2.24,7.39-.18,10.73C262.54,205.41,256.55,208.25,252,208Zm7.73-12c-.79-.39-1.7-1.21-2.62-1.24-2.26-.06-3.86,1.44-5,3.19-.53.79-.38,2-.54,3.06,1.11.12,2.4.65,3.29.27a19.07,19.07,0,0,0,4.27-3C259.49,198,259.44,197.17,259.74,196Z"/><path d="M282.94,235.93a29.39,29.39,0,0,1,2.57-17.8,4.17,4.17,0,0,1,3.59-1.76c1.06.24,2.19,1.89,2.55,3.14a6.9,6.9,0,0,1-.27,4.35,101.49,101.49,0,0,1-5.16,10.33C285.78,235,284.39,235.2,282.94,235.93Z"/><path d="M41.71,165.09c-3.1.27-5.09-1.36-6.79-3.33-1-1.13-1.41-2.76.07-3.77.78-.54,2.52-.8,3.06-.32a27.06,27.06,0,0,1,4.29,5.17C42.62,163.25,42,164.31,41.71,165.09Z"/><path d="M39.8,176.88c-.45.34-1,1.12-1.72,1.22a4.17,4.17,0,0,1-4.54-3c-.38-1.2,1-3.15,2.21-3.1A4.53,4.53,0,0,1,39.8,176.88Z"/><path d="M33.52,195.6c-.55,0-1.24.22-1.65,0-3.26-2-4.28-3.7-3.22-5.3a2.07,2.07,0,0,1,1.46-.83c2.26-.05,3.33,1.14,4.18,4.66C34.39,194.51,33.8,195.08,33.52,195.6Z"/></g></g></svg>