<svg xmlns="http://www.w3.org/2000/svg" viewBox="0 0 312.8 493.09"><g id="Layer_2" data-name="Layer 2"><g id="Layer_1-2" data-name="Layer 1"><path d="M202.13,493.09c-5.43-1.85-9.28-3.41-13.26-4.49Q107.15,466.43,25.4,444.39a94.86,94.86,0,0,0-9.58-2,5.16,5.16,0,0,1-4.65-4.65,56,56,0,0,1-.57-7.1c-.79-21.38-1.5-42.76-2.34-64.14-1.47-37.12-3-74.23-4.52-111.35-.9-22.56-1.68-45.13-2.55-67.7C.87,179.09.51,170.78.06,162.47c-.19-3.64-.06-7,2.59-10,1.54-1.74,2.44-4.06,3.54-6.17Q28.29,104,50.36,61.78a52.66,52.66,0,0,0,6.15-23.69c.17-8,.48-16,.79-24.06a62.37,62.37,0,0,1,.6-7.1C58.64,2.1,60.6.31,65.63.06c3.26-.16,6.54,0,9.81.08L170,1.77q45.49.78,91,1.59c10.15.18,11.26,1.27,11.12,11.39-.21,15.15-.38,30.31-1,45.45a39.25,39.25,0,0,0,4,18.84c11.6,24.74,22.81,49.67,34.34,74.45a34.57,34.57,0,0,1,3.3,16.3c-.69,21.09-.83,42.19-1.28,63.29q-1.51,71.75-3.12,143.5c-.32,14.85-.7,29.71-1,44.56a24.75,24.75,0,0,0,.34,5.31c.73,3.5-.84,5.7-3.65,7.36q-5.76,3.4-11.52,6.79-41.18,24.11-82.36,48.18C207.39,490.41,204.47,491.84,202.13,493.09Zm-4.55-12.45c.32-2.53.57-3.68.6-4.83.25-10.69.55-21.38.7-32.07q1.08-78,2.09-155.94.54-42.78.9-85.55c0-2.59.76-5.4-2-7.94l-187.46-32a1.57,1.57,0,0,0-.87.17,3,3,0,0,0-.63.5c-.86,7.95,9.08,260.58,10.71,270.11C79.79,448.89,138.2,464.74,197.58,480.64Zm99.62-54.31c.14-2.2.28-3.65.32-5.11q.69-29.84,1.34-59.68,1.25-60.12,2.43-120.24c.44-21.08,1-42.16,1.44-63.24.06-2.83.62-5.77-.67-8.45-11.17,1.7-83.79,21.79-89.71,24.84-.11,2.43-.32,5.07-.35,7.71q-.9,63.24-1.74,126.49-.51,37-1,73.94-.48,35.19-.9,70.37c0,1.32-.56,3,1.94,4.16C239,460.59,267.8,443.58,297.2,426.33ZM15.06,152c20.59,4.8,179.31,31.67,187.8,31.77q25.9-54.21,52-108.95a18.21,18.21,0,0,0,.87-3.28c-6-2-183.55-13.94-192-13.75-15.69,29.57-31.23,59.61-46.88,89.58C16.23,148.61,15.83,150,15.06,152ZM262.11,14.08c-3.28-.28-5.31-.55-7.35-.6-13.08-.35-26.16-.74-39.25-1-25-.42-50-.7-74.95-1.09-21.71-.34-43.42-.79-65.13-1.1-2.56,0-5.37-.87-7.55,1.3C66,27.37,65.75,41.22,67.44,47.31l14.85,1.06q32,2.31,64.06,4.63,34.26,2.45,68.53,4.82,20.48,1.41,41,2.63a33.17,33.17,0,0,0,5.46-.62C262,44.51,261.73,29.74,262.11,14.08Zm2.76,66.38c-1.3.93-2,1.16-2.22,1.62q-23.1,48.14-46.1,96.31a13.33,13.33,0,0,0-.57,2.85,19.44,19.44,0,0,0,3.68-.22q38.66-10.5,77.26-21.11c1-.29,1.94-1.11,3.5-2C288.59,132,277,106.42,264.87,80.46Z"/><path d="M73.59,264.31a29.1,29.1,0,0,0-2.8,2.36c-1.39,1.54-2.58,3.26-4,4.77-5,5.39-8.57,5-12.69-1.11-1.57-2.34-2.45-5.28-5.72-7.33-.9,4.11-.23,7.53,0,10.92.14,2.37.61,4.72.65,7.08.06,3.22-1.74,5.47-4.33,5.83s-4.92-1.53-5.51-4.64a28.35,28.35,0,0,1-.37-4.42q-.49-15.11-.91-30.2a12.07,12.07,0,0,1,.33-3.5c1-3.57,5.19-4.85,7.67-2.16a94,94,0,0,1,6.52,8.42c2.77,3.81,5.43,7.7,8.5,12.06a129.65,129.65,0,0,0,11.38-13.2c1.26-1.64,2.32-3.46,3.71-5a4.86,4.86,0,0,1,8.5,1.75,12.3,12.3,0,0,1,.65,4.34c-.46,12.43-1,24.86-1.53,37.29a11.44,11.44,0,0,1-.22,1.76c-.54,2.66-2.4,4.4-4.75,4.47-2.55.09-4.69-2.11-4.66-5.38,0-5.63.47-11.25.57-16.88C74.59,269.35,75.24,267,73.59,264.31Z"/><path d="M146.17,262.69c2.59.53,3.8-1,5.17-2,4-3,8-6.15,12.08-9.14a21.67,21.67,0,0,1,4.61-2.62,4.56,4.56,0,0,1,5.34,2.11A4,4,0,0,1,173,256a33.18,33.18,0,0,1-4.6,4.17c-5.15,4-10.38,8-15.54,12-1.37,1.07-2.59,2.32-3.76,3.37.14,3.43,2.7,4.85,4.29,6.88,4.2,5.37,8.48,10.69,12.6,16.12a17.87,17.87,0,0,1,2.38,4.74c.69,1.91-.22,3.54-1.72,4.66a4.21,4.21,0,0,1-5,.31,12.81,12.81,0,0,1-3.1-3.09c-1.93-2.64-3.61-5.46-5.56-8.07s-3.85-5.23-6.51-6.87c-2.21.74-1.92,2.39-2.12,3.78-.38,2.64-.48,5.34-1.09,7.92-.76,3.22-3.26,4.88-5.78,4.27-2.28-.55-3.77-2.59-3.84-5.34,0-.88.08-1.77.14-2.66q1.55-21.76,3.08-43.54a32.1,32.1,0,0,1,.31-3.54,4.2,4.2,0,0,1,4.42-3.53,4,4,0,0,1,3.77,3.23,34.57,34.57,0,0,1,.46,5.3C145.94,258.31,146.05,260.57,146.17,262.69Z"/><path d="M117.79,293.14a55.16,55.16,0,0,1,6.25,3.12c1.53,1,2.53,2.91,1.55,4.64-.79,1.4-2.33,3.13-3.72,3.3a16,16,0,0,1-13-4.39c-1.15-1.05-1.59-3.11-1.88-4.79a25,25,0,0,1,0-5.33c.49-9.78,1-19.57,1.55-29.35a45.83,45.83,0,0,1,1.2-7.9c.81-3.42,2.91-5,5.5-4.62s3.92,2.58,3.34,6.2c-2,12.39-1.12,24.88-1.28,37.32A7.68,7.68,0,0,0,117.79,293.14Z"/><path d="M91.78,272c0-5.92-.08-11.84,0-17.75a15.72,15.72,0,0,1,1.07-6c.48-1,2.29-1.84,3.59-2a3.84,3.84,0,0,1,2.86,1.66,8,8,0,0,1,1.37,4.09c.11,11.84.17,23.67,0,35.51a28.81,28.81,0,0,1-1.59,7.77c-.59,2-3,2.93-5.11,2.49a4,4,0,0,1-3.43-3.58,31.25,31.25,0,0,1,0-5.3c.26-5.62.57-11.23.85-16.85Z"/><path d="M288.56,396.07a12.8,12.8,0,0,1-.51,3.16c-2.25,4.46-4.46,9-7,13.26a6.4,6.4,0,0,1-6,3.11c-2.88-.1-5.08-3.26-3.67-5.65,3.14-5.31,6.37-10.56,9.83-15.66a4.27,4.27,0,0,1,3.83-1.25C286.48,393.53,287.54,395.13,288.56,396.07Z"/><path d="M280,362c2.61,0,5.2,2.27,4.69,4a83.21,83.21,0,0,1-4.29,11.47c-.9,1.95-3.63,2.41-5.45,1.54a4.26,4.26,0,0,1-2.14-5.25,57,57,0,0,1,3.74-9C277.26,363.43,279.09,362.66,280,362Z"/><path d="M283.48,328.48c-.17,3.56-1.14,6-3.38,7.71a3.87,3.87,0,0,1-5,.08c-.94-.83-1.83-2.67-1.55-3.76a16.79,16.79,0,0,1,3-6.2,4.23,4.23,0,0,1,3.9-1C281.9,325.92,282.76,327.65,283.48,328.48Z"/><path d="M220.44,110.53c.19,3.53-1.11,5.54-3.05,6.22a4.22,4.22,0,0,1-5.1-2.47,124.26,124.26,0,0,1-3.45-12.75c-.45-2,1.4-4.12,3.44-4.44a3.81,3.81,0,0,1,4.4,2.19C218.26,103.38,219.49,107.62,220.44,110.53Z"/><path d="M190.29,123.78c-.07-4.45.87-6.19,3-6.62,2.62-.52,5,1.14,5.57,4.38a28.43,28.43,0,0,1,.16,7.87,3.9,3.9,0,0,1-3.81,3.18,3.76,3.76,0,0,1-4-2.81A43,43,0,0,1,190.29,123.78Z"/></g></g></svg>