<svg xmlns="http://www.w3.org/2000/svg" viewBox="0 0 330.46 425.73"><g id="Layer_2" data-name="Layer 2"><g id="Layer_1-2" data-name="Layer 1"><path d="M111.56,241.29a101.9,101.9,0,0,0,.17-21.84c-.73-.63-1-1-1.16-1-7.28.08-10.87-3.83-13.44-10.46-6.35-16.35-13.5-32.38-20.2-48.59a17.12,17.12,0,0,0-6.54-8c-21.08-14.5-41.19-30.3-60.95-46.53a47.45,47.45,0,0,1-8-8.34c-3-4-1.23-8.35,3.66-9.6A32.37,32.37,0,0,1,13,86.09c9.22,0,18.43.13,27.65.21,1.45,0,2.91,0,4.48,0,1.61-2.91-.15-5.41-.21-7.93-.09-3.7,1.18-5.89,4.94-6.1,6.18-.36,11.3-3.22,16.64-5.76C80.23,60,94,53.66,107.67,47.15c9-4.27,18.29-7,28.31-7a63.43,63.43,0,0,0,7.21-.87c0-2.43,0-4.46,0-6.48A52.75,52.75,0,0,1,147.31,12c2.05-4.84,5.24-8.59,10.2-10.67,6.3-2.65,12.7-1.23,16.65,4.36a32.43,32.43,0,0,1,4.52,9.59,133.86,133.86,0,0,1,2.69,14c.46,2.61.76,5.25,1.19,8.26a44.35,44.35,0,0,0,5.28.73c4.16.07,8.33-.22,12.48,0A30.37,30.37,0,0,1,209,39.62c9.22,3.32,18.42,6.72,27.41,10.59,11.19,4.8,22.17,10.1,33.25,15.18,3.51,1.61,7,2.93,11,3,6.7.18,11.52,4.42,15.79,9.08a117.6,117.6,0,0,1,22.28,35.26,149.26,149.26,0,0,1,10.28,44.13c1.41,16.32,2.09,32.66.33,49-1.65,15.41-4.06,30.65-8.88,45.43A92,92,0,0,1,303.6,282.5a64,64,0,0,1-11.9,10.62c-4.87,3.45-9.49,1.26-10.26-4.77-.94-7.36-1.46-14.8-1.7-22.22a10.88,10.88,0,0,1,2.31-6.52c10.22-12.83,14.29-28.05,16.37-43.75a392.55,392.55,0,0,0,3.83-56.94c-.18-13-2.55-25.38-8.45-37a46.9,46.9,0,0,0-17.43-19.26c-1.28,2.65-2.63,5.2-3.79,7.83q-20.58,46.5-41.11,93c-.72,1.63-1.5,3.24-2.16,4.9-2.32,5.85-4.9,11.33-13.06,8.92-1.87,8.58.08,16,.52,23.73a25.68,25.68,0,0,0,3.87.81c4.13.19,6.42,2.55,7.84,6.18,2.06,5.26,4.39,10.42,6.32,15.72,16,43.84,31.87,87.73,48,131.52,2.63,7.12,1.08,14,.63,21-.21,3.3-2.65,5.26-6,5.57-4.44.4-8.89.77-13.34.95-25,1-49.89,2-74.85,2.78-12.17.36-24.36.17-36.55.1q-45-.25-90.07-.64c-6.24,0-12.49.15-18.72-.07-6.4-.23-8.31-2.24-9.09-8.58a38.6,38.6,0,0,1,2.54-20c17.85-43.77,35.35-87.68,53.06-131.5C92.88,258.76,96,253,98.51,247c1.34-3.23,3.56-4.51,6.79-4.79C107.31,242,109.31,241.61,111.56,241.29ZM95.88,397.57c8.05,1.27,57.49.93,65.26-.54.14-1.85.41-3.85.42-5.85q.21-66.89.32-133.77a34.51,34.51,0,0,0-.77-5.19H141Q118.31,323.85,95.77,395A7.54,7.54,0,0,0,95.88,397.57Zm138.34-1.24C229,379.84,224,364,219.09,348.16q-7.58-24.21-15.07-48.45c-4.88-15.79-9.72-31.59-14.63-47.52-6.32-.3-12.14-.58-18.43.2-.13,2.86-.33,5.16-.32,7.46.05,14.25.19,28.51.21,42.76,0,28.8,0,57.6,0,86.4,0,2.85-1,5.94,1.36,8.6q29.31,0,58.63,0C231.66,397.57,232.45,397,234.22,396.33ZM133.41,207.43c9.42,1.56,22.55,1.1,28.73-1.06q-.34-63.27-.7-126.94a11.32,11.32,0,0,0-2.75-.8q-29.81.14-59.61.35a1.38,1.38,0,0,0-.82.33,2.32,2.32,0,0,0-.37.79Q115.68,143.84,133.41,207.43Zm36.2-127.85,2.65,124.65c.24.82.48,1.65.69,2.39a38,38,0,0,0,18.59-.11q15.84-62.91,31.71-126a1.55,1.55,0,0,0-.11-.87,6.6,6.6,0,0,0-.8-1.05,35.48,35.48,0,0,0-4-.34q-23.61.21-47.21.54C170.63,78.78,170.12,79.3,169.61,79.58Zm-64.27,172.5C101,263.39,97,274.23,92.7,285q-21,53-42.12,105.87c-.94,2.36-2.61,4.61-1.69,7.38,7.58.84,28.76.57,35.73-.47.54-1.25,1.24-2.57,1.69-4q22.16-68.15,44.21-136.31a32.09,32.09,0,0,0,.73-5.41ZM231.67,78.78c-.66,2.51-1.32,4.76-1.85,7-2.26,9.84-4.41,19.71-6.75,29.52-6.7,28-13.52,56-20.17,84-.57,2.41-1.91,4.9-.85,7.85h16.66Q247.3,143.56,275.8,80.11a10,10,0,0,0-1.45-1.58,3.26,3.26,0,0,0-1.66-.56q-18.26,0-36.51.14A33.77,33.77,0,0,0,231.67,78.78ZM198.48,252.67c5.54,16.51,10.76,32.54,15.85,48.6,5,15.85,10,31.72,15.11,47.54,5.2,16,9.92,32.23,15.62,48.6,4.81,0,9.23.25,13.63.06s8.83.93,13.37-1.45c-17.14-48-34.2-95.71-51.32-143.64C213.42,251.86,206.45,251.5,198.48,252.67Zm-75.19-45c-11-42.93-23.31-85.33-33.18-128.4-6.14-1.37-12.09-.8-18-.72-6.05.08-12.18-1.32-18.63.28,18.56,43.68,36.85,86.75,55.16,129.86C113.54,208.86,117.91,209.25,123.29,207.66Zm125.23-140a210.12,210.12,0,0,0-43-19.18,26.1,26.1,0,0,0-7.91-.81c-6.53,0-13.05.28-19.57.47q-23.56.7-47.13,1.43a35.22,35.22,0,0,0-13.77,3.13c-10.79,4.92-21.6,9.78-32.39,14.69-1,.47-2.16,1-1.34,3.13C138.25,69.39,193.34,69.88,248.52,67.61ZM206.33,241.17c-1-8.22.44-15.57-1.54-22.81a32.08,32.08,0,0,0-3.9-.48q-38.23.3-76.46.66a2,2,0,0,0-.79.34c-.25.16-.46.37-1.1.88-.46,6.94-.9,14.18.7,22,25.5.12,50.66,0,75.82,0C201.07,241.78,203.09,241.45,206.33,241.17ZM280.85,91.8c1.55,1.3,2.43,2.07,3.35,2.8,17.13,13.55,25.7,31.67,27.44,53.06,2.08,25.64-.2,51.15-4.2,76.45-2.15,13.58-6.42,26.69-14.6,38-4.09,5.66-2.7,10.93-1.08,16.74,3.67-1.07,4.95-3.94,6.64-6.27a93.42,93.42,0,0,0,14.73-32.26,232.8,232.8,0,0,0,3.26-100,116.29,116.29,0,0,0-25.87-55.09c-1.3-1.54-2.83-2.89-4.68-4.77C283.36,84.15,282.35,87.76,280.85,91.8Zm-8.32,320c1.11-2.09.42-3.68-1.11-3.91a57.07,57.07,0,0,0-8.88-.35q-98.52.56-197,1.15c-6.24,0-12.48-.1-18.72-.06a9.17,9.17,0,0,0-2.67,1c.19,1.73.37,3.4.58,5.35,5.34,1.15,10.37.62,15.36.61,23.77,0,47.55-.36,71.31,0,25.86.36,51.7.95,77.55-.39,19.58-1,39.18-1.78,58.77-2.69A46.74,46.74,0,0,0,272.53,411.79ZM64.84,133.69c-.53-5.16-2.62-9.38-4.39-13.7-1.69-4.12-3.33-8.25-5.11-12.33-1.85-4.25-2.94-8.9-5.33-12-11.41,0-21.78,0-32.15,0-.46,0-.91.61-1.74,1.21a14.74,14.74,0,0,0,2.09,2.5C33.42,111.2,48.23,123.51,64.84,133.69ZM172.25,38.28a80.77,80.77,0,0,0-3.77-23.71,11.19,11.19,0,0,0-1.19-2.37c-2-3.26-5.37-4-8.21-1.57a12,12,0,0,0-3.26,4.09c-3.26,7.64-5.16,15.55-4.36,24.41A55.19,55.19,0,0,0,172.25,38.28Z"/></g></g></svg>