<svg xmlns="http://www.w3.org/2000/svg" viewBox="0 0 400.76 419.4"><g id="Layer_2" data-name="Layer 2"><g id="Layer_1-2" data-name="Layer 1"><path d="M320,153.7c8.08,5.37,15.4,9.94,22.4,14.94,22.51,16.08,37.91,37.36,46.43,63.74,8.77,27.14,13.49,54.79,11.55,83.42A293.76,293.76,0,0,1,394,359c-2.94,13.41-10.1,24.71-18.2,35.43A96.3,96.3,0,0,1,359.42,412c-4.35,3.49-8.94,5.65-14.57,5.81-16.63.5-33.26,1.69-49.89,1.59-28.23-.17-56.46-1-84.68-1.81q-27.18-.79-54.32-2.52c-9.76-.62-19.48-2.15-29.2-3.35a27.36,27.36,0,0,1-15.69-7.82,70.2,70.2,0,0,1-13.24-16.72,127.78,127.78,0,0,1-11.69-26.94c-.66-2.28-1.48-4.5-2.33-7.07C65.09,343.8,54,327.67,45.6,309.05c-6.9-15.3-10.8-31.45-14.55-47.68-1.21-5.21-2.22-10.47-3.65-15.62C24.15,234,18.16,223.85,8.18,216.5A13.25,13.25,0,0,1,2.46,206c-.37-5.32-1.21-10.61-2.11-15.87-1.15-6.71.33-8.6,7.27-8.58a48,48,0,0,1,21.52,5,53.81,53.81,0,0,1,20.73,17.83c5.58,8.13,9.78,17,13.66,26,3,7.09,6.16,14.18,9.59,21.1A43.3,43.3,0,0,0,89,268.76,60.66,60.66,0,0,0,91.59,263a215.09,215.09,0,0,1,32.57-62.12c11.53-15.36,24.73-28.89,41.19-39,1.25-.77,2.37-1.75,4-3,0-3,.24-6.25.08-9.47-1.12-22-.24-44,.84-66A189.83,189.83,0,0,1,173.56,56a77,77,0,0,1,20-38.23C203.8,6.78,216.32.76,231.3.1a91.85,91.85,0,0,1,54.31,14.21,55.73,55.73,0,0,1,20.51,23,132.84,132.84,0,0,1,11.79,38.2,270.32,270.32,0,0,1,2.71,64.92C320.25,144.85,320.16,149.3,320,153.7ZM121.27,402.9c7.19.34,13.69.59,20.19,1,4.44.25,8.87.82,13.32,1,19.29.86,38.58,1.55,57.87,2.44,39.8,1.84,79.61,2.05,119.43.93,4.44-.12,8.89-.6,13.31-1.13,1.71-.21,3.74-.57,5-1.62a136.67,136.67,0,0,0,11.55-11c2.79-3,4.87-6.69,7.51-9.87,7-8.36,12.3-17.63,14.42-28.32,2.24-11.36,4.26-22.81,5.49-34.32,3.39-31.64-1.75-62.26-12.5-92-4.78-13.23-11.65-25.33-21.34-35.41a33,33,0,0,0-5.71-.38,41.39,41.39,0,0,0-6,1.47c-28.91,7.67-58.18,11.76-88.18,9.68-16.9-1.17-33.86-1.37-50.75-2.62-20.68-1.52-41.58-1.71-61.22-8.44a8.74,8.74,0,0,0-1.93,1c-1.43,1.51-2.84,3.05-4.15,4.66A205.49,205.49,0,0,0,98.66,273.6c-4.27,14.9-7.66,30-8.51,45.49-1.36,24.5,5.65,47,17.87,68A57,57,0,0,0,121.27,402.9ZM177.5,154.23c3.21-1.33,5.33-2.27,7.49-3.1,8.3-3.2,16.46-6.87,25-9.4a106.43,106.43,0,0,1,22.65-4.36,167.31,167.31,0,0,1,64.12,8c3.91,1.28,7.85,2.48,12.42,3.91.45-3,1-5.58,1.19-8.17,1.12-18.72,1.18-37.43-1.37-56.06-2-14.46-4.92-28.65-11.36-42a49.09,49.09,0,0,0-19.38-21.49C264.33,13.31,249.29,9.72,233.14,10c-13.32.2-24.12,5.34-33,15a71,71,0,0,0-10.69,15.28,79.8,79.8,0,0,0-8.65,32.48c-1,17.5-1.84,35-2.58,52.53C177.81,134.45,177.75,143.65,177.5,154.23Zm165.64,30.54c-.29-3.72-2.79-4.6-4.53-6-19.21-15.41-41.36-24.25-65.33-28.76-26.21-4.93-51.94-4-76.78,7-13.34,5.93-26.17,12.67-37.7,21.7-2.74,2.15-5.61,4.25-7.74,7.66a19.63,19.63,0,0,0,8.75,2.5c14.18,1.25,28.35,2.7,42.55,3.57,17.18,1.05,34.41,1.29,51.58,2.45a230.74,230.74,0,0,0,40.89-.55A274.11,274.11,0,0,0,343.14,184.77Zm-256.63,94A22.53,22.53,0,0,0,84.25,277c-11.61-7.11-19-17.63-24.33-29.87-2.6-6-4.91-12.11-7.82-17.94a188.08,188.08,0,0,0-10.81-19.39C35.72,201.3,27.56,196,17.89,193c-1.9-.58-4-1.25-6.36.66.47,4.32,1,9,1.44,13.16a11.75,11.75,0,0,0,1.45,1.74c12.81,9.84,20.25,23,23.87,38.53,1.15,4.91,2.24,9.83,3.34,14.75,3.92,17.4,8.69,34.51,17.13,50.38,4.63,8.71,9.91,16.89,17.55,23.31,1.08.9,2.14,2.16,3.87,1.34.4-9.73.28-19.5,1.33-29.14S84.78,288.56,86.51,278.81Z"/><path d="M119.85,307.85c2.34-26.43,6.12-51.29,18.68-73.92a57.76,57.76,0,0,1,6.14-8.63,2.6,2.6,0,0,1,4.41,2.45,42.66,42.66,0,0,1-2.73,8.44c-9.34,19.88-13.59,41-16.12,62.67-1,8.71,0,17.19,1.12,25.73.35,2.64.77,5.28.88,7.94.12,3-1,4.78-2.72,4.89-2.12.14-3.32-1.24-4-2.94-1.29-3.3-2.78-6.62-3.43-10.07C121,318.6,120.48,312.67,119.85,307.85Z"/><path d="M141.69,361.48c-.14,2.51,0,3.2-.24,3.67-.52,1-1.11,2.27-2,2.55a3.6,3.6,0,0,1-3.08-.85,12.64,12.64,0,0,1-3.52-11.35c.17-1,1.3-2.41,2.07-2.47a5,5,0,0,1,3.8,1.3C140.83,356.9,141.8,360,141.69,361.48Z"/><path d="M375.24,292.72c-.46.35-1.14,1.29-1.72,1.23-4-.42-7.25-2.16-8.94-6-1-2.29,1.18-4.85,3.71-4.47C371.82,284,375.47,288.68,375.24,292.72Z"/><path d="M365.47,317.26a8.63,8.63,0,0,1-7.44-6.34,3.61,3.61,0,0,1,.92-3.05,3.71,3.71,0,0,1,3.13-.74C366,308.47,367.1,312,365.47,317.26Z"/><path d="M355,344.08c-3.08-1.28-4.65-2.78-3.52-5.57a2.43,2.43,0,0,1,2.19-.86C356.41,338.92,356.3,341.11,355,344.08Z"/></g></g></svg>