<svg xmlns="http://www.w3.org/2000/svg" viewBox="0 0 269.78 349.22"><g id="Layer_2" data-name="Layer 2"><g id="Layer_1-2" data-name="Layer 1"><path d="M269.78.66c-.19,5.29-2.63,9-5,12.69q-15.08,23.7-30.21,47.35c-4.64,7.26-9.3,14.51-13.9,21.79-1.07,1.7-1.93,3.53-3.18,5.82,2.69,1.26,5.05.89,7.29.94,4.16.1,8.33,0,12.49.15,6,.27,8.36,3.22,7.68,9.32-.4,3.54-1,7.07-1.48,10.59q-7.86,52.89-15.73,105.76Q221,260,214.25,304.94c-1.45,9.7-2.81,19.4-4.23,29.1-.3,2.06-.59,4.12-1,6.16-1.38,7-2.08,7.59-9.51,7.64q-56.22.35-112.44.64c-4.43,0-8.86.68-13.3.74-2.91,0-5.84-.49-9.27-.81-1.3-6.08-2.57-11.82-3.74-17.58Q37.48,216,14.23,101.2A35.89,35.89,0,0,1,13.39,95c-.11-4.65,2.23-7.32,6.85-7.48,5.65-.19,11.31,0,17,0h9.53c1.18-3.64-1.23-5.53-2.52-7.68Q24.47,47,4.56,14.25a77.42,77.42,0,0,1-4-7C-1,3.85.83.62,4.63.21A67.68,67.68,0,0,1,11.76,0Q136.68.08,261.61.17C264.2.18,266.79.47,269.78.66ZM210.18,99c-2,3-3.72,5.73-5.47,8.46q-32.39,50.7-64.78,101.4a74.28,74.28,0,0,1-5.07,7.31,4.8,4.8,0,0,1-7.71-.08,75.73,75.73,0,0,1-4.86-7.46Q91.81,158.36,61.36,108c-2-3.28-4.1-6.49-6-9.45-8.45-1.4-24.12-1.51-30.57-.27a8,8,0,0,0-.35,2.54Q41.21,183.8,58.05,266.72c.28,1.39.8,2.74,1.22,4.15a22.3,22.3,0,0,0,3.88,0,58.58,58.58,0,0,1,23.92.13q13.94,3,27.74,6.54c11.87,3,23.86,5.19,36.14,4.22,20.63-1.62,40.41-6.39,59.24-16.83,8.08-54.46,16.38-109.28,24.5-165.36C226.39,99,218.8,98.9,210.18,99Zm-6.13-10.13a25,25,0,0,0,2.44-2.79q23-36,46-72.09c.53-.82.45-2,.76-3.62-3.84-.11-7.07-.28-10.3-.28L26.28,9.65c-2.37,0-4.75,0-7.13,0-1.41,0-3-.29-3.87,1.38,2.23,5.81,39.35,67.73,45.92,76.51l106.61,1.06c1.26-2.2,2.39-3.92,3.27-5.76,2.95-6.16,5.76-12.38,8.74-18.53,4.27-8.81,8.55-17.62,13.05-26.32A29.87,29.87,0,0,1,198.13,31a3.83,3.83,0,0,1,5-.08c1.68,1.17,1.9,2.89,1.36,4.74a12.3,12.3,0,0,1-.74,1.61Q192.86,60.18,182,83.1c-.7,1.5-2,3.06-.59,5.36C188.78,89.39,196.41,89.16,204.05,88.91ZM68,98.41a33.81,33.81,0,0,0,1.61,4q30.38,50.22,60.71,100.3c.85-.25,1.21-.25,1.41-.43a10.06,10.06,0,0,0,1.83-1.86q31.55-49.56,63.05-99.16a1.42,1.42,0,0,0,.19-.86,4.83,4.83,0,0,0-.49-1A9,9,0,0,0,194,98.8c-6.23,0-12.45,0-19.11,0-1.84,3.32-3.52,6.78-5.59,10a51.74,51.74,0,0,1-6,7.59c-1.3,1.36-3.22,1.28-4.9.1a3.84,3.84,0,0,1-1.59-4.68c1.07-2.75,2.7-5.27,3.92-8a48.44,48.44,0,0,0,1.67-5.4Z"/><path d="M195.43,237.2c2.93-.25,5.39,2.37,4.37,4.56-2.64,5.67-6,10.89-11.22,14.6a3.45,3.45,0,0,1-4.83-.64c-.8-1-1.67-3.18-1.17-3.89,3.38-4.8,7.07-9.39,10.79-14C193.83,237.31,195,237.33,195.43,237.2Z"/><path d="M202.11,202c0,3.34-3.4,7.48-6.92,8.39-2.24.58-5.13-1.8-4.69-4.06a10.87,10.87,0,0,1,6.5-7.9C199,197.47,202.1,199.76,202.11,202Z"/><path d="M152.24,139.39a7.17,7.17,0,0,1-.19,1.75A42.15,42.15,0,0,1,144.28,155a8.54,8.54,0,0,1-2.87,2,4.28,4.28,0,0,1-5-.68,3.7,3.7,0,0,1-.61-4.87c2.73-4.58,5.59-9.08,8.47-13.57a6.21,6.21,0,0,1,2-1.74C148.55,134.76,152.19,136.75,152.24,139.39Z"/></g></g></svg>