<svg xmlns="http://www.w3.org/2000/svg" viewBox="0 0 284.49 444.27"><g id="Layer_2" data-name="Layer 2"><g id="Layer_1-2" data-name="Layer 1"><path d="M204.73,105c5.21,0,10.54.22,15.86,0,4.31-.13,7,1.6,9.56,5.15,4.83,6.74,10.35,13,15.93,19.87,8.77,0,17.66,0,26.56,0a58.22,58.22,0,0,1,7.12.24c3.34.44,5.4,3.2,4.53,6.37-2.2,8-4.63,16-7,23.94-.88,2.91-3.11,4.28-6,4.43s-6,.12-8.93.12c-5.32,0-10.64,0-16.24,0-3,7.45-2.82,15-3.8,22.19-.94,7-2.85,14-2.1,21.19,2.65,2.28,5.76,1.35,8.62,1.58,6.27.53,8,2.53,6.7,8.53-2.74,12.48-5.64,24.92-8.49,37.37s-5.73,24.9-8.62,37.34c-2,8.7-3.19,9.68-11.86,10.17-1.17.07-2.33.19-3.91.32a45.63,45.63,0,0,0-1.92,5.75c-6.55,33.84-13,67.69-19.57,101.52a35.3,35.3,0,0,0,.24,15.84,27.26,27.26,0,0,1,1,7,6.37,6.37,0,0,1-5.44,6.16,11.67,11.67,0,0,1-1.77.18c-35,2-70.05,4.81-105.19,3.72a53.25,53.25,0,0,1-8-.57c-4.81-.91-7.22-3.38-6.42-8,2.22-12.78-1.85-24.79-4-37-4.88-28.1-10.24-56.11-15.42-84.16-.54-2.91-1.22-5.79-1.8-8.51-3-1.95-6-1.14-8.93-1.2-5.52-.11-6.48-.88-7.71-6.44-.26-1.16-.49-2.33-.66-3.5q-4.72-33.54-9.46-67.08c-.41-2.94-1.21-5.82-1.64-8.75-.62-4.3,1.48-6.69,5.92-6.93,1.75-.09,3.51-.1,5.27-.2.25,0,.49-.32,1.25-.84C35.52,196,32.2,181,28.77,166.46c-3.07-2.35-6.15-1.45-9-1.63-1.78-.12-3.57-.06-5.35,0-6.45.08-9.57-.63-10.52-8.85-.64-5.58-2.45-11-3.54-16.55-1.2-6,1-8.87,7.34-9.24,3.55-.21,7.13-.06,10.71-.07s7.09,0,10.83,0c1.33-2.3,2.56-4.3,3.66-6.36,2.8-5.25,5.76-10.42,8.23-15.82,1.78-3.89,4.45-5.29,8.49-4.71a21.76,21.76,0,0,0,2.68.07l106.22,1.25c2.95,0,5.9,0,9.07,0,1.57-2.5,3.17-4.64,4.34-7,9.55-19.19,20.79-37.4,31.74-55.79,6.53-11,12.81-22.12,19.22-33.18,1-1.8,2-3.65,3.22-5.34C228,.54,230.64-.66,233.85.36c5.94,1.91,11.91,3.78,17.69,6.11,5,2,5.82,5.15,2.9,10-7.2,12-14.26,24-21.92,35.71a392.41,392.41,0,0,0-25.8,44.76,59.93,59.93,0,0,0-2.35,5.76C204.2,103.17,204.53,103.82,204.73,105ZM228,293.31c1.31-5.57,2.53-10.73,3.73-15.9,3.82-16.47,7.67-32.94,11.4-49.43.55-2.46,1.86-5.09-.36-8-2.64-.19-5.57-.45-8.51-.58-11.87-.54-23.75-1-35.62-1.58-3.22-.15-6.42-.6-9.19-.86-2.35-2.82-4.17-5.17-6.17-7.36-16.19-17.79-39.92-21.59-60.78-9.77A56.06,56.06,0,0,0,104,216.25c-2.74,3.92-5.9,5.15-10.43,5.17-15.45.08-30.9.42-46.35.77-3.19.08-6.54-.54-9.54,1.15.34,10.59,8.09,63.6,10.38,70.55,2.19.12,4.53.36,6.87.38,10.4.1,20.8.14,31.2.19,8.44,0,9.32.07,14.22,7.65,16.19,25.09,45.38,28.67,67.09,15.23a68.26,68.26,0,0,0,17.6-16.21c2.17-2.75,2.64-7.3,6.36-8.21s7.65-.46,11.5-.37c4.75.12,9.49.57,14.24.74C220.4,293.41,223.65,293.31,228,293.31ZM85.44,418.86c17.72.61,34.85-1.15,52-1.49,17.48-.34,34.95-1,52.17-2.15,2.79-8.62,21-104.79,21.23-112-4.93-.25-9.83-1.15-14.47-.17-3.77,4.38-7,8.64-10.78,12.43-11,11.16-24.34,18.17-40.06,19.31-20.85,1.52-37.52-7-50.62-22.93-1.87-2.27-3.6-4.67-5.55-7.2-8,.14-16-.7-24,.56a29,29,0,0,0,0,4.69C72,346,78.66,382.16,85.44,418.86ZM49.18,211.68c14.78,0,28.44,0,42.11,0,3.08,0,4.89-1.65,6.64-3.8a68.39,68.39,0,0,1,22.74-18.35c13.9-6.91,28.4-8.46,43.32-4a56.76,56.76,0,0,1,27.19,17.94,12.12,12.12,0,0,0,9.95,4.72c7.44,0,14.87.42,22.31.58,1.72,0,3.45-.22,5.2-.35,2.43-7.22,2.49-14.39,3.46-21.39s2.39-13.88,2.38-21.17c-4-1.25-7.59-.84-11.09-.85Q144,165,64.51,164.89c-6.55,0-13.09-.07-19.64,0a41.71,41.71,0,0,0-5.7.91C42.29,181.38,45.39,196.44,49.18,211.68ZM14.23,154.44c2.59.16,4.93.42,7.26.43q120,.1,240,.16c2.3,0,4.59-.35,6.74-.52A45.3,45.3,0,0,0,272,141.24a9.14,9.14,0,0,0-2.63-.94q-127.11-.06-254.22,0a15.69,15.69,0,0,0-3.4.77C11.18,145.88,12.82,150,14.23,154.44Zm208.18-38.86c-2-.18-3.76-.45-5.52-.47q-80.74-.94-161.48-1.79c-2.31,0-4.64.35-6.88.54-2.89,5.22-6,9.85-6.93,16.21,3.44,0,6.38,0,9.32,0H223.11c1.79,0,3.57,0,5.36,0,1.39-.05,3.05.31,3.63-2.07C229,124,225.7,119.78,222.41,115.58ZM244.27,14.34l-10.2-3.47c-3.08,3.8-48.54,80.26-52.94,89-.63,1.24-1,2.62-1.8,4.72,4.51.19,8.25.57,12.43-.24,1.7-3.26,3.56-6.62,5.25-10.06a359.11,359.11,0,0,1,21.61-38.83C227.2,42.29,235.27,28.81,244.27,14.34ZM85.74,433.54c2.94,1.59,6.27,1,9.45.95,20.46-.44,40.92-.84,61.36-1.62,10.06-.39,20.1-1.51,30.14-2.43,1.59-.14,3.1-1,4.61-1.52-.78-3.36-3-3.12-5.06-3.06q-20,.63-40,1.33-26.23.92-52.46,1.89a35.13,35.13,0,0,0-7,.76C85,430.27,84.92,431.87,85.74,433.54Z"/><path d="M111.12,272.17c2.44-22.26,11.63-40.19,29.62-53.18a27.6,27.6,0,0,1,15.75-5.51c8-.19,13.69,3.43,17.3,10.36a29.34,29.34,0,0,1,3.06,16.45c-1.87,19.85-10.49,36.3-25.69,49.25a36.11,36.11,0,0,1-12.38,6.9c-12.07,3.92-22.14-1.11-25.85-13.29C111.83,279.51,111.66,275.59,111.12,272.17Zm11.09,1c.74-.25,1.46-.26,1.7-.6,3.93-5.71,9.14-10.05,14.68-14.07a60.13,60.13,0,0,0,7.61-6.12c7.62-7.74,11.78-16.78,9.84-28.48-5.38,0-9.31,2.53-12.86,5.59-12.66,10.92-20.05,24.67-21.66,41.39A6.73,6.73,0,0,0,122.21,273.16ZM166.12,239c-1.09,2.09-1.74,3.08-2.15,4.17-3.55,9.47-9.94,16.63-18.12,22.37-2.9,2-5.8,4.09-8.55,6.32a23,23,0,0,0-7.43,9.76c-.7,1.85-1.5,4,.66,5.83,6.34.62,11.21-2.78,15.66-6.69a61.59,61.59,0,0,0,19.3-32.16C166.21,245.73,167.31,242.92,166.12,239Z"/><path d="M187.1,386.48c-.27.65-.45,2.41-1.42,3.22-5,4.16-10.07,8.13-15.23,12a6.56,6.56,0,0,1-3.33.94,3.67,3.67,0,0,1-4.06-2.72c-.31-1.27.18-2.78.5-4.14.11-.49.69-.94,1.15-1.28,5.21-3.86,10.4-7.76,15.68-11.52C183.21,381,186.84,382.54,187.1,386.48Z"/><path d="M189.34,363.3c-.68,1.54-.85,2.95-1.64,3.56-4.14,3.25-8.39,6.35-12.71,9.35a4.52,4.52,0,0,1-3.32.84,8.32,8.32,0,0,1-4.26-2.53,3.39,3.39,0,0,1,1-4.71c4.52-3.23,9.16-6.31,13.85-9.28a4.13,4.13,0,0,1,3.37-.39C187,360.81,188.07,362.17,189.34,363.3Z"/><path d="M189.92,334c.62.57,2.09,1.33,2.56,2.5s.36,3.18-.38,3.9a32.45,32.45,0,0,1-7,5.08c-2.24,1.22-5.67-1.51-5.41-4C180.13,337.78,185.45,333.56,189.92,334Z"/></g></g></svg>