<svg xmlns="http://www.w3.org/2000/svg" viewBox="0 0 250.71 343.68"><g id="Layer_2" data-name="Layer 2"><g id="Layer_1-2" data-name="Layer 1"><path d="M21,128.15c-5.41-4.66-5.47-10.77-4.19-17.14.93-4.66,2.2-9.26,3-13.94A101.42,101.42,0,0,0,21.26,83c.2-10.18,1.27-20.19,4.63-29.84,9.24-26.5,27.8-43,54.56-50.53,12-3.36,24.06-3.25,36.2-.82a97.28,97.28,0,0,1,30,11c12.76,7.37,21.27,18,24.65,32.38,1.42,6.07,2.43,12.23,3.64,18.35.28,1.41.6,2.81,1,4.52,1.81.08,3.23.21,4.66.21,3.26,0,6.54-.2,9.8-.1,22.1.65,37.34,12,47.57,30.93a38.51,38.51,0,0,1,4.5,16.21c.28,5,.34,10.11.22,15.16a25.15,25.15,0,0,0,1.55,9.52c4.16,11.33,2.57,18-6,27,1.68,8.21,3.39,16.63,5.11,25a364.32,364.32,0,0,1,7.23,60.16,239.3,239.3,0,0,1-6.19,63.75c-.13.58-.25,1.16-.36,1.75-1.47,7.85-5.81,12.33-14,14-12,2.47-23.93,4.54-36.19,4.39-5.06-.06-10.11,0-15.17.07a50.67,50.67,0,0,0-12.21,1.78,115.24,115.24,0,0,1-22.84,3.52c-23.74,1.11-47.51,2-71.28,2.32-16.67.19-33.2-2.25-49.52-5.67a55.52,55.52,0,0,1-11.71-4.14,12.8,12.8,0,0,1-7.78-10.19C2.24,315.72.64,307.79.3,299.8c-.94-21.43.44-42.8,2.6-64.14,1.94-19.24,4.23-38.43,7.56-57.48C13.38,161.49,15.77,144.7,21,128.15Zm9.4,1.27c-2.28,5-2.84,9.72-3.67,14.35C21.5,172.71,16.62,201.69,13.64,231c-2.26,22.21-3.66,44.42-3.07,66.73.14,5.33.78,10.66,1.42,16,1.15,9.43-.45,10.93,13.35,14.45a42.56,42.56,0,0,0,5.24,1c9.12,1.16,18.23,2.67,27.39,3.32,25.23,1.81,50.44-.24,75.65-.77,3.86-.08,7.71-.47,11.54-.92,6.75-.8,13.47-1.76,19.79-2.6a14.67,14.67,0,0,0,1.77-2.87,42,42,0,0,0,1.12-5.21c3.79-23.48,6.28-47.09,7.77-70.84,1-15.82-.06-31.44-1.77-47.12-2.09-19.24-6-38.12-10-57-1.21-5.78-2.32-11.57-3.58-17.87-11.23-.19-22.19-.37-33.11.55C101.09,130,75,130,48.84,129.43,42.92,129.31,37,129.42,30.37,129.42ZM180.28,170a37.93,37.93,0,0,0,0,5.11c1.39,10.3,3.06,20.56,4.28,30.88a228.27,228.27,0,0,1,1.72,35.56,640.44,640.44,0,0,1-7.48,76.21,42.88,42.88,0,0,0-.05,6.8c6.59,1.08,22.15,1.39,29.44.31,6.74-1,13.43-2.37,20.14-3.63a6,6,0,0,0,5.32-5.21c.2-1.17.58-2.3.85-3.46a238,238,0,0,0,5.53-69.9c-1.51-23.49-6-46.51-10.18-69.59a21.47,21.47,0,0,0-1.82-4.45C212.92,167.79,186.17,168.54,180.28,170ZM29.54,87.78c2.62.23,4.37.54,6.1.51,17.53-.28,35.06-.29,52.57-1,22.25-1,44.42-3.62,66.74-3.17,3.2.07,6.58.31,9.38-1.76a7.93,7.93,0,0,0,.79-1.65A14,14,0,0,0,165.4,78a102.56,102.56,0,0,0-6.19-36.71,33,33,0,0,0-13-16.59C128.53,12.89,109.06,7.22,87.9,11.23,64.24,15.72,46.73,28.76,36.81,51.3,31.81,62.68,30.29,74.64,29.54,87.78ZM166,94.26a23,23,0,0,0-3.24-.29c-5.62.19-11.25.47-16.87.67-8.31.31-16.63.25-24.9.93C92.31,98,63.58,99.12,34.78,98.87a44.65,44.65,0,0,0-5.86.72c-1.26,6.54-3.15,12.5-1.65,19,2.29.24,4.33.63,6.38.66,25.21.38,50.42.91,75.63-.58,16.58-1,33.19-1.37,49.78-2.1,2.6-.11,5.19-.58,7.47-.85C169.57,107.44,169.47,104.07,166,94.26Zm5.71,41.07c.79.52,1.06.84,1.29.82,18.91-1.69,37.79-3.8,56.81-4.05a4.74,4.74,0,0,0,1.57-.67c3.91-15.06-.47-29.55-12.46-41.3C208,79.44,190.17,74.63,176.38,78.7c-3.23,7.09,1.23,13.15,2.27,19.39,1.93,1.12,3.65,1.78,5,2.92,3.81,3.32,3.22,7.26-1.37,9.94a32.1,32.1,0,0,1-3.27,1.44c-.77,6.37-3.74,11.28-9.24,14.5C170.51,130.15,171.18,133,171.74,135.33Zm5.36,23.54a10.47,10.47,0,0,0,2.45.77q23-.9,46.09-1.88a37.59,37.59,0,0,0,5.3-.51c2.85-.53,4.34-2,4.59-4.63.29-3.22.65-6.52-2.36-9.83-15.78-.49-31.94,1-48.08,2.64-3.42.35-7,.48-9.93,2.48a9.45,9.45,0,0,0-.1,2.09C175.68,152.89,176.38,155.76,177.1,158.87Z"/><path d="M157.26,250.86c-6.29.1-10.35-1.77-13.5-5.71a2.63,2.63,0,0,1,1.76-4.08,5.39,5.39,0,0,1,1.75-.22C152.32,241.83,155.77,244.52,157.26,250.86Z"/><path d="M150.84,277.22a11.42,11.42,0,0,1-7.72-9,3.78,3.78,0,0,1,1.45-2.9,2.8,2.8,0,0,1,4,.36C151.25,268.91,152.66,272.49,150.84,277.22Z"/><path d="M147.42,291.11c.66,1.11,1.67,2.21,2,3.47.21,1-.49,2.13-.85,3.19a.89.89,0,0,1-.8.17c-.88-.63-2.16-1.19-2.42-2.05a9.21,9.21,0,0,1,.19-4C145.55,291.61,146.47,291.48,147.42,291.11Z"/><path d="M91.41,23.77c0,3.39-2.8,6.52-5.9,6.47s-5.82-3.12-5.79-6.59a6,6,0,0,1,6.35-5.9A6.15,6.15,0,0,1,91.41,23.77Z"/><path d="M135,28.12c0,2.88-2.91,5.76-5.67,5.57a6.45,6.45,0,0,1-5.89-6.52,5.32,5.32,0,0,1,5.17-5A6.26,6.26,0,0,1,135,28.12Z"/><path d="M58.54,48.68a5.59,5.59,0,0,1-5-6,5.25,5.25,0,0,1,5.74-5.18c3.35.16,5.8,2.46,5.66,5.32A6.23,6.23,0,0,1,58.54,48.68Z"/><path d="M109.31,48.42c-3.16.13-5.32-1.4-6.12-3.72-.92-2.71,0-5.77,2.14-6.93a3.17,3.17,0,0,1,2.44-.36,18.63,18.63,0,0,1,4.8,3.5,3.57,3.57,0,0,1,.14,4.84A20.55,20.55,0,0,1,109.31,48.42Z"/><path d="M147.11,50.19c-3.07.06-6.05-2.76-5.82-5.51a5.25,5.25,0,0,1,4-4.3,6.2,6.2,0,0,1,6.26,5.14A4.64,4.64,0,0,1,147.11,50.19Z"/><path d="M193.91,84.19c2.69-.14,4.73,1.45,4.9,3.8A5,5,0,0,1,195,93.06c-2.31.4-5-1.86-5.44-4.57C189.17,86.34,191.22,84.33,193.91,84.19Z"/><path d="M214.55,105c-.7.73-1.59,2.39-2.92,2.91-2.26.87-4.54-1.08-4.9-3.66a3.42,3.42,0,0,1,2.8-3.81C212.08,99.94,214.18,101.51,214.55,105Z"/></g></g></svg>