<svg xmlns="http://www.w3.org/2000/svg" viewBox="0 0 306.51 350.13"><g id="Layer_2" data-name="Layer 2"><g id="Layer_1-2" data-name="Layer 1"><path d="M270.14,73.5a30.46,30.46,0,0,0-1.53,4.56q-3.18,20.7-6.19,41.43c-.12.8.34,1.68.66,3.1,2.37-.36,4.63-.83,6.92-1a4.49,4.49,0,0,1,4.82,4.19,40.14,40.14,0,0,1-.35,7.1C270.66,160,266.74,187,263,214.08c-2.79,20-5.4,40-8.11,60.07-.48,3.53-1.14,7-1.64,10.57a7.35,7.35,0,0,1-6.17,6.7l-5.43,1.25c-1.45,10.75-2.89,21.32-4.3,31.89-.83,6.19-1.47,12.4-2.43,18.57-.85,5.38-2.3,6.6-7.54,6.92-2.08.13-4.16.05-6.25,0L72.9,349.17c-9.6-.06-9.79-.11-11.49-9.56-2.21-12.28-4.18-24.61-6.3-36.9-.4-2.31-1-4.58-1.59-7.14a23.32,23.32,0,0,0-3.55-.7c-4.58-.2-6.8-2.45-7.56-7.07-2.7-16.41-5.72-32.78-8.58-49.17q-8.56-49.17-17.09-98.35a96.85,96.85,0,0,1-1.35-9.71c-.23-3.52,1.58-5.49,5.2-5.95,2.06-.26,4.17-.13,6.24-.29,1.43-.12,2.85-.44,4.25-.66-1.1-13.52-6.18-43-8.55-49.57-3-1.16-6.29-.42-9.49-.71C8.61,73,7.19,72.06,6.26,67.72,4.62,60.17,3.32,52.56,1.88,45,1.33,42.05.74,39.13.28,36.2c-1-6.55.65-8.59,7.54-8.83,5-.17,10.11,0,15.17-.06,9.9,0,8.27.58,13.76-7.09q5.7-8,11.26-16.07a8.76,8.76,0,0,1,9.15-4c20.65,2.64,41.32,5.14,62,7.63,17.12,2.07,34.26,4,51.39,6.09s34.24,4.17,51.37,6.25q18.15,2.19,36.32,4.35a34.5,34.5,0,0,1,5.32.58c10.19,2.92,20.62,2.21,31,2.28a59,59,0,0,1,6.24.19c4.34.48,6.19,2.94,5.61,7.36-.24,1.76-.75,3.48-1.13,5.23-1.81,8.42-3.5,16.87-5.48,25.25-1.47,6.2-3.5,7.74-10,7.93S276.78,73.43,270.14,73.5ZM26.5,135.22c.26,2.78.33,5.13.73,7.42q11.39,65.87,22.89,131.71c.6,3.39.82,7,2.88,10.55,31.67-.56,63.17-1.22,94.68-1.65s63-.47,94.92-1.86c.76-3.24,1.63-6,2.05-8.91,1.94-13.23,3.73-26.48,5.61-39.71q6.7-47.22,13.41-94.42c.24-1.67.86-3.52-.74-4.95C254.81,132.22,36.85,133.76,26.5,135.22Zm16.18-11.41c2.39.13,5,.41,7.59.39q97.6-.77,195.2-1.59a52.45,52.45,0,0,0,5.8-.65c2.47-11.93,7.79-42.37,6.66-47.75-8.44-1.41-162.76-2-217.34-.76-2,0-4,.43-5.94.65C34.41,81.05,40,115.52,42.68,123.81ZM295,37.13c-94,0-187,0-280,0a24.3,24.3,0,0,0-3.81.65A145.44,145.44,0,0,0,16,63.56H26.06l155.16,0q49.5,0,99-.05c3.18,0,6.53.76,9.84-1.16C292,54.44,294.3,46.51,295,37.13ZM68.18,318.53c3.08.16,5.71.4,8.34.42q60.65.46,121.3.87c8,.06,16.05.15,24.08.08a42.3,42.3,0,0,0,6.13-1c1.17-8.9,2.28-17.37,3.38-25.73-3.59-1.91-6.92-1.15-10.11-1.11-32.4.47-64.8,1.06-97.2,1.56-16.95.25-33.89.36-50.84.61-2.86,0-5.9-.55-8.93,1.52A182.18,182.18,0,0,0,68.18,318.53Zm3.4,20c9.85,1.34,145.43,1.89,153.12.69,1.2-2.9,2.09-5.86.82-9.66h-7.38l-25.86-.08q-56.17-.21-112.35-.37c-3.16,0-6.5-.86-9.55,1a17.4,17.4,0,0,0,0,2.71C70.69,334.64,71.11,336.35,71.58,338.57Zm112.76-312c-21.05-4-42.57-6-64-8.79s-43-5.09-64.3-7.59c-2.12,2.93-4,5.25-5.56,7.75s-4.25,4.82-4.88,9.35C92.17,27.3,138.11,27.3,184.34,26.59Z"/><path d="M194.92,202.4c-.43,15.67-7.13,30.7-21.39,41.86-21.3,16.67-50.91,12.91-67.54-8.34C86.79,211.4,92.26,174,117.69,156A47.54,47.54,0,0,1,182,164C190.89,174.37,195,186.53,194.92,202.4Zm-9.87-.38c.28-12.45-3.69-23.7-10.7-31.78a37.72,37.72,0,0,0-51.45-5.77c-19.66,14.43-24.39,43.85-10.26,63.76,13.15,18.52,38.11,21.93,55.71,7.48C179.36,226.67,184.37,214.65,185.05,202Z"/><path d="M242.59,193.67a3.89,3.89,0,0,1-6.06,2.63,5.56,5.56,0,0,1-1.38-1.08c-2.68-3.85-5.46-7.65-7.86-11.68-.56-.94-.14-2.89.47-4a3.31,3.31,0,0,1,4.61-1.36A23.29,23.29,0,0,1,242.7,192.8,2.7,2.7,0,0,1,242.59,193.67Z"/><path d="M234.86,219.23c-.88,1.17-1.63,2.79-2.9,3.71-1.57,1.15-4.15.29-5.21-1.8a107.38,107.38,0,0,1-4.89-11.23c-.69-1.85.53-3.37,2.14-4.37a3.67,3.67,0,0,1,4.81.67C232.22,209.68,233.46,214.21,234.86,219.23Z"/><path d="M227.58,240.16c-1.08,1.29-1.79,2.69-2.92,3.34a3.49,3.49,0,0,1-4.74-1.12,13.47,13.47,0,0,1-2-4.85,3.63,3.63,0,0,1,2.39-4.27c1.84-.74,3.73-.5,4.8,1.11S226.7,238.05,227.58,240.16Z"/></g></g></svg>