<svg xmlns="http://www.w3.org/2000/svg" viewBox="0 0 335.67 268.57"><g id="Layer_2" data-name="Layer 2"><g id="Layer_1-2" data-name="Layer 1"><path d="M246.69,181.58c-5.66,9.81-11.61,19.36-19.3,27.75s-17.36,14-27.61,18.87c1.4,2.4,3.32,1.63,4.9,1.58,19.92-.56,39.83-1.21,59.75-1.79,9.81-.29,19.63-.48,29.44-.67a25.54,25.54,0,0,1,5.32.32,4.9,4.9,0,0,1,3.24,7,6.59,6.59,0,0,1-.45.76c-11.29,18-27.31,27.69-48.79,27.8-6.83,0-13.66-.25-20.49-.08q-70.45,1.81-140.92,3.77-24.52.67-49,1.64A51.13,51.13,0,0,1,15.38,262c-5.92-3.27-10.09-8.08-13.68-13.7S.14,236.05,8.05,236c11-.07,22-.71,33-1.07q28.55-.93,57.07-1.83a14.64,14.64,0,0,0,2.5-.48c-.42-2.06-2.28-2-3.48-2.33-25-7.83-42.13-24.79-55-46.79-6.22-10.61-10.33-22-13.47-33.84C22.89,128.11,18.08,106.36,16.67,84Q15.62,67.58,15.4,51.08c-.18-12.18.08-24.37.17-36.55,0-2.38.06-4.76.29-7.12C16.38,2.19,18,.62,23.08.23,25.15.07,27.25.14,29.33.14Q144.44.06,259.55,0a59.7,59.7,0,0,1,8.88.42c7.29,1.12,8.61,2.62,8.85,9.76.13,4.15-.1,8.32,0,12.48,0,2,.3,4,.52,6.72l7.15-1.85c15.72-4.07,28.71.06,38.91,12.8,7.32,9.15,10.75,19.72,11.63,31.24a83.87,83.87,0,0,1-2.16,25.67c-6.35,27.14-19.59,50.24-41.2,68.17-11.78,9.78-25.22,15.55-40.76,15.78C249.85,181.21,248.38,181.43,246.69,181.58ZM267.14,10.86c-4.12-1.15-7.69-.74-11.19-.74q-109.74,0-219.48,0c-2.08,0-4.17-.1-6.25,0-1.68.12-3.34.55-5.15.86-.13,2.5-.37,4.55-.33,6.6.42,18.12,1,36.23,1.33,54.34.55,27.25,6.23,53.63,13.46,79.74a113.84,113.84,0,0,0,24.26,45.15c8.57,9.8,18.71,17.39,31,21.89,33.7,12.35,67.44,12.61,101.12-.08a64.36,64.36,0,0,0,27.78-20.22,132.54,132.54,0,0,0,20.84-37.13c7.11-19,12-38.56,16-58.35,4.32-21,5.84-42.35,6.54-63.74C267.39,30.07,267.14,20.87,267.14,10.86ZM11.37,245.91c2.28,2.63,3.18,4.14,4.49,5.09a35.5,35.5,0,0,0,21.61,7.17c11-.15,22-.31,33-.59,16-.4,32.1-.92,48.14-1.37l130.18-3.58c3.56-.1,7.15,0,10.7-.23,9.45-.74,17.93-4,25-10.38,1-.89,1.7-2.12,3.65-4.61C195.46,240.09,104.42,243,11.37,245.91ZM251.8,170.49a30.37,30.37,0,0,0,11.64-.9c9.95-2.78,18.42-8.06,26-15,16.51-15,27.16-33.61,33-55A79.65,79.65,0,0,0,325,67.92a42.56,42.56,0,0,0-11-23.84,25.22,25.22,0,0,0-19.88-8.4c-5.95.13-11.75,1.48-17.05,5.41V54.66c2.5-.73,4.69-1.39,6.89-2,10.54-3,19.85.74,24.51,10.61a47.58,47.58,0,0,1,3.89,13.57c1.45,10.43-.17,20.65-2.93,30.79a55.69,55.69,0,0,1-18,28,103.25,103.25,0,0,1-24.69,15.77c-3.2,1.47-6.38,3-9.54,4.51Zm10.43-29.27c1.07.09,1.72.35,2.15.15,9.24-4.31,17.74-9.8,24.62-17.33a46,46,0,0,0,8.39-12.48A69.76,69.76,0,0,0,303,83.81a36.77,36.77,0,0,0-3.17-15.59,11.44,11.44,0,0,0-5.19-5.9C287.33,58.7,275.74,65,275,73.23c-2,21.35-6.43,42.22-12,62.89A42.3,42.3,0,0,0,262.23,141.22Z"/><path d="M60.38,64.63c1.44,1.62,3.06,2.68,3.51,4.11a27.77,27.77,0,0,1,.79,7,222.59,222.59,0,0,0,8,50.82C75.35,136,77.82,145.44,82.9,154c1.9,3.17,1.52,5.95-.33,7.27-2.13,1.51-5.62.77-7.72-2.21a42.6,42.6,0,0,1-5.15-9.28c-9.35-24.92-14.63-50.62-14.19-77.34,0-1.47,0-3.18.67-4.31C57,66.79,58.65,66,60.38,64.63Z"/><path d="M190.09,197.82c-3.33-.06-5.39-1.38-6-3.18-.72-2.09.48-4.32,3.09-5.73,4.67-2.54,9.43-4.93,14-7.67,4.32-2.59,8.4-5.51,11.57-9.58a4.31,4.31,0,0,1,5.65-.81,4.58,4.58,0,0,1,1.12,5.64,18,18,0,0,1-3.5,5,102.89,102.89,0,0,1-21.06,14.72A23.82,23.82,0,0,1,190.09,197.82Z"/><path d="M202.57,157a5,5,0,0,1-5.09-4.06,4,4,0,0,1,2.73-4.91c5.2-1.26,8.68-4.78,12.24-8.32a13.08,13.08,0,0,1,2.69-2.25c1.67-.93,3.59-1,4.8.58a5.42,5.42,0,0,1,1.13,4c-1.25,5.11-12.4,14.35-17.62,14.94C203.16,157,202.86,157,202.57,157Z"/><path d="M210.59,102.48c0-.58-.11-1.29.18-1.71a15.52,15.52,0,0,1,10.65-6.92,3.44,3.44,0,0,1,4,2.69c.27,1.24,0,3.31-.83,3.95a47.43,47.43,0,0,1-8.89,5.45C213.53,106.94,210.79,104.79,210.59,102.48Z"/><path d="M101.22,185.34c.12,2.22-2.69,4.48-4.94,3.74a13.48,13.48,0,0,1-9.1-8.88c-.86-2.68,2.18-5.77,4.64-4.68a18.76,18.76,0,0,1,9.32,8.94A2.49,2.49,0,0,1,101.22,185.34Z"/></g></g></svg>