<svg xmlns="http://www.w3.org/2000/svg" viewBox="0 0 396.29 269.14"><g id="Layer_2" data-name="Layer 2"><g id="Layer_1-2" data-name="Layer 1"><path d="M346.51,56.46c4-.55,6.57-1,9.2-1.26,16.12-1.44,29.17,6.23,35.87,21a50.82,50.82,0,0,1,4.69,19.85c.59,26.4-10,47.26-32.1,61.94-7.33,4.88-16,6.2-24.54,7.51A77.79,77.79,0,0,0,330,167.3c-5.52,1.59-6.7,4-4.86,9.23.88,2.52,2.12,4.91,3,7.44,4.32,12.48-2.43,21.46-15.79,20.48-9.68-.71-17.53-5.31-23.3-13.19-1.56-2.14-2.83-4.49-4.39-7-6.41,5.78-12.38,11.91-19.12,17s-14.41,9.34-22.26,14.32v15.55c3.2.1,6.11.29,9,.25q43.29-.68,86.58-1.41c3-.05,6,.11,8.93-.16,6-.55,9.81,1.63,10.88,8.18-3.92,12.23-12.78,19.38-25.3,22.13-13.67,3-27.49,5.12-41.52,5.3-18.75.23-37.5.2-56.24.36-12.8.11-25.59.37-38.38.53-24.1.32-48.2.46-72.29,1-15.17.33-30.32,1.41-45.49,1.77a266.18,266.18,0,0,1-48.89-3.44C17.07,263.45,8.31,255,1.09,244.44c-2.47-3.63-.56-7.79,4-8.91a36.36,36.36,0,0,1,8-.57c27.37-.48,54.75-.89,82.12-1.42,3.2-.06,6.55.62,9.59-1-.42-5.09-.83-10.1-1.27-15.47-2.42-2.41-5.9-3.46-9-5a122.82,122.82,0,0,1-26.11-17,61.61,61.61,0,0,1-17.61-24.32,200.88,200.88,0,0,1-12.92-49c-.8-6.18-1.8-12.35-3.18-18.42A38.64,38.64,0,0,0,20.55,81.21c-1.4-1.11-2.73-2.3-4.17-3.35-13-9.49-18.56-29.76-13.63-46,3.76-12.4,13-19.5,25-23.36,6.32-2,12.91-1.92,19.46-1.91,17.85,0,35.72.38,53.56-.08,14-.37,27.88-1.9,41.84-2.66,13.64-.74,27.25-2.12,41-.87,7.66.7,15.46.3,23.19.08,31.52-.9,63.05-1.94,94.57-2.91C309.7-.11,318-.17,326.3,1.22c12.26,2,20.51,8.57,24.3,20.68,3.06,9.79,3,19.28-1.33,28.65C348.52,52.14,347.77,53.74,346.51,56.46ZM86,17v.16c-6.25,0-12.5.09-18.74,0s-12.48-.62-18.72-.57a105.43,105.43,0,0,0-16,1.07C22,19.32,12.94,27.94,11.52,38c-1.79,12.8,1,24.25,11.82,32.66.94.73,1.86,1.48,2.79,2.21a50.33,50.33,0,0,1,18.78,30.46c1.44,7,2.34,14.06,3.38,21.11a184.32,184.32,0,0,0,12.15,43.65,51.26,51.26,0,0,0,14.13,19.2c13.22,11.57,28.8,18.78,45.07,24.69,11.65,4.23,23.93,4.49,36.11,4.75,22.38.47,44.47-2.08,66.45-6.39s39.68-15.42,53.5-32.79c10.77-13.53,16.82-29.27,20.68-46,1.88-8.1,3.53-16.26,5.7-24.28,4.33-16,11.1-30.72,23.62-42.2A38.28,38.28,0,0,0,330,60.59c3.12-4,6.48-7.8,9.09-12.08,5.62-9.21,4.8-18.77.22-28.11a15.62,15.62,0,0,0-10.08-8.24,48.32,48.32,0,0,0-9.61-1.72c-4.44-.32-8.92-.31-13.38-.19C286.58,10.8,267,11.5,247.34,12c-11.59.31-23.2.37-34.8.58-13.08.23-26.16.51-39.24.75-9.81.19-19.63.21-29.43.6-5.93.24-11.83,1.28-17.76,1.55C112.74,16.13,99.36,16.5,86,17ZM14.49,245.58c5.29,7.34,12,9.55,19.16,10.53a297.87,297.87,0,0,0,56,2.82c19.89-1.05,39.8-1.74,59.71-2.19,19-.43,38-.36,57.08-.48,12.19-.08,24.38-.05,36.57-.13,14.56-.1,29.13-.16,43.7-.42A252.81,252.81,0,0,0,329.2,251a28.65,28.65,0,0,0,13.67-6.14c1-.86,1.67-2.13,3.19-4.11-3.08-.25-5-.56-7-.55-24.38.23-48.76.41-73.14.78q-88.29,1.34-176.58,2.8c-21.11.32-42.22.45-63.33.71C22.54,244.54,19,244.32,14.49,245.58ZM317.94,94c5.95-2.75,10.41-5.18,15.13-6.91a32.91,32.91,0,0,1,24.41.62c12.07,5,16.68,16.72,11.33,28.58a39,39,0,0,1-3.58,6.15A46.83,46.83,0,0,1,336.39,142c-5.49,1.3-11,2.65-16.35,4.39a47.7,47.7,0,0,0-20.75,13.42c-5.21,5.7-6.6,12.55-4.83,19.93,2.12,8.85,12,15.5,21,14.47,3.35-.38,4.82-2.38,3.75-5.51-1.15-3.37-2.73-6.6-3.85-10-3.07-9.25.23-16.42,9.33-20.11a40.63,40.63,0,0,1,7.71-2.08c3.8-.72,7.64-1.18,11.46-1.78A43.23,43.23,0,0,0,368,142.46c13.92-13.63,19.59-30.15,17.87-49.33a37.51,37.51,0,0,0-5.51-16.79c-4.46-7.08-10.87-10.83-19.23-11-13.89-.35-25.48,5.1-35.25,14.59C322.31,83.37,319.84,87.75,317.94,94Zm-13.32,47.24a14.1,14.1,0,0,0,3.08-.51,109.83,109.83,0,0,1,23.64-7.82,67.32,67.32,0,0,0,10.2-3.18c8.4-3.38,14.25-9.62,18.16-17.58,3.1-6.3,1-11.66-5.3-14.82a16.34,16.34,0,0,0-4.19-1.43,27.69,27.69,0,0,0-17.43,1.9,83.72,83.72,0,0,0-19.18,12.91,9.51,9.51,0,0,0-3,4.23A252.7,252.7,0,0,0,304.62,141.27Zm-71.1,78.44c-1-.37-1.58-.78-2.09-.72a53,53,0,0,0-6.15.91c-27.49,6.16-55.33,7.7-83.37,6.12-6.77-.38-13.49-1.94-20.22-3.07-2.57-.44-5.09-1.2-7.89-1.88-1.46,4.06-.18,7.42,1.56,10.43,1.61,2.81,4.8,1.59,7.37,1.79a26.43,26.43,0,0,0,2.67,0q50.41-.83,100.84-1.66c2,0,4-.4,5.89-.6C233.8,227,234.48,223.35,233.52,219.71Z"/><path d="M66.42,94.81C68,96.16,69.59,97,70.29,98.39s.77,3.42.92,5.17a142.15,142.15,0,0,0,13.52,50.19c1.71,3.53,1.55,5.76-.3,7.26-2.11,1.72-5.35,1-7.64-2a31.31,31.31,0,0,1-3.91-6.9,139.61,139.61,0,0,1-10.64-47.32,22,22,0,0,1,.73-7C63.29,96.69,65,96,66.42,94.81Z"/><path d="M257.39,167.39a11,11,0,0,1-1.54,3.23,59.49,59.49,0,0,1-17.28,13.7,10.89,10.89,0,0,1-6,.86,4.59,4.59,0,0,1-3.15-2.59c-.39-1.13.24-2.84.92-4a6.39,6.39,0,0,1,2.78-2.1A66.61,66.61,0,0,0,249,165.13a16.62,16.62,0,0,1,2.81-2.13C254.09,161.67,257.46,163.85,257.39,167.39Z"/><path d="M254.78,143.78a2.25,2.25,0,0,1-.08.87c-2.74,5-6.31,9.23-11.54,11.69a4,4,0,0,1-4.82-1.21c-1.29-1.52-1.6-3.52-.32-4.87,3.22-3.4,6.72-6.54,10.21-9.68a4.62,4.62,0,0,1,2.51-.7C252.58,139.72,254.88,142,254.78,143.78Z"/><path d="M101.32,178.58c.56.15,1.27.15,1.66.49a65,65,0,0,1,7,6.59c.64.76.38,3-.31,4a4.57,4.57,0,0,1-3.71,1.66,11.26,11.26,0,0,1-8.47-7C96.43,181.88,98.88,178.36,101.32,178.58Z"/><path d="M249.83,125.27a3.93,3.93,0,0,1-3.65-4.14,9.35,9.35,0,0,1,4-6.6,3.91,3.91,0,0,1,5.81,1.92C257.27,120.28,253.83,125.24,249.83,125.27Z"/></g></g></svg>