<svg xmlns="http://www.w3.org/2000/svg" viewBox="0 0 290.3 344.97"><g id="Layer_2" data-name="Layer 2"><g id="Layer_1-2" data-name="Layer 1"><path d="M290.3,85.84a115,115,0,0,1-8.77,45.34,128.82,128.82,0,0,1-20.8,34.15c-20.64,24.38-58.24,40.11-97.89,22.26-10.19-4.59-16.63-12.36-18.49-23.47a26.59,26.59,0,0,1,0-10.59c2.75-10.94,6.07-21.74,9.19-32.59a9.72,9.72,0,0,1,1-2.47c8.27-13,14.58-27.26,24.34-39.41,8.62-10.73,18.06-20.53,29.34-28.48A93.91,93.91,0,0,1,243,35.06a46,46,0,0,1,9.7-1.07c14.46.11,25,6.67,31.15,19.84a69.11,69.11,0,0,1,5.75,21.45C290.06,79.41,290.16,83.59,290.3,85.84Zm-113,95.58a50.3,50.3,0,0,0,22.59,3.71c19.77-1.2,36.89-8.88,50.48-23.35a111.12,111.12,0,0,0,24.78-41.86c3.8-11.62,6-23.6,5.4-35.94a74.28,74.28,0,0,0-4.93-24.33C273.34,54,270,49.29,264.06,46.33A54.66,54.66,0,0,0,254,57.86c-9.23,14.63-17,30-21.27,46.83-2.25,8.92-3.78,18-5.87,27-5.34,22.91-19.25,38.33-41.13,46.68C183.55,179.19,181.33,180,177.26,181.42Zm-19.55-11c4.09-1.21,7.79-2.17,11.41-3.39,16.22-5.48,27.28-16.26,33.29-32.35a160.53,160.53,0,0,0,7-25.76c1.58-8.16,2.93-16.4,5.08-24.42,3.7-13.81,10.64-25.75,22-34.77a32.44,32.44,0,0,0,2.92-3.29c-2.6.63-3.73.79-4.79,1.17-15.72,5.7-28.62,15.51-40,27.57-15.94,16.93-26.87,36.94-35.26,58.41a107,107,0,0,0-5,18C153.27,157.7,152.83,164,157.71,170.38Zm41.38-9a36.67,36.67,0,0,0,12.2-12.82,66.67,66.67,0,0,0,8.75-24.1c3.54-22.17,10-43.3,21.28-62.84.29-.51.54-1.06.78-1.6.44-1,1.36-2-.48-2.93-3.49,2.18-6.1,5.41-8.5,8.77a65,65,0,0,0-11.15,26c-1.27,6.7-2.42,13.43-3.63,20.14-3.08,17.09-7.9,33.48-19.13,47.27C199.08,159.34,199.17,159.68,199.09,161.34Z"/><path d="M53.17,345c-14.56-1.23-30.28-8.81-40.74-25.51a41.06,41.06,0,0,1-5.9-27.37,81.08,81.08,0,0,1,7.07-25.67c1.8-3.74,3.26-7.65,4.93-11.46,8.28-18.88,20.31-34.84,36.88-47.24,8.82-6.6,17.88-12.79,28.09-17.1a69.07,69.07,0,0,1,19.67-5.43,30.09,30.09,0,0,1,21.15,5.23A110.77,110.77,0,0,1,134.51,199c.8.73,1,2.06,1.57,3.09,7.79,14.73,7.5,30.28,4.67,46.08a144.57,144.57,0,0,1-14.37,41.07c-4.1,7.9-8.76,15.53-13.49,23.08a77.65,77.65,0,0,1-20.2,21.16C82.33,341.12,70.76,345.2,53.17,345ZM75,247.79c1.51.32,2-.74,2.51-1.81a150.75,150.75,0,0,1,21.54-31.43c.65-.73,1.9-1.52.26-2.91C87.11,221,79.73,233.49,75.26,248a5.48,5.48,0,0,0-1.2,5.92c-.7.8-1.75,1.49-2,2.43-1.33,4.23-2.51,8.51-3.63,12.79C65.12,281.5,61,293.49,53.5,304.05c-.38.55-.19,1.5-.32,2.79,5.68-4.62,8.91-10.27,11.51-16.24,5.12-11.75,7.28-24.27,9.18-36.85C76,252.1,76,250,75,247.79Zm52.57-38.65c-9.24,1.41-13.81,3.25-19.21,8.89-13.29,13.91-24.16,29.22-27.76,48.75a165.21,165.21,0,0,1-5,19.83c-6,18.94-17.79,32.59-37,39.11a15.46,15.46,0,0,0-2.86,1.71A17.52,17.52,0,0,0,37.21,329a7.36,7.36,0,0,0,1.5,1c15.45,7.62,30.44,6.28,44.85-2.65a65.94,65.94,0,0,0,19.73-19c9.59-14,17.6-28.87,23.07-45,3.93-11.6,6.33-23.5,6.17-35.79C132.45,220.92,131.47,214.53,127.6,209.14ZM21.57,314.2c14.12-4.66,24.16-13,29.62-26.09a231.73,231.73,0,0,0,8.39-24.4c3.34-11.44,7.07-22.69,12.72-33.23a76.86,76.86,0,0,1,14.94-19.87c6.85-6.44,14.55-11.25,24.08-12.59.69-.09,1.3-.7,3-1.7-2.64-.75-4.2-1.48-5.81-1.61-7.63-.59-14.74,1.63-21.55,4.69a127.09,127.09,0,0,0-41.17,29.23C29.7,245.87,20.37,266.44,17,289.74a65.24,65.24,0,0,0-.39,9.79A24.76,24.76,0,0,0,21.57,314.2Z"/><path d="M0,64.54A115.22,115.22,0,0,1,5.9,31.23,54.07,54.07,0,0,1,19.54,9.58C28.07,1.26,38.26-1.64,49.82.88,64.11,4,76.37,11.08,86.88,21.08a107.69,107.69,0,0,1,27.83,44,159.41,159.41,0,0,1,8.15,39.13,73.1,73.1,0,0,1-7.08,38.06c-10.56,21.94-32.87,31.3-55.91,23.49A61.28,61.28,0,0,1,37.23,152c-9.86-9.32-17.15-20.43-22.81-32.66A165.74,165.74,0,0,1,2.47,83C1.22,77,.8,70.7,0,64.54ZM37,47.91c.27-1.12.54-2.23.82-3.34l-.49-.11c-.12,1.14-.23,2.28-.35,3.42a10,10,0,0,1,1.57,2.06C42.79,60.32,49.49,69,57.12,77c4.29,4.53,8.48,9.19,12.36,14.07a91.51,91.51,0,0,1,18.84,42.78c.41,2.55,1.15,5.05,1.74,7.57,1.89-11.34,1.61-22.4-3-32.93a99.35,99.35,0,0,0-22-32.25c-9-8.68-18.19-17.12-25-27.73C39.7,47.9,38.08,48.09,37,47.91ZM25,19.53c-5.08,4.26-7.48,7.66-9.86,15.1-3.65,11.42-5.6,23.16-4.38,35.14a131.28,131.28,0,0,0,22.09,61.39,96.57,96.57,0,0,0,13.54,15.27c7.32,7,16.44,10.51,26.36,11.94,2.3.34,4.75.82,7.17-1.68a42.66,42.66,0,0,0,.78-4.62,75.42,75.42,0,0,0-2.62-24.69A86.42,86.42,0,0,0,58.17,91c-4.75-5.32-9.79-10.39-14.36-15.85-12.26-14.66-19.14-31.3-18-50.78C25.92,22.76,26.8,20.86,25,19.53Zm72.6,129c1.32-.59,2.31-.74,2.82-1.31,7.68-8.72,12.51-18.64,13-30.47a112.86,112.86,0,0,0-2.13-27.45C107.48,71,101.38,53.86,89.82,39a80.5,80.5,0,0,0-30.91-24.8,40.19,40.19,0,0,0-14.5-3.94,24.69,24.69,0,0,0-4.8.67,9.85,9.85,0,0,0-.33,2.28c2.45,17.43,8,33.45,21.07,46,2.79,2.67,5.46,5.46,8.25,8.11A111.63,111.63,0,0,1,92,99.52a63.74,63.74,0,0,1,6.88,30.07c-.07,3,0,5.94-.24,8.89C98.39,141.67,98,144.84,97.58,148.48Z"/></g></g></svg>