<svg xmlns="http://www.w3.org/2000/svg" viewBox="0 0 405.14 370.88"><g id="Layer_2" data-name="Layer 2"><g id="Layer_1-2" data-name="Layer 1"><path d="M313.52,295.29l-7.31,13.93c-4.74,9-10.38,17.39-17.71,24.47A56,56,0,0,1,278,341.83c-8.35,4.87-15.46,4.05-23.06-2.08a37.29,37.29,0,0,1-11.55-16.63c-5.51-14.88-6.16-30.13-4.13-45.71,3.06-23.34,8.61-46.15,14.2-69,8-32.56,11.86-65.56,9.9-99.06-1.48-25.1-9.41-48.34-22.35-69.82-11.35-18.83-28.85-27.9-50.15-29.69-30.11-2.53-66.36,10.79-83.15,49.44a174.31,174.31,0,0,0-9.18,27,45.78,45.78,0,0,0-.67,5.57c3.72,0,6.94.09,10.16,0,13.35-.45,26.67-1.59,40.08-.37,6,.54,9.8,2.67,12.81,7.86,6,10.28,12.45,20.27,18.82,30.31a26.63,26.63,0,0,1,3.9,12.54c.83,10.05,2.18,20.08,3.8,30,3.35,20.55,5.95,41.19,8.4,61.86,2,16.81,4.78,33.55,7.72,50.23,3.56,20.23,5.66,40.63,7.8,61,.09.88.1,1.78.17,2.67.27,3.76-1.36,6.66-4.91,7.54-7.66,1.89-14.16,6-20.9,9.77a44.15,44.15,0,0,1-22.21,5.53c-45.18-.32-90.36-.45-135.54-.76-6.82-.05-13.67-.48-20.45-1.19C1.23,368.27.1,366.64,0,360.21c0-.59.05-1.19.06-1.78.51-20.52,1-41,1.53-61.56Q3.21,239.34,5,181.81c.35-11.3,1-22.59,1.51-33.88A34.35,34.35,0,0,1,11.39,131c6.44-10.34,13-20.61,19.35-31a13.43,13.43,0,0,1,12.59-6.87c4.16.08,8.32,0,12.47.16,10.69.36,21.36,0,32.36-.42a41.06,41.06,0,0,0,1.5-5.23A115.74,115.74,0,0,1,103,48.12C118.05,20.6,141.74,5.41,172.5.87a84.41,84.41,0,0,1,37.86,3.22C226,8.94,238.54,18,247.5,31.7a140.67,140.67,0,0,1,10.4,18.66C268.3,73.08,274,96.89,274,122a378.46,378.46,0,0,1-11.45,91.83c-5,20.19-9.78,40.45-12.81,61.06-2,13.66-2.51,27.26,1.51,40.67,1.72,5.75,4,11.22,8.55,15.41,5.26,4.82,9.2,5.34,15.16,1.29a48.64,48.64,0,0,0,8-7c9.7-10.34,15.9-22.83,21.94-35.88q-4.63-7.64-9.23-15.19c-1.7-2.79-3.28-5.68-5.16-8.34a15.72,15.72,0,0,1-1.78-16.06c3.8-9,7.28-18.27,12-26.84,11.67-21.44,25.67-41.44,39.77-61.33l.54-.71c6.33-8,11.67-8.43,19.47-1.59,2.23,2,4.24,4.16,6.34,6.27q15.4,15.5,30.8,31c1.47,1.47,3,2.91,4.46,4.37,3.4,3.38,3.86,7.34,1.77,11.44a90.77,90.77,0,0,1-6.77,11.52c-12.83,18-23.59,37.13-33.87,56.59-7.16,13.55-8.14,14.06-23.22,15.8a58.05,58.05,0,0,1-17.75-.26A84.33,84.33,0,0,0,313.52,295.29Zm-149.9,64.19a28.26,28.26,0,0,0,.73-4.15c.91-24.35,1.69-48.71,2.67-73.06.85-21.08,1.94-42.16,2.89-63.24q1.49-33,2.89-65.91a46.38,46.38,0,0,0-.37-5.3,29.58,29.58,0,0,0-3.88-.6q-34.31-.33-68.6-.56a24.57,24.57,0,0,0-4.59.88c-.4,3.13-1,6.05-1.11,9-.71,13.94-1.66,27.89-1.89,41.85C91.5,250.68,94,303,92.16,355.3a21.59,21.59,0,0,0,.61,4C101.53,360.62,157,360.73,163.62,359.48ZM15.36,145.33c-.13,3.5-.28,6.13-.33,8.77-.74,33.87-1.39,67.75-2.2,101.63-.77,31.79-1.73,63.58-2.53,95.37-.07,2.88-.92,5.94,1,8.69a13,13,0,0,0,2.57.52q31.62-.06,63.26-.2a39.65,39.65,0,0,0,5.31-.78c.18-2.88.42-5.21.44-7.54.19-17.53.46-35.07.46-52.6,0-31.51-.15-63-.29-94.53a365.62,365.62,0,0,1,3.29-54.23c.15-1.06-.26-2.21-.5-3.91ZM351.24,165a58.59,58.59,0,0,0-4.71,5.51c-11.46,17.36-23.13,34.59-34.1,52.25-4.82,7.78-8.19,16.46-12.12,24.78A34.29,34.29,0,0,0,298,254.2c-.32,1.36-.45,3.19.21,4.27,4.48,7.34,9.07,14.61,13.88,21.74,2.25,3.34,5.67,4.73,9.8,5.33a96.85,96.85,0,0,0,17.76.59c6.85-.28,11.3-3.09,14.49-9.55a433.08,433.08,0,0,1,35.11-58.91c2-2.85,4.17-5.75,5.07-9.65q-19-19.44-38-38.78C354.88,167.79,353.2,166.6,351.24,165ZM171,135.6c-6.13-9.94-11.89-18.9-17.2-28.13-2.34-4.06-5.25-6.16-9.91-6.11-9.19.11-18.41-.36-27.57.23-21.92,1.42-43.85,1.92-65.81,1.33-3.21-.09-6.43.1-9.48.16a256.43,256.43,0,0,0-20.15,30,7.16,7.16,0,0,0-.37,2.47C27.24,136.44,164.09,136.67,171,135.6ZM179.8,230q-3.59,60.78-7.18,121.55c-.1,1.78-.15,3.56-.19,5.34a1.75,1.75,0,0,0,.3.82,4.37,4.37,0,0,0,.53.61c5.64-.87,5.68-.81,10.63-4.88C183.39,312.55,182,271.3,179.8,230Zm8.88,34.67c-.4,28,.07,56,1.78,84.12,4.18.56,7.12-1.32,10.5-3.2A517.69,517.69,0,0,0,188.68,264.68Z"/><path d="M145.45,227.22a12.36,12.36,0,0,1,3,.87,11.68,11.68,0,0,1,5,6.85,2.82,2.82,0,0,1-.72,2.27,2.89,2.89,0,0,1-2.29.74,12.08,12.08,0,0,1-7.78-5.12,3.67,3.67,0,0,1-.13-3.24C143.19,228.51,144.58,227.89,145.45,227.22Z"/><path d="M151.44,253.65c-.64.35-1.58,1.31-2.41,1.23a7,7,0,0,1-6.17-4.24,3.52,3.52,0,0,1,.56-3.1,3.72,3.72,0,0,1,3.06-1C149.24,247.18,151.3,250.17,151.44,253.65Z"/><path d="M144.38,271.26c1.05-.25,1.88-.71,2.45-.5.38.14.48,1.27.48,1.95,0,.19-1,.65-1.24.5A11.4,11.4,0,0,1,144.38,271.26Z"/></g></g></svg>