<svg xmlns="http://www.w3.org/2000/svg" viewBox="0 0 340.09 411.52"><g id="Layer_2" data-name="Layer 2"><g id="Layer_1-2" data-name="Layer 1"><path d="M72.83,304.17c.54-3.41,1.12-6.29,1.44-9.21,3-26.59,6-53.18,8.75-79.79,1.7-16.57,2.85-33.19,4.3-49.78,1.57-18.07,3.07-36.15,6.84-53.94a161.3,161.3,0,0,1,18.65-48c9.69-16.59,23.71-28,41.76-34.42,1.94-.69,3.87-1.43,6.15-2.28.44-2.62.85-5.21,1.3-7.79a26.36,26.36,0,0,1,5.75-12.87c8.42-9.86,21.94-7.39,26,4.88,1.22,3.63,1.61,7.54,2.47,11.77,1.17.32,2.54.79,3.94,1.06,19.44,3.82,35.3,13.5,47.86,28.81a109.6,109.6,0,0,1,20.77,40.1c2.1,7.43,3.84,15,5.78,22.45.44,1.71,1,3.38,1.75,5.66,3.2-.49,6.31-1.13,9.46-1.39,4.71-.39,9.51-1.08,14.17-.61,12.62,1.27,22.22,7.47,28.85,18.5,9.6,16,12.43,33.24,10.78,51.45-1.49,16.45-6.35,32-12.81,47.14-8.68,20.27-19.25,39.54-30.24,58.61-4.75,8.24-9.31,16.6-14.22,24.75a18.77,18.77,0,0,0-2.75,11c.49,9.8.83,19.61,1.29,29.41.68,14.85,1.5,29.7,2.09,44.55.2,5.2-1.56,6.86-6.83,7.22-1.77.13-3.56.07-5.35.07L80,411c-2.08,0-4.17,0-6.24-.06-6-.18-7.36-1.66-7.14-7.39.41-10.69.72-21.39,1-32.08a21.77,21.77,0,0,0-.42-3c-2.57-1.08-5.21-2.41-8-3.32C26.69,354.42,4.11,318.52,1,292c-2.49-21.39-.27-42.1,5.06-62.7,3.42-13.24,7-26.44,8.78-40a120,120,0,0,0-1-39.07C12.65,143.87,10,138.24,5,134.06c-3.76-3.16-4.18-6.75-2.95-11.2s2-9.28,3-13.92c1.1-5.09,5-6.82,9.24-3.66a74.46,74.46,0,0,1,11.31,10A97.32,97.32,0,0,1,50,169.74c2.28,19-.42,37.35-4.53,55.7-2.8,12.5-5.29,25-4.73,37.94s4.91,24.41,14.4,33.55C59.77,301.37,65.09,304.44,72.83,304.17Zm5.84,79.11a16.34,16.34,0,0,0,3.22.87q93.6.93,187.22,1.78c.51,0,1-.5,2.18-1.11,0-2.25.11-4.85,0-7.43-.66-12.77-1.9-25.54-2-38.31-.21-36,.1-72,.11-108q0-36.59-.31-73.17c0-5-.56-10.09-1-15.12a65,65,0,0,0-1.27-6.42c-3.57,0-6.79-.08-10,0-12.48.37-24.95.94-37.43,1.18-37.74.75-75.48,1.37-113.22,2.09a48.2,48.2,0,0,0-6.16.92c-1.34,14.37-2.61,28.27-3.94,42.17-2,21-4,42-6.09,63-2.25,22.48-4.82,44.93-6.89,67.43-1.25,13.62-1.83,27.3-2.68,40.95C79.81,363.68,79.27,373.17,78.67,383.28ZM101.79,132c8.08-.42,15.15-.9,22.24-1.13q38.31-1.25,76.64-2.35c19-.57,38-1.06,57-1.67,2.54-.08,5.35.66,7.62-1.56a9.08,9.08,0,0,0,.18-2.58c-3-14-6.1-27.89-11.75-41.08A86.8,86.8,0,0,0,233,51.8c-12.68-11.74-27.47-18.61-45.11-18.16a102.12,102.12,0,0,0-24.62,3.64q-28.08,7.71-42.41,33a157.26,157.26,0,0,0-15.36,37.91C103.56,115.6,101.69,123.12,101.79,132Zm-29,182.46c-2.54-.55-4-1-5.39-1.15-8.4-.94-15.09-5.08-20.8-11a54.16,54.16,0,0,1-14.59-29c-1.37-8-1.93-16-.6-24,1.56-9.37,2.95-18.79,4.94-28.07,2.93-13.71,5-27.47,4.5-41.53-.79-21.9-8.17-41.21-22.59-57.75-1.07-1.23-2-3-4.64-2.6-.95,2.48-2.4,5-1.52,8.71,7.84,6.73,10.7,16.4,12,26.56,1.71,13,2,26.15-.28,39.11-1.92,11.1-4.42,22.14-7.2,33.06-4.94,19.42-7.84,38.88-6.39,59.07,2.12,29.64,25,61.27,53.89,70.36,1.63.52,3.17,1.67,5.61,0C71.73,342.9,71.59,329,72.75,314.43ZM279.57,143.9a43.56,43.56,0,0,0-.42,4.57c.24,27.06.59,54.13.75,81.19.07,12.19-.25,24.39-.33,36.59,0,1.29-.52,3.06,2.17,3.56,5.34-10.09,11.2-20.1,16-30.58s9-21.35,12.85-32.27c6.19-17.6,4.34-35.1-1.57-52.47-2.4-7.07-7.08-10.69-14.33-11.38C290,142.65,285.25,142.06,279.57,143.9Zm-7.84,256.76c.8-1.84.85-3.33-1-3.87a16.49,16.49,0,0,0-4.4-.43q-25.83-.6-51.66-1.15-66.81-1.51-133.61-3a14.84,14.84,0,0,0-2.62.42c-1.63,2.73-2.24,5.41-.39,8.82q95.25,0,190.54,0A13.18,13.18,0,0,0,271.73,400.66Zm6.74-267.57c1,.19,2.07.73,3,.51,6.27-1.51,12.42-.56,18.54.69a22.65,22.65,0,0,1,16.8,13.26,52.34,52.34,0,0,1,2.26,5.8c6.3,19.14,7.49,38.36.93,57.72-4.49,13.23-9.43,26.26-16.06,38.59q-10.54,19.61-21.13,39.2a29.62,29.62,0,0,0-2.75,5.56c-.41,1.41.08,3.08.27,6.25,1.78-2.52,2.71-3.6,3.39-4.83,8.32-15.08,16.86-30,24.8-45.3,6.71-12.91,12.58-26.23,16.48-40.33,3.1-11.22,5.16-22.57,4.61-34.27-.59-12.7-3.75-24.59-11-35.25a24.8,24.8,0,0,0-15.69-10.88C294.65,128,286.51,128.31,278.47,133.09ZM184.79,23c1-4.39.38-7.76-1.57-10.89a4.25,4.25,0,0,0-6.06-1.49c-2.7,1.6-4.06,4.15-5.07,7-.76,2.13-1.87,4.3-.06,6.77Z"/><path d="M240.59,287.13a7.15,7.15,0,0,1,2.08.55,18,18,0,0,1,7.93,9.12,2.65,2.65,0,0,1-.54,2.32,2.71,2.71,0,0,1-2.3.77,19.21,19.21,0,0,1-10.71-8.6C236,289.53,238,287,240.59,287.13Z"/><path d="M249.23,312.46c-.79.32-1.88,1.22-2.62,1a7.87,7.87,0,0,1-5.52-5.27,2.8,2.8,0,0,1,1.67-3.63,4,4,0,0,1,3.23.35C248.23,306.56,249.09,309.06,249.23,312.46Z"/><path d="M248,333.6c-1.92-1.43-3.15-1.9-3.56-2.77a5.74,5.74,0,0,1,0-3.26c.06-.33.9-.75,1.38-.75a3.33,3.33,0,0,1,3.29,4.14A18,18,0,0,1,248,333.6Z"/></g></g></svg>