<svg xmlns="http://www.w3.org/2000/svg" viewBox="0 0 366.87 225.25"><g id="Layer_2" data-name="Layer 2"><g id="Layer_1-2" data-name="Layer 1"><path d="M203.44,0C226,1.13,247.79.8,269.17,5.11c24.65,5,48.15,13,69.25,27.08C358.73,45.76,368,65,366.77,89.19c-.68,13.89-4.38,27-12.78,38.37a12.59,12.59,0,0,0-2.57,8.22c.19,9.92-2,19.48-5.06,28.85a41.87,41.87,0,0,1-17.46,23,115.26,115.26,0,0,1-16.38,9c-28.22,12.12-57.39,21.16-87.77,26-22.15,3.51-44.42,3.11-66.7,1.61-6.53-.44-13.06-.84-19.55-1.52a275.75,275.75,0,0,1-79.85-21A111,111,0,0,1,32.14,185.4c-8.69-7.07-14.16-16-15.94-27-1.18-7.32-1.95-14.72-2.56-22.11-.24-2.81-.8-5-2.89-7.11C3.19,121.61,0,112.18,0,101.68A158.94,158.94,0,0,1,1.25,84.81C1.88,79.2,2.9,73.64,3.64,68a31.19,31.19,0,0,1,8.13-17.5,75.91,75.91,0,0,1,21-16.3,240.11,240.11,0,0,1,60.14-21.8c28.51-6.13,57.29-10.25,86.49-11.16C187.75,1,196.05.4,203.44,0ZM202.3,10.49C165,11.3,134.6,14.05,97.39,21.84A229.08,229.08,0,0,0,37.28,43.58,66.6,66.6,0,0,0,19.78,57.2a19.52,19.52,0,0,0-5.62,10.91c-.74,5.89-1.44,11.79-2,17.7-.5,5.61-.43,11.29-1.18,16.86s.8,10.55,3.6,15.26c3.3,5.54,8.27,7.51,14.42,6.4a51.59,51.59,0,0,0,8.49-2.6c3.91-1.41,7.7-3.16,11.62-4.51,13.24-4.54,25.64-3.26,37.2,5.13a79.17,79.17,0,0,1,19.31,19.55c3.69,5.42,7.63,10.64,12.84,14.73,10.57,8.3,22.14,9.76,34.25,4.11a77.36,77.36,0,0,0,13.43-8.65c4.26-3.21,8.11-7,12.16-10.46a40.46,40.46,0,0,1,15.44-8.58c7.94-2.27,14.85-.43,20.29,5.54A47.17,47.17,0,0,1,220.73,149c1.89,3.68,3.08,7.72,4.78,11.52a26,26,0,0,0,7.28,10c5.16,4.12,11.82,3.69,15.74-1.59,2.62-3.53,4.43-7.7,6.37-11.68,1.56-3.2,2.55-6.69,4.2-9.83,4.85-9.22,12.6-14,23-14.13a61.22,61.22,0,0,1,12.4,1.05c7.66,1.53,15.35,1.59,23.08,1.31,15.13-.54,25.76-8,32.32-21.43a64.63,64.63,0,0,0,6.45-24.88c.54-9.58-.37-19.07-5-27.74a56,56,0,0,0-18.85-21c-18.89-12.46-39.75-20-61.64-24.74C248.45,11.07,225.53,10.59,202.3,10.49ZM23.62,135.69a12.89,12.89,0,0,0-.3,3.42c1.26,7.31,2.35,14.68,4.07,21.89,1.48,6.22,5.24,11.24,10.1,15.43A94.84,94.84,0,0,0,62.33,192a260.3,260.3,0,0,0,65.81,18.71,428,428,0,0,0,56.88,4A269.89,269.89,0,0,0,216.15,213c23.44-2.56,46.07-8.79,68.24-16.66,11.47-4.06,22.89-8.26,33.68-14.07,16-8.63,21.15-23.1,22.08-40,0-.24-.28-.51-.62-1.09-1.86.6-3.78,1.3-5.74,1.83-3.72,1-7.41,2.39-11.21,2.79a96.29,96.29,0,0,1-25.77-.42c-3.52-.57-7-1.18-10.58-1.56-10.22-1.08-15.43,2.05-19.49,11.65-1.15,2.73-1.93,5.65-3.26,8.29-2,4-3.91,8.09-6.6,11.58-7.72,10-21,11.22-30.81,3.16a36.15,36.15,0,0,1-10-13.52c-1.7-3.8-3.09-7.73-4.82-11.51a38.88,38.88,0,0,0-3.95-6.93,9.27,9.27,0,0,0-11.1-3.47,36,36,0,0,0-8.64,4.48c-2.68,1.83-4.91,4.31-7.46,6.35-5.57,4.44-10.9,9.29-16.89,13.08-19.48,12.31-40.74,9.55-56.64-7.17a118.84,118.84,0,0,1-9.93-12.58A79.42,79.42,0,0,0,81.9,131.85C72.39,124.21,62.12,123,51,127.27c-4.44,1.71-8.75,3.79-13.27,5.19S28.5,134.59,23.62,135.69Z"/><path d="M120.76,72.81c12.35-11.53,27-14.7,42.35-16a142.52,142.52,0,0,1,36.43,1.26c11.94,2.07,23.14,5.49,31.24,15.32,8.85-2.24,16.09-7,23.9-10.54S268.71,53,277,50.2c1.51,2-.08,3-.89,3.89-19.24,20.38-41.83,33.63-70.65,35.34a315.09,315.09,0,0,1-73.7-3.81A81.7,81.7,0,0,1,97.42,71.53c-3.43-2.48-6.54-5.23-7.79-9.42a3.69,3.69,0,0,1,.65-3.17,3.36,3.36,0,0,1,3.13-.31c5.19,2.86,10.18,6.1,15.41,8.89C112.47,69.46,116.39,70.9,120.76,72.81Zm14.14.88c.09.69.17,1.39.25,2.08,3.71.57,7.42,1.19,11.13,1.71a267.73,267.73,0,0,0,68.23.5c1.22-.14,2.35-1,4.35-2-11.64-7.92-24.13-8.85-36.42-9.54C166.15,65.56,150,66.83,134.9,73.69Z"/><path d="M75.19,101c-6.36,1.35-12.19-.19-17.74-2.78-8-3.71-13.79-10-19-16.86a6.78,6.78,0,0,1-.81-2.48c-.26-1.07,1.07-2.5,2.1-2.21A11.11,11.11,0,0,1,43,77.86c2.91,2,5.73,4.16,8.54,6.3,7.27,5.52,14.32,11.38,23,14.79C74.81,99.08,74.85,100,75.19,101Z"/><path d="M326.8,89.39c.45-5.73.77-10.68,1.27-15.61.2-1.89,1.41-3.49,3.41-3.28A5.06,5.06,0,0,1,335,72.7c2.69,5.14-.39,13.74-5.78,16.66C328.72,89.6,328,89.39,326.8,89.39Z"/><path d="M307.91,96.67c-1.82-3.27-2-7-1.9-10.78A8,8,0,0,1,307.7,82c1.17-1.68,4.13-1.44,5.31.25,2.83,4.06,1.2,11.87-3.11,14.63C309.53,97.1,308.81,96.78,307.91,96.67Z"/><path d="M280.72,106.31c-.19-2.59,1.25-4.38,3.16-5.67a3.2,3.2,0,0,1,3.05,0,3.32,3.32,0,0,1,.64,3C286.37,106.65,284.89,107.09,280.72,106.31Z"/></g></g></svg>