<svg xmlns="http://www.w3.org/2000/svg" viewBox="0 0 295.39 386.68"><g id="Layer_2" data-name="Layer 2"><g id="Layer_1-2" data-name="Layer 1"><path d="M19.69,223.64c-1.89-1.67-3.05-2.59-4.07-3.64-4.37-4.46-5.78-9.85-3.43-15.56A94.65,94.65,0,0,1,20,189.52c4.48-7,9.55-13.64,14.2-20.54,3.12-4.63,6.52-9.17,8.07-15.07a56.12,56.12,0,0,1-6.41-.88,4.45,4.45,0,0,1-3.38-3.74,4.49,4.49,0,0,1,3-4.91c1.08-.47,2.28-.63,3.4-1,.81-.28,1.57-.7,2.77-1.26a35.43,35.43,0,0,0-2.21-4.75c-3.11-4.71-6.28-9.39-9.58-14a62.19,62.19,0,0,1-8.79-17.44,25.19,25.19,0,0,1,0-15.78A12.13,12.13,0,0,1,28.74,82c2.7-1,5.48-1.8,8.51-2.77-6.7-13-13.29-25.61-19.7-38.31a155.48,155.48,0,0,1-6.92-15.44c-2.27-6,0-10.61,6.17-12.45a62.73,62.73,0,0,1,13.13-2.31c48-3.46,96-6.86,144.2-7.63,18.71-.31,37.4-1.62,56.1-2.52C241.52,0,252.8-.57,264.05,1c1.47.21,3,.32,4.42.62,7.15,1.51,10.8,6.29,9.73,13.53a43,43,0,0,1-3.27,11.07c-3,6.78-6.26,13.48-9.86,20-4.76,8.58-9.95,16.91-14.94,25.36-.75,1.27-1.45,2.57-2.49,4.42,1.75,1.15,3.38,2.19,5,3.28,4.39,3,5.9,6.35,4.55,11.46a35.27,35.27,0,0,1-3.49,8.15c-3.78,6.73-7.83,13.32-11.65,20-1.28,2.23-3.33,4.23-2.83,7.37a39.07,39.07,0,0,1,6.73,1.72,4.69,4.69,0,0,1,2.48,3.23,4.63,4.63,0,0,1-1.9,3.63c-2,1.19-4.34,1.72-7.07,2.72.3,3.48,2.31,6.07,4.06,8.64,6.89,10.05,13.81,20.09,20.92,30,4.68,6.51,9.72,12.77,14.57,19.16a45.37,45.37,0,0,1,4.07,5.85c2.46,4.59.76,9.13-4.08,10.8-2.77,1-5.71,1.41-9.29,2.26a41.41,41.41,0,0,0,2.8,4.69c13.84,17,19.77,37,22.12,58.34,3.23,29.22-3.48,56.12-18.61,81-4.16,6.84-9.1,13.21-13.55,19.88a9.35,9.35,0,0,1-8.24,4.4c-2.08,0-4.16.1-6.24.12q-94.49,1.31-189,2.63a99.9,99.9,0,0,0-16,1.05c-5.55,1-9.09-.92-11.92-5.42-3.64-5.78-7.7-11.31-11.17-17.19a163.21,163.21,0,0,1-15.37-35A100.73,100.73,0,0,1,0,297.13,199.12,199.12,0,0,1,4.24,260C6.93,247.06,11.4,234.82,19.69,223.64ZM39.74,375.12c1.93,0,3.11,0,4.29,0l178.32-2.32c7.43-.1,14.87-.54,22.28-.18,6.36.3,10.91-2.22,14.28-7.2,3.83-5.65,7.63-11.35,11-17.28a117.81,117.81,0,0,0,15.31-51.71c.55-8.89-.62-17.61-2.21-27A28,28,0,0,0,278.4,271c-4.1,2.39-8.13,4.91-12.16,7.42-7.31,4.56-14.5,9.32-21.92,13.69a96.51,96.51,0,0,1-23,9.57,129.21,129.21,0,0,1-73-.62c-13.09-3.89-26-8.48-38.93-12.8-13.25-4.42-26.54-8.71-40.41-10.78-7-1.05-14-2.06-21.34-.59a15,15,0,0,0-.85,3.55c.12,5.94.28,11.88.62,17.81.33,5.63,1,11.24,1.32,16.88.16,2.53-1.07,4.72-2,4.19a11,11,0,0,1-3.09-2.86,10.53,10.53,0,0,1-.94-2.49c-3.86-9.18-5.4-18.81-5.69-28.7-.07-2.26-.43-4.52-.72-7.45-9.22.84-17.33,3-25,7.18a75.36,75.36,0,0,0,.09,28.68C15.79,336.26,25.82,356.32,39.74,375.12ZM55,152.14c-3.94,10.38-9.29,18.91-15.2,27.14-4,5.55-8,11.11-11.69,16.84a75,75,0,0,0-5.85,11c-1.39,3.23.25,5.84,3.71,6.73a18.93,18.93,0,0,0,3.52.52c5.63.38,11.27,1.12,16.89,1,19.3-.41,38.62-.78,57.9-1.83s38.51-2.72,57.74-4.43c21.31-1.88,42.58-3.92,64-3.92,13.35,0,26.7-1.08,40.05-1.74,1.35-.07,3,.26,3.9-2.37-15.18-19.91-30.53-40.22-43.33-63Zm-.14-10,170.32-14c4-7.29,7.77-13.7,11.22-20.26s8.48-12.08,10.13-20a130,130,0,0,0-20.75-2c-12.49-.33-25-.5-37.45-1-40.72-1.51-81.44-1.86-122.12.81-9.17.6-18.3,2.1-27.38,3.6-7.52,1.24-9.49,4.42-8.12,11.93a17.92,17.92,0,0,0,1.67,5.06c2.06,3.94,4.22,7.84,6.55,11.61,4.53,7.33,9.21,14.56,13.85,21.81A25,25,0,0,0,54.86,142.15ZM280.58,258.49A89.84,89.84,0,0,0,257,215.26c-32.45-1.06-87.45,2.22-98.61,6q3.12,36.12,6.26,72.53a34.26,34.26,0,0,0,11.63,2.31c26,1.62,50.09-3.87,72.08-18.17C258.74,271.16,268.59,263.45,280.58,258.49ZM267.89,13.27c-3.23-2.59-6.29-2.43-9.2-2.5-7.42-.16-14.86-.35-22.27-.09-16,.55-32.06,1.49-48.1,2.06-20.78.75-41.59,1-62.36,2-29.09,1.43-58.14,3.36-87.21,5.14-4.74.29-9.47.85-14.18,1.45a16.91,16.91,0,0,0-3.76,1.4c3.15,10,11.62,26.36,17.06,33,4.09-2.11,8.25-4.32,12.47-6.42Q79.25,35,110.08,44.55c4.25,1.32,8.52,2.58,12.79,3.85a124.79,124.79,0,0,0,37.83,5.08c12.31-.23,24.12-3.07,35.8-6.63,20.22-6.14,40.54-11.69,62.27-11.2C262.92,28.66,266.54,21.62,267.89,13.27ZM48.7,266.46c4.09.28,6.72.55,9.36.63a128.41,128.41,0,0,1,32.48,5.22c12.82,3.8,25.5,8,38.25,12.05,2.17.68,4.4,1.15,7.27,1.88.41-19.75-1.71-38.67-1.9-57.63,0-1.71-.34-3.42-.58-5.74-9-.2-17.52.48-26.05.9s-17.22.89-25.84,1.22c-8.91.35-17.82.66-26.74.8-8.56.13-17.13,0-25.7,0C18.6,241,11.56,262.55,13.38,275c4.26-1.34,8.53-2.5,12.66-4S35,270,38,267.43c2.63-7.49,4.81-14.28,7.43-20.89.94-2.39,2.84-4.44,4.51-6.48a2.56,2.56,0,0,1,2.44-.43c.92.53,2.17,1.67,2.13,2.5A39.43,39.43,0,0,1,53.22,250C51.93,255.09,50.44,260.17,48.7,266.46ZM252.67,46c-3.41,0-5.49-.28-7.47.05-9.07,1.47-18.19,2.76-27.14,4.79-8.68,2-17.16,4.78-25.73,7.19a128,128,0,0,1-56.48,2.88C127,59.44,118.59,56.64,110,54.14a131.09,131.09,0,0,0-18.15-4.3C75,47.41,59.55,52.26,44.77,59.93a35.23,35.23,0,0,0-4.18,2.94c1.27,6.61,5.47,10.78,9.53,15.32,4.56-.54,9-1.11,13.35-1.57,22.49-2.33,45.09-2.82,67.65-2.7,33,.18,65.94,1.36,98.91,2.08,2,0,4-.17,5.91-.26C240.75,65.71,247.4,57.27,252.67,46ZM142.11,221.88c.53,8.55,1,16,1.43,23.35.48,7.71.87,15.43,1.48,23.13.59,7.31.33,14.74,2.28,22.09l6.11.86c.62-7.59-3.4-68.39-4.84-69.85Z"/><path d="M57.33,333.88c-.27,1.26-.39,2.13-.66,3-.5,1.56-3.16,2.22-4.42,1.16a8.5,8.5,0,0,1-3.17-6.92c0-1.65,1.67-3.89,3.11-3.69a5.61,5.61,0,0,1,3.55,1.94C56.68,330.69,56.9,332.54,57.33,333.88Z"/><path d="M258.6,324.24c-.32,1.28-.47,2.17-.76,3-.5,1.4-1,2.79-2.86,3-1.5.16-2.86-1.18-3.2-3.56a20.85,20.85,0,0,1-.19-5.29,2.74,2.74,0,0,1,3-2.64,4.33,4.33,0,0,1,2.88,1.7A13.24,13.24,0,0,1,258.6,324.24Z"/><path d="M239.54,344.15c-.26-.1-.72-.16-.75-.32a11.84,11.84,0,0,1-.68-4c.24-1.66,1-3.52,3-3.59a3.22,3.22,0,0,1,2.43,1.79c.83,2.49-.53,4.39-2.41,5.88C240.79,344.2,240.09,344.08,239.54,344.15Z"/></g></g></svg>